G04 #@! TF.GenerationSoftware,KiCad,Pcbnew,5.0.0*
G04 #@! TF.CreationDate,2018-09-10T00:09:20+02:00*
G04 #@! TF.ProjectId,preamp,707265616D702E6B696361645F706362,rev?*
G04 #@! TF.SameCoordinates,Original*
G04 #@! TF.FileFunction,Paste,Top*
G04 #@! TF.FilePolarity,Positive*
%FSLAX46Y46*%
G04 Gerber Fmt 4.6, Leading zero omitted, Abs format (unit mm)*
G04 Created by KiCad (PCBNEW 5.0.0) date Mon Sep 10 00:09:20 2018*
%MOMM*%
%LPD*%
G01*
G04 APERTURE LIST*
%ADD10C,0.100000*%
%ADD11C,0.975000*%
%ADD12R,0.900000X0.800000*%
%ADD13R,1.550000X0.600000*%
%ADD14R,0.700000X0.600000*%
G04 APERTURE END LIST*
D10*
G04 #@! TO.C,C1*
G36*
X103273599Y-100406392D02*
X103297260Y-100409902D01*
X103320464Y-100415714D01*
X103342986Y-100423772D01*
X103364610Y-100434000D01*
X103385127Y-100446297D01*
X103404340Y-100460547D01*
X103422064Y-100476611D01*
X103438128Y-100494335D01*
X103452378Y-100513548D01*
X103464675Y-100534065D01*
X103474903Y-100555689D01*
X103482961Y-100578211D01*
X103488773Y-100601415D01*
X103492283Y-100625076D01*
X103493457Y-100648968D01*
X103493457Y-101561468D01*
X103492283Y-101585360D01*
X103488773Y-101609021D01*
X103482961Y-101632225D01*
X103474903Y-101654747D01*
X103464675Y-101676371D01*
X103452378Y-101696888D01*
X103438128Y-101716101D01*
X103422064Y-101733825D01*
X103404340Y-101749889D01*
X103385127Y-101764139D01*
X103364610Y-101776436D01*
X103342986Y-101786664D01*
X103320464Y-101794722D01*
X103297260Y-101800534D01*
X103273599Y-101804044D01*
X103249707Y-101805218D01*
X102762207Y-101805218D01*
X102738315Y-101804044D01*
X102714654Y-101800534D01*
X102691450Y-101794722D01*
X102668928Y-101786664D01*
X102647304Y-101776436D01*
X102626787Y-101764139D01*
X102607574Y-101749889D01*
X102589850Y-101733825D01*
X102573786Y-101716101D01*
X102559536Y-101696888D01*
X102547239Y-101676371D01*
X102537011Y-101654747D01*
X102528953Y-101632225D01*
X102523141Y-101609021D01*
X102519631Y-101585360D01*
X102518457Y-101561468D01*
X102518457Y-100648968D01*
X102519631Y-100625076D01*
X102523141Y-100601415D01*
X102528953Y-100578211D01*
X102537011Y-100555689D01*
X102547239Y-100534065D01*
X102559536Y-100513548D01*
X102573786Y-100494335D01*
X102589850Y-100476611D01*
X102607574Y-100460547D01*
X102626787Y-100446297D01*
X102647304Y-100434000D01*
X102668928Y-100423772D01*
X102691450Y-100415714D01*
X102714654Y-100409902D01*
X102738315Y-100406392D01*
X102762207Y-100405218D01*
X103249707Y-100405218D01*
X103273599Y-100406392D01*
X103273599Y-100406392D01*
G37*
D11*
X103005957Y-101105218D03*
D10*
G36*
X101398599Y-100406392D02*
X101422260Y-100409902D01*
X101445464Y-100415714D01*
X101467986Y-100423772D01*
X101489610Y-100434000D01*
X101510127Y-100446297D01*
X101529340Y-100460547D01*
X101547064Y-100476611D01*
X101563128Y-100494335D01*
X101577378Y-100513548D01*
X101589675Y-100534065D01*
X101599903Y-100555689D01*
X101607961Y-100578211D01*
X101613773Y-100601415D01*
X101617283Y-100625076D01*
X101618457Y-100648968D01*
X101618457Y-101561468D01*
X101617283Y-101585360D01*
X101613773Y-101609021D01*
X101607961Y-101632225D01*
X101599903Y-101654747D01*
X101589675Y-101676371D01*
X101577378Y-101696888D01*
X101563128Y-101716101D01*
X101547064Y-101733825D01*
X101529340Y-101749889D01*
X101510127Y-101764139D01*
X101489610Y-101776436D01*
X101467986Y-101786664D01*
X101445464Y-101794722D01*
X101422260Y-101800534D01*
X101398599Y-101804044D01*
X101374707Y-101805218D01*
X100887207Y-101805218D01*
X100863315Y-101804044D01*
X100839654Y-101800534D01*
X100816450Y-101794722D01*
X100793928Y-101786664D01*
X100772304Y-101776436D01*
X100751787Y-101764139D01*
X100732574Y-101749889D01*
X100714850Y-101733825D01*
X100698786Y-101716101D01*
X100684536Y-101696888D01*
X100672239Y-101676371D01*
X100662011Y-101654747D01*
X100653953Y-101632225D01*
X100648141Y-101609021D01*
X100644631Y-101585360D01*
X100643457Y-101561468D01*
X100643457Y-100648968D01*
X100644631Y-100625076D01*
X100648141Y-100601415D01*
X100653953Y-100578211D01*
X100662011Y-100555689D01*
X100672239Y-100534065D01*
X100684536Y-100513548D01*
X100698786Y-100494335D01*
X100714850Y-100476611D01*
X100732574Y-100460547D01*
X100751787Y-100446297D01*
X100772304Y-100434000D01*
X100793928Y-100423772D01*
X100816450Y-100415714D01*
X100839654Y-100409902D01*
X100863315Y-100406392D01*
X100887207Y-100405218D01*
X101374707Y-100405218D01*
X101398599Y-100406392D01*
X101398599Y-100406392D01*
G37*
D11*
X101130957Y-101105218D03*
G04 #@! TD*
D10*
G04 #@! TO.C,C2*
G36*
X90661399Y-101764192D02*
X90685060Y-101767702D01*
X90708264Y-101773514D01*
X90730786Y-101781572D01*
X90752410Y-101791800D01*
X90772927Y-101804097D01*
X90792140Y-101818347D01*
X90809864Y-101834411D01*
X90825928Y-101852135D01*
X90840178Y-101871348D01*
X90852475Y-101891865D01*
X90862703Y-101913489D01*
X90870761Y-101936011D01*
X90876573Y-101959215D01*
X90880083Y-101982876D01*
X90881257Y-102006768D01*
X90881257Y-102494268D01*
X90880083Y-102518160D01*
X90876573Y-102541821D01*
X90870761Y-102565025D01*
X90862703Y-102587547D01*
X90852475Y-102609171D01*
X90840178Y-102629688D01*
X90825928Y-102648901D01*
X90809864Y-102666625D01*
X90792140Y-102682689D01*
X90772927Y-102696939D01*
X90752410Y-102709236D01*
X90730786Y-102719464D01*
X90708264Y-102727522D01*
X90685060Y-102733334D01*
X90661399Y-102736844D01*
X90637507Y-102738018D01*
X89725007Y-102738018D01*
X89701115Y-102736844D01*
X89677454Y-102733334D01*
X89654250Y-102727522D01*
X89631728Y-102719464D01*
X89610104Y-102709236D01*
X89589587Y-102696939D01*
X89570374Y-102682689D01*
X89552650Y-102666625D01*
X89536586Y-102648901D01*
X89522336Y-102629688D01*
X89510039Y-102609171D01*
X89499811Y-102587547D01*
X89491753Y-102565025D01*
X89485941Y-102541821D01*
X89482431Y-102518160D01*
X89481257Y-102494268D01*
X89481257Y-102006768D01*
X89482431Y-101982876D01*
X89485941Y-101959215D01*
X89491753Y-101936011D01*
X89499811Y-101913489D01*
X89510039Y-101891865D01*
X89522336Y-101871348D01*
X89536586Y-101852135D01*
X89552650Y-101834411D01*
X89570374Y-101818347D01*
X89589587Y-101804097D01*
X89610104Y-101791800D01*
X89631728Y-101781572D01*
X89654250Y-101773514D01*
X89677454Y-101767702D01*
X89701115Y-101764192D01*
X89725007Y-101763018D01*
X90637507Y-101763018D01*
X90661399Y-101764192D01*
X90661399Y-101764192D01*
G37*
D11*
X90181257Y-102250518D03*
D10*
G36*
X90661399Y-103639192D02*
X90685060Y-103642702D01*
X90708264Y-103648514D01*
X90730786Y-103656572D01*
X90752410Y-103666800D01*
X90772927Y-103679097D01*
X90792140Y-103693347D01*
X90809864Y-103709411D01*
X90825928Y-103727135D01*
X90840178Y-103746348D01*
X90852475Y-103766865D01*
X90862703Y-103788489D01*
X90870761Y-103811011D01*
X90876573Y-103834215D01*
X90880083Y-103857876D01*
X90881257Y-103881768D01*
X90881257Y-104369268D01*
X90880083Y-104393160D01*
X90876573Y-104416821D01*
X90870761Y-104440025D01*
X90862703Y-104462547D01*
X90852475Y-104484171D01*
X90840178Y-104504688D01*
X90825928Y-104523901D01*
X90809864Y-104541625D01*
X90792140Y-104557689D01*
X90772927Y-104571939D01*
X90752410Y-104584236D01*
X90730786Y-104594464D01*
X90708264Y-104602522D01*
X90685060Y-104608334D01*
X90661399Y-104611844D01*
X90637507Y-104613018D01*
X89725007Y-104613018D01*
X89701115Y-104611844D01*
X89677454Y-104608334D01*
X89654250Y-104602522D01*
X89631728Y-104594464D01*
X89610104Y-104584236D01*
X89589587Y-104571939D01*
X89570374Y-104557689D01*
X89552650Y-104541625D01*
X89536586Y-104523901D01*
X89522336Y-104504688D01*
X89510039Y-104484171D01*
X89499811Y-104462547D01*
X89491753Y-104440025D01*
X89485941Y-104416821D01*
X89482431Y-104393160D01*
X89481257Y-104369268D01*
X89481257Y-103881768D01*
X89482431Y-103857876D01*
X89485941Y-103834215D01*
X89491753Y-103811011D01*
X89499811Y-103788489D01*
X89510039Y-103766865D01*
X89522336Y-103746348D01*
X89536586Y-103727135D01*
X89552650Y-103709411D01*
X89570374Y-103693347D01*
X89589587Y-103679097D01*
X89610104Y-103666800D01*
X89631728Y-103656572D01*
X89654250Y-103648514D01*
X89677454Y-103642702D01*
X89701115Y-103639192D01*
X89725007Y-103638018D01*
X90637507Y-103638018D01*
X90661399Y-103639192D01*
X90661399Y-103639192D01*
G37*
D11*
X90181257Y-104125518D03*
G04 #@! TD*
D10*
G04 #@! TO.C,C3*
G36*
X106652142Y-93648374D02*
X106675803Y-93651884D01*
X106699007Y-93657696D01*
X106721529Y-93665754D01*
X106743153Y-93675982D01*
X106763670Y-93688279D01*
X106782883Y-93702529D01*
X106800607Y-93718593D01*
X106816671Y-93736317D01*
X106830921Y-93755530D01*
X106843218Y-93776047D01*
X106853446Y-93797671D01*
X106861504Y-93820193D01*
X106867316Y-93843397D01*
X106870826Y-93867058D01*
X106872000Y-93890950D01*
X106872000Y-94378450D01*
X106870826Y-94402342D01*
X106867316Y-94426003D01*
X106861504Y-94449207D01*
X106853446Y-94471729D01*
X106843218Y-94493353D01*
X106830921Y-94513870D01*
X106816671Y-94533083D01*
X106800607Y-94550807D01*
X106782883Y-94566871D01*
X106763670Y-94581121D01*
X106743153Y-94593418D01*
X106721529Y-94603646D01*
X106699007Y-94611704D01*
X106675803Y-94617516D01*
X106652142Y-94621026D01*
X106628250Y-94622200D01*
X105715750Y-94622200D01*
X105691858Y-94621026D01*
X105668197Y-94617516D01*
X105644993Y-94611704D01*
X105622471Y-94603646D01*
X105600847Y-94593418D01*
X105580330Y-94581121D01*
X105561117Y-94566871D01*
X105543393Y-94550807D01*
X105527329Y-94533083D01*
X105513079Y-94513870D01*
X105500782Y-94493353D01*
X105490554Y-94471729D01*
X105482496Y-94449207D01*
X105476684Y-94426003D01*
X105473174Y-94402342D01*
X105472000Y-94378450D01*
X105472000Y-93890950D01*
X105473174Y-93867058D01*
X105476684Y-93843397D01*
X105482496Y-93820193D01*
X105490554Y-93797671D01*
X105500782Y-93776047D01*
X105513079Y-93755530D01*
X105527329Y-93736317D01*
X105543393Y-93718593D01*
X105561117Y-93702529D01*
X105580330Y-93688279D01*
X105600847Y-93675982D01*
X105622471Y-93665754D01*
X105644993Y-93657696D01*
X105668197Y-93651884D01*
X105691858Y-93648374D01*
X105715750Y-93647200D01*
X106628250Y-93647200D01*
X106652142Y-93648374D01*
X106652142Y-93648374D01*
G37*
D11*
X106172000Y-94134700D03*
D10*
G36*
X106652142Y-95523374D02*
X106675803Y-95526884D01*
X106699007Y-95532696D01*
X106721529Y-95540754D01*
X106743153Y-95550982D01*
X106763670Y-95563279D01*
X106782883Y-95577529D01*
X106800607Y-95593593D01*
X106816671Y-95611317D01*
X106830921Y-95630530D01*
X106843218Y-95651047D01*
X106853446Y-95672671D01*
X106861504Y-95695193D01*
X106867316Y-95718397D01*
X106870826Y-95742058D01*
X106872000Y-95765950D01*
X106872000Y-96253450D01*
X106870826Y-96277342D01*
X106867316Y-96301003D01*
X106861504Y-96324207D01*
X106853446Y-96346729D01*
X106843218Y-96368353D01*
X106830921Y-96388870D01*
X106816671Y-96408083D01*
X106800607Y-96425807D01*
X106782883Y-96441871D01*
X106763670Y-96456121D01*
X106743153Y-96468418D01*
X106721529Y-96478646D01*
X106699007Y-96486704D01*
X106675803Y-96492516D01*
X106652142Y-96496026D01*
X106628250Y-96497200D01*
X105715750Y-96497200D01*
X105691858Y-96496026D01*
X105668197Y-96492516D01*
X105644993Y-96486704D01*
X105622471Y-96478646D01*
X105600847Y-96468418D01*
X105580330Y-96456121D01*
X105561117Y-96441871D01*
X105543393Y-96425807D01*
X105527329Y-96408083D01*
X105513079Y-96388870D01*
X105500782Y-96368353D01*
X105490554Y-96346729D01*
X105482496Y-96324207D01*
X105476684Y-96301003D01*
X105473174Y-96277342D01*
X105472000Y-96253450D01*
X105472000Y-95765950D01*
X105473174Y-95742058D01*
X105476684Y-95718397D01*
X105482496Y-95695193D01*
X105490554Y-95672671D01*
X105500782Y-95651047D01*
X105513079Y-95630530D01*
X105527329Y-95611317D01*
X105543393Y-95593593D01*
X105561117Y-95577529D01*
X105580330Y-95563279D01*
X105600847Y-95550982D01*
X105622471Y-95540754D01*
X105644993Y-95532696D01*
X105668197Y-95526884D01*
X105691858Y-95523374D01*
X105715750Y-95522200D01*
X106628250Y-95522200D01*
X106652142Y-95523374D01*
X106652142Y-95523374D01*
G37*
D11*
X106172000Y-96009700D03*
G04 #@! TD*
D10*
G04 #@! TO.C,C4*
G36*
X95715999Y-97979592D02*
X95739660Y-97983102D01*
X95762864Y-97988914D01*
X95785386Y-97996972D01*
X95807010Y-98007200D01*
X95827527Y-98019497D01*
X95846740Y-98033747D01*
X95864464Y-98049811D01*
X95880528Y-98067535D01*
X95894778Y-98086748D01*
X95907075Y-98107265D01*
X95917303Y-98128889D01*
X95925361Y-98151411D01*
X95931173Y-98174615D01*
X95934683Y-98198276D01*
X95935857Y-98222168D01*
X95935857Y-98709668D01*
X95934683Y-98733560D01*
X95931173Y-98757221D01*
X95925361Y-98780425D01*
X95917303Y-98802947D01*
X95907075Y-98824571D01*
X95894778Y-98845088D01*
X95880528Y-98864301D01*
X95864464Y-98882025D01*
X95846740Y-98898089D01*
X95827527Y-98912339D01*
X95807010Y-98924636D01*
X95785386Y-98934864D01*
X95762864Y-98942922D01*
X95739660Y-98948734D01*
X95715999Y-98952244D01*
X95692107Y-98953418D01*
X94779607Y-98953418D01*
X94755715Y-98952244D01*
X94732054Y-98948734D01*
X94708850Y-98942922D01*
X94686328Y-98934864D01*
X94664704Y-98924636D01*
X94644187Y-98912339D01*
X94624974Y-98898089D01*
X94607250Y-98882025D01*
X94591186Y-98864301D01*
X94576936Y-98845088D01*
X94564639Y-98824571D01*
X94554411Y-98802947D01*
X94546353Y-98780425D01*
X94540541Y-98757221D01*
X94537031Y-98733560D01*
X94535857Y-98709668D01*
X94535857Y-98222168D01*
X94537031Y-98198276D01*
X94540541Y-98174615D01*
X94546353Y-98151411D01*
X94554411Y-98128889D01*
X94564639Y-98107265D01*
X94576936Y-98086748D01*
X94591186Y-98067535D01*
X94607250Y-98049811D01*
X94624974Y-98033747D01*
X94644187Y-98019497D01*
X94664704Y-98007200D01*
X94686328Y-97996972D01*
X94708850Y-97988914D01*
X94732054Y-97983102D01*
X94755715Y-97979592D01*
X94779607Y-97978418D01*
X95692107Y-97978418D01*
X95715999Y-97979592D01*
X95715999Y-97979592D01*
G37*
D11*
X95235857Y-98465918D03*
D10*
G36*
X95715999Y-99854592D02*
X95739660Y-99858102D01*
X95762864Y-99863914D01*
X95785386Y-99871972D01*
X95807010Y-99882200D01*
X95827527Y-99894497D01*
X95846740Y-99908747D01*
X95864464Y-99924811D01*
X95880528Y-99942535D01*
X95894778Y-99961748D01*
X95907075Y-99982265D01*
X95917303Y-100003889D01*
X95925361Y-100026411D01*
X95931173Y-100049615D01*
X95934683Y-100073276D01*
X95935857Y-100097168D01*
X95935857Y-100584668D01*
X95934683Y-100608560D01*
X95931173Y-100632221D01*
X95925361Y-100655425D01*
X95917303Y-100677947D01*
X95907075Y-100699571D01*
X95894778Y-100720088D01*
X95880528Y-100739301D01*
X95864464Y-100757025D01*
X95846740Y-100773089D01*
X95827527Y-100787339D01*
X95807010Y-100799636D01*
X95785386Y-100809864D01*
X95762864Y-100817922D01*
X95739660Y-100823734D01*
X95715999Y-100827244D01*
X95692107Y-100828418D01*
X94779607Y-100828418D01*
X94755715Y-100827244D01*
X94732054Y-100823734D01*
X94708850Y-100817922D01*
X94686328Y-100809864D01*
X94664704Y-100799636D01*
X94644187Y-100787339D01*
X94624974Y-100773089D01*
X94607250Y-100757025D01*
X94591186Y-100739301D01*
X94576936Y-100720088D01*
X94564639Y-100699571D01*
X94554411Y-100677947D01*
X94546353Y-100655425D01*
X94540541Y-100632221D01*
X94537031Y-100608560D01*
X94535857Y-100584668D01*
X94535857Y-100097168D01*
X94537031Y-100073276D01*
X94540541Y-100049615D01*
X94546353Y-100026411D01*
X94554411Y-100003889D01*
X94564639Y-99982265D01*
X94576936Y-99961748D01*
X94591186Y-99942535D01*
X94607250Y-99924811D01*
X94624974Y-99908747D01*
X94644187Y-99894497D01*
X94664704Y-99882200D01*
X94686328Y-99871972D01*
X94708850Y-99863914D01*
X94732054Y-99858102D01*
X94755715Y-99854592D01*
X94779607Y-99853418D01*
X95692107Y-99853418D01*
X95715999Y-99854592D01*
X95715999Y-99854592D01*
G37*
D11*
X95235857Y-100340918D03*
G04 #@! TD*
D10*
G04 #@! TO.C,C5*
G36*
X93226799Y-103539892D02*
X93250460Y-103543402D01*
X93273664Y-103549214D01*
X93296186Y-103557272D01*
X93317810Y-103567500D01*
X93338327Y-103579797D01*
X93357540Y-103594047D01*
X93375264Y-103610111D01*
X93391328Y-103627835D01*
X93405578Y-103647048D01*
X93417875Y-103667565D01*
X93428103Y-103689189D01*
X93436161Y-103711711D01*
X93441973Y-103734915D01*
X93445483Y-103758576D01*
X93446657Y-103782468D01*
X93446657Y-104269968D01*
X93445483Y-104293860D01*
X93441973Y-104317521D01*
X93436161Y-104340725D01*
X93428103Y-104363247D01*
X93417875Y-104384871D01*
X93405578Y-104405388D01*
X93391328Y-104424601D01*
X93375264Y-104442325D01*
X93357540Y-104458389D01*
X93338327Y-104472639D01*
X93317810Y-104484936D01*
X93296186Y-104495164D01*
X93273664Y-104503222D01*
X93250460Y-104509034D01*
X93226799Y-104512544D01*
X93202907Y-104513718D01*
X92290407Y-104513718D01*
X92266515Y-104512544D01*
X92242854Y-104509034D01*
X92219650Y-104503222D01*
X92197128Y-104495164D01*
X92175504Y-104484936D01*
X92154987Y-104472639D01*
X92135774Y-104458389D01*
X92118050Y-104442325D01*
X92101986Y-104424601D01*
X92087736Y-104405388D01*
X92075439Y-104384871D01*
X92065211Y-104363247D01*
X92057153Y-104340725D01*
X92051341Y-104317521D01*
X92047831Y-104293860D01*
X92046657Y-104269968D01*
X92046657Y-103782468D01*
X92047831Y-103758576D01*
X92051341Y-103734915D01*
X92057153Y-103711711D01*
X92065211Y-103689189D01*
X92075439Y-103667565D01*
X92087736Y-103647048D01*
X92101986Y-103627835D01*
X92118050Y-103610111D01*
X92135774Y-103594047D01*
X92154987Y-103579797D01*
X92175504Y-103567500D01*
X92197128Y-103557272D01*
X92219650Y-103549214D01*
X92242854Y-103543402D01*
X92266515Y-103539892D01*
X92290407Y-103538718D01*
X93202907Y-103538718D01*
X93226799Y-103539892D01*
X93226799Y-103539892D01*
G37*
D11*
X92746657Y-104026218D03*
D10*
G36*
X93226799Y-101664892D02*
X93250460Y-101668402D01*
X93273664Y-101674214D01*
X93296186Y-101682272D01*
X93317810Y-101692500D01*
X93338327Y-101704797D01*
X93357540Y-101719047D01*
X93375264Y-101735111D01*
X93391328Y-101752835D01*
X93405578Y-101772048D01*
X93417875Y-101792565D01*
X93428103Y-101814189D01*
X93436161Y-101836711D01*
X93441973Y-101859915D01*
X93445483Y-101883576D01*
X93446657Y-101907468D01*
X93446657Y-102394968D01*
X93445483Y-102418860D01*
X93441973Y-102442521D01*
X93436161Y-102465725D01*
X93428103Y-102488247D01*
X93417875Y-102509871D01*
X93405578Y-102530388D01*
X93391328Y-102549601D01*
X93375264Y-102567325D01*
X93357540Y-102583389D01*
X93338327Y-102597639D01*
X93317810Y-102609936D01*
X93296186Y-102620164D01*
X93273664Y-102628222D01*
X93250460Y-102634034D01*
X93226799Y-102637544D01*
X93202907Y-102638718D01*
X92290407Y-102638718D01*
X92266515Y-102637544D01*
X92242854Y-102634034D01*
X92219650Y-102628222D01*
X92197128Y-102620164D01*
X92175504Y-102609936D01*
X92154987Y-102597639D01*
X92135774Y-102583389D01*
X92118050Y-102567325D01*
X92101986Y-102549601D01*
X92087736Y-102530388D01*
X92075439Y-102509871D01*
X92065211Y-102488247D01*
X92057153Y-102465725D01*
X92051341Y-102442521D01*
X92047831Y-102418860D01*
X92046657Y-102394968D01*
X92046657Y-101907468D01*
X92047831Y-101883576D01*
X92051341Y-101859915D01*
X92057153Y-101836711D01*
X92065211Y-101814189D01*
X92075439Y-101792565D01*
X92087736Y-101772048D01*
X92101986Y-101752835D01*
X92118050Y-101735111D01*
X92135774Y-101719047D01*
X92154987Y-101704797D01*
X92175504Y-101692500D01*
X92197128Y-101682272D01*
X92219650Y-101674214D01*
X92242854Y-101668402D01*
X92266515Y-101664892D01*
X92290407Y-101663718D01*
X93202907Y-101663718D01*
X93226799Y-101664892D01*
X93226799Y-101664892D01*
G37*
D11*
X92746657Y-102151218D03*
G04 #@! TD*
D10*
G04 #@! TO.C,C6*
G36*
X101408142Y-92341374D02*
X101431803Y-92344884D01*
X101455007Y-92350696D01*
X101477529Y-92358754D01*
X101499153Y-92368982D01*
X101519670Y-92381279D01*
X101538883Y-92395529D01*
X101556607Y-92411593D01*
X101572671Y-92429317D01*
X101586921Y-92448530D01*
X101599218Y-92469047D01*
X101609446Y-92490671D01*
X101617504Y-92513193D01*
X101623316Y-92536397D01*
X101626826Y-92560058D01*
X101628000Y-92583950D01*
X101628000Y-93496450D01*
X101626826Y-93520342D01*
X101623316Y-93544003D01*
X101617504Y-93567207D01*
X101609446Y-93589729D01*
X101599218Y-93611353D01*
X101586921Y-93631870D01*
X101572671Y-93651083D01*
X101556607Y-93668807D01*
X101538883Y-93684871D01*
X101519670Y-93699121D01*
X101499153Y-93711418D01*
X101477529Y-93721646D01*
X101455007Y-93729704D01*
X101431803Y-93735516D01*
X101408142Y-93739026D01*
X101384250Y-93740200D01*
X100896750Y-93740200D01*
X100872858Y-93739026D01*
X100849197Y-93735516D01*
X100825993Y-93729704D01*
X100803471Y-93721646D01*
X100781847Y-93711418D01*
X100761330Y-93699121D01*
X100742117Y-93684871D01*
X100724393Y-93668807D01*
X100708329Y-93651083D01*
X100694079Y-93631870D01*
X100681782Y-93611353D01*
X100671554Y-93589729D01*
X100663496Y-93567207D01*
X100657684Y-93544003D01*
X100654174Y-93520342D01*
X100653000Y-93496450D01*
X100653000Y-92583950D01*
X100654174Y-92560058D01*
X100657684Y-92536397D01*
X100663496Y-92513193D01*
X100671554Y-92490671D01*
X100681782Y-92469047D01*
X100694079Y-92448530D01*
X100708329Y-92429317D01*
X100724393Y-92411593D01*
X100742117Y-92395529D01*
X100761330Y-92381279D01*
X100781847Y-92368982D01*
X100803471Y-92358754D01*
X100825993Y-92350696D01*
X100849197Y-92344884D01*
X100872858Y-92341374D01*
X100896750Y-92340200D01*
X101384250Y-92340200D01*
X101408142Y-92341374D01*
X101408142Y-92341374D01*
G37*
D11*
X101140500Y-93040200D03*
D10*
G36*
X99533142Y-92341374D02*
X99556803Y-92344884D01*
X99580007Y-92350696D01*
X99602529Y-92358754D01*
X99624153Y-92368982D01*
X99644670Y-92381279D01*
X99663883Y-92395529D01*
X99681607Y-92411593D01*
X99697671Y-92429317D01*
X99711921Y-92448530D01*
X99724218Y-92469047D01*
X99734446Y-92490671D01*
X99742504Y-92513193D01*
X99748316Y-92536397D01*
X99751826Y-92560058D01*
X99753000Y-92583950D01*
X99753000Y-93496450D01*
X99751826Y-93520342D01*
X99748316Y-93544003D01*
X99742504Y-93567207D01*
X99734446Y-93589729D01*
X99724218Y-93611353D01*
X99711921Y-93631870D01*
X99697671Y-93651083D01*
X99681607Y-93668807D01*
X99663883Y-93684871D01*
X99644670Y-93699121D01*
X99624153Y-93711418D01*
X99602529Y-93721646D01*
X99580007Y-93729704D01*
X99556803Y-93735516D01*
X99533142Y-93739026D01*
X99509250Y-93740200D01*
X99021750Y-93740200D01*
X98997858Y-93739026D01*
X98974197Y-93735516D01*
X98950993Y-93729704D01*
X98928471Y-93721646D01*
X98906847Y-93711418D01*
X98886330Y-93699121D01*
X98867117Y-93684871D01*
X98849393Y-93668807D01*
X98833329Y-93651083D01*
X98819079Y-93631870D01*
X98806782Y-93611353D01*
X98796554Y-93589729D01*
X98788496Y-93567207D01*
X98782684Y-93544003D01*
X98779174Y-93520342D01*
X98778000Y-93496450D01*
X98778000Y-92583950D01*
X98779174Y-92560058D01*
X98782684Y-92536397D01*
X98788496Y-92513193D01*
X98796554Y-92490671D01*
X98806782Y-92469047D01*
X98819079Y-92448530D01*
X98833329Y-92429317D01*
X98849393Y-92411593D01*
X98867117Y-92395529D01*
X98886330Y-92381279D01*
X98906847Y-92368982D01*
X98928471Y-92358754D01*
X98950993Y-92350696D01*
X98974197Y-92344884D01*
X98997858Y-92341374D01*
X99021750Y-92340200D01*
X99509250Y-92340200D01*
X99533142Y-92341374D01*
X99533142Y-92341374D01*
G37*
D11*
X99265500Y-93040200D03*
G04 #@! TD*
D10*
G04 #@! TO.C,C7*
G36*
X97407642Y-108140174D02*
X97431303Y-108143684D01*
X97454507Y-108149496D01*
X97477029Y-108157554D01*
X97498653Y-108167782D01*
X97519170Y-108180079D01*
X97538383Y-108194329D01*
X97556107Y-108210393D01*
X97572171Y-108228117D01*
X97586421Y-108247330D01*
X97598718Y-108267847D01*
X97608946Y-108289471D01*
X97617004Y-108311993D01*
X97622816Y-108335197D01*
X97626326Y-108358858D01*
X97627500Y-108382750D01*
X97627500Y-109295250D01*
X97626326Y-109319142D01*
X97622816Y-109342803D01*
X97617004Y-109366007D01*
X97608946Y-109388529D01*
X97598718Y-109410153D01*
X97586421Y-109430670D01*
X97572171Y-109449883D01*
X97556107Y-109467607D01*
X97538383Y-109483671D01*
X97519170Y-109497921D01*
X97498653Y-109510218D01*
X97477029Y-109520446D01*
X97454507Y-109528504D01*
X97431303Y-109534316D01*
X97407642Y-109537826D01*
X97383750Y-109539000D01*
X96896250Y-109539000D01*
X96872358Y-109537826D01*
X96848697Y-109534316D01*
X96825493Y-109528504D01*
X96802971Y-109520446D01*
X96781347Y-109510218D01*
X96760830Y-109497921D01*
X96741617Y-109483671D01*
X96723893Y-109467607D01*
X96707829Y-109449883D01*
X96693579Y-109430670D01*
X96681282Y-109410153D01*
X96671054Y-109388529D01*
X96662996Y-109366007D01*
X96657184Y-109342803D01*
X96653674Y-109319142D01*
X96652500Y-109295250D01*
X96652500Y-108382750D01*
X96653674Y-108358858D01*
X96657184Y-108335197D01*
X96662996Y-108311993D01*
X96671054Y-108289471D01*
X96681282Y-108267847D01*
X96693579Y-108247330D01*
X96707829Y-108228117D01*
X96723893Y-108210393D01*
X96741617Y-108194329D01*
X96760830Y-108180079D01*
X96781347Y-108167782D01*
X96802971Y-108157554D01*
X96825493Y-108149496D01*
X96848697Y-108143684D01*
X96872358Y-108140174D01*
X96896250Y-108139000D01*
X97383750Y-108139000D01*
X97407642Y-108140174D01*
X97407642Y-108140174D01*
G37*
D11*
X97140000Y-108839000D03*
D10*
G36*
X95532642Y-108140174D02*
X95556303Y-108143684D01*
X95579507Y-108149496D01*
X95602029Y-108157554D01*
X95623653Y-108167782D01*
X95644170Y-108180079D01*
X95663383Y-108194329D01*
X95681107Y-108210393D01*
X95697171Y-108228117D01*
X95711421Y-108247330D01*
X95723718Y-108267847D01*
X95733946Y-108289471D01*
X95742004Y-108311993D01*
X95747816Y-108335197D01*
X95751326Y-108358858D01*
X95752500Y-108382750D01*
X95752500Y-109295250D01*
X95751326Y-109319142D01*
X95747816Y-109342803D01*
X95742004Y-109366007D01*
X95733946Y-109388529D01*
X95723718Y-109410153D01*
X95711421Y-109430670D01*
X95697171Y-109449883D01*
X95681107Y-109467607D01*
X95663383Y-109483671D01*
X95644170Y-109497921D01*
X95623653Y-109510218D01*
X95602029Y-109520446D01*
X95579507Y-109528504D01*
X95556303Y-109534316D01*
X95532642Y-109537826D01*
X95508750Y-109539000D01*
X95021250Y-109539000D01*
X94997358Y-109537826D01*
X94973697Y-109534316D01*
X94950493Y-109528504D01*
X94927971Y-109520446D01*
X94906347Y-109510218D01*
X94885830Y-109497921D01*
X94866617Y-109483671D01*
X94848893Y-109467607D01*
X94832829Y-109449883D01*
X94818579Y-109430670D01*
X94806282Y-109410153D01*
X94796054Y-109388529D01*
X94787996Y-109366007D01*
X94782184Y-109342803D01*
X94778674Y-109319142D01*
X94777500Y-109295250D01*
X94777500Y-108382750D01*
X94778674Y-108358858D01*
X94782184Y-108335197D01*
X94787996Y-108311993D01*
X94796054Y-108289471D01*
X94806282Y-108267847D01*
X94818579Y-108247330D01*
X94832829Y-108228117D01*
X94848893Y-108210393D01*
X94866617Y-108194329D01*
X94885830Y-108180079D01*
X94906347Y-108167782D01*
X94927971Y-108157554D01*
X94950493Y-108149496D01*
X94973697Y-108143684D01*
X94997358Y-108140174D01*
X95021250Y-108139000D01*
X95508750Y-108139000D01*
X95532642Y-108140174D01*
X95532642Y-108140174D01*
G37*
D11*
X95265000Y-108839000D03*
G04 #@! TD*
D10*
G04 #@! TO.C,C8*
G36*
X109409142Y-105422374D02*
X109432803Y-105425884D01*
X109456007Y-105431696D01*
X109478529Y-105439754D01*
X109500153Y-105449982D01*
X109520670Y-105462279D01*
X109539883Y-105476529D01*
X109557607Y-105492593D01*
X109573671Y-105510317D01*
X109587921Y-105529530D01*
X109600218Y-105550047D01*
X109610446Y-105571671D01*
X109618504Y-105594193D01*
X109624316Y-105617397D01*
X109627826Y-105641058D01*
X109629000Y-105664950D01*
X109629000Y-106577450D01*
X109627826Y-106601342D01*
X109624316Y-106625003D01*
X109618504Y-106648207D01*
X109610446Y-106670729D01*
X109600218Y-106692353D01*
X109587921Y-106712870D01*
X109573671Y-106732083D01*
X109557607Y-106749807D01*
X109539883Y-106765871D01*
X109520670Y-106780121D01*
X109500153Y-106792418D01*
X109478529Y-106802646D01*
X109456007Y-106810704D01*
X109432803Y-106816516D01*
X109409142Y-106820026D01*
X109385250Y-106821200D01*
X108897750Y-106821200D01*
X108873858Y-106820026D01*
X108850197Y-106816516D01*
X108826993Y-106810704D01*
X108804471Y-106802646D01*
X108782847Y-106792418D01*
X108762330Y-106780121D01*
X108743117Y-106765871D01*
X108725393Y-106749807D01*
X108709329Y-106732083D01*
X108695079Y-106712870D01*
X108682782Y-106692353D01*
X108672554Y-106670729D01*
X108664496Y-106648207D01*
X108658684Y-106625003D01*
X108655174Y-106601342D01*
X108654000Y-106577450D01*
X108654000Y-105664950D01*
X108655174Y-105641058D01*
X108658684Y-105617397D01*
X108664496Y-105594193D01*
X108672554Y-105571671D01*
X108682782Y-105550047D01*
X108695079Y-105529530D01*
X108709329Y-105510317D01*
X108725393Y-105492593D01*
X108743117Y-105476529D01*
X108762330Y-105462279D01*
X108782847Y-105449982D01*
X108804471Y-105439754D01*
X108826993Y-105431696D01*
X108850197Y-105425884D01*
X108873858Y-105422374D01*
X108897750Y-105421200D01*
X109385250Y-105421200D01*
X109409142Y-105422374D01*
X109409142Y-105422374D01*
G37*
D11*
X109141500Y-106121200D03*
D10*
G36*
X107534142Y-105422374D02*
X107557803Y-105425884D01*
X107581007Y-105431696D01*
X107603529Y-105439754D01*
X107625153Y-105449982D01*
X107645670Y-105462279D01*
X107664883Y-105476529D01*
X107682607Y-105492593D01*
X107698671Y-105510317D01*
X107712921Y-105529530D01*
X107725218Y-105550047D01*
X107735446Y-105571671D01*
X107743504Y-105594193D01*
X107749316Y-105617397D01*
X107752826Y-105641058D01*
X107754000Y-105664950D01*
X107754000Y-106577450D01*
X107752826Y-106601342D01*
X107749316Y-106625003D01*
X107743504Y-106648207D01*
X107735446Y-106670729D01*
X107725218Y-106692353D01*
X107712921Y-106712870D01*
X107698671Y-106732083D01*
X107682607Y-106749807D01*
X107664883Y-106765871D01*
X107645670Y-106780121D01*
X107625153Y-106792418D01*
X107603529Y-106802646D01*
X107581007Y-106810704D01*
X107557803Y-106816516D01*
X107534142Y-106820026D01*
X107510250Y-106821200D01*
X107022750Y-106821200D01*
X106998858Y-106820026D01*
X106975197Y-106816516D01*
X106951993Y-106810704D01*
X106929471Y-106802646D01*
X106907847Y-106792418D01*
X106887330Y-106780121D01*
X106868117Y-106765871D01*
X106850393Y-106749807D01*
X106834329Y-106732083D01*
X106820079Y-106712870D01*
X106807782Y-106692353D01*
X106797554Y-106670729D01*
X106789496Y-106648207D01*
X106783684Y-106625003D01*
X106780174Y-106601342D01*
X106779000Y-106577450D01*
X106779000Y-105664950D01*
X106780174Y-105641058D01*
X106783684Y-105617397D01*
X106789496Y-105594193D01*
X106797554Y-105571671D01*
X106807782Y-105550047D01*
X106820079Y-105529530D01*
X106834329Y-105510317D01*
X106850393Y-105492593D01*
X106868117Y-105476529D01*
X106887330Y-105462279D01*
X106907847Y-105449982D01*
X106929471Y-105439754D01*
X106951993Y-105431696D01*
X106975197Y-105425884D01*
X106998858Y-105422374D01*
X107022750Y-105421200D01*
X107510250Y-105421200D01*
X107534142Y-105422374D01*
X107534142Y-105422374D01*
G37*
D11*
X107266500Y-106121200D03*
G04 #@! TD*
D12*
G04 #@! TO.C,Q1*
X102759000Y-91302800D03*
X102759000Y-93202800D03*
X104759000Y-92252800D03*
G04 #@! TD*
D10*
G04 #@! TO.C,R1*
G36*
X96492142Y-91489374D02*
X96515803Y-91492884D01*
X96539007Y-91498696D01*
X96561529Y-91506754D01*
X96583153Y-91516982D01*
X96603670Y-91529279D01*
X96622883Y-91543529D01*
X96640607Y-91559593D01*
X96656671Y-91577317D01*
X96670921Y-91596530D01*
X96683218Y-91617047D01*
X96693446Y-91638671D01*
X96701504Y-91661193D01*
X96707316Y-91684397D01*
X96710826Y-91708058D01*
X96712000Y-91731950D01*
X96712000Y-92219450D01*
X96710826Y-92243342D01*
X96707316Y-92267003D01*
X96701504Y-92290207D01*
X96693446Y-92312729D01*
X96683218Y-92334353D01*
X96670921Y-92354870D01*
X96656671Y-92374083D01*
X96640607Y-92391807D01*
X96622883Y-92407871D01*
X96603670Y-92422121D01*
X96583153Y-92434418D01*
X96561529Y-92444646D01*
X96539007Y-92452704D01*
X96515803Y-92458516D01*
X96492142Y-92462026D01*
X96468250Y-92463200D01*
X95555750Y-92463200D01*
X95531858Y-92462026D01*
X95508197Y-92458516D01*
X95484993Y-92452704D01*
X95462471Y-92444646D01*
X95440847Y-92434418D01*
X95420330Y-92422121D01*
X95401117Y-92407871D01*
X95383393Y-92391807D01*
X95367329Y-92374083D01*
X95353079Y-92354870D01*
X95340782Y-92334353D01*
X95330554Y-92312729D01*
X95322496Y-92290207D01*
X95316684Y-92267003D01*
X95313174Y-92243342D01*
X95312000Y-92219450D01*
X95312000Y-91731950D01*
X95313174Y-91708058D01*
X95316684Y-91684397D01*
X95322496Y-91661193D01*
X95330554Y-91638671D01*
X95340782Y-91617047D01*
X95353079Y-91596530D01*
X95367329Y-91577317D01*
X95383393Y-91559593D01*
X95401117Y-91543529D01*
X95420330Y-91529279D01*
X95440847Y-91516982D01*
X95462471Y-91506754D01*
X95484993Y-91498696D01*
X95508197Y-91492884D01*
X95531858Y-91489374D01*
X95555750Y-91488200D01*
X96468250Y-91488200D01*
X96492142Y-91489374D01*
X96492142Y-91489374D01*
G37*
D11*
X96012000Y-91975700D03*
D10*
G36*
X96492142Y-93364374D02*
X96515803Y-93367884D01*
X96539007Y-93373696D01*
X96561529Y-93381754D01*
X96583153Y-93391982D01*
X96603670Y-93404279D01*
X96622883Y-93418529D01*
X96640607Y-93434593D01*
X96656671Y-93452317D01*
X96670921Y-93471530D01*
X96683218Y-93492047D01*
X96693446Y-93513671D01*
X96701504Y-93536193D01*
X96707316Y-93559397D01*
X96710826Y-93583058D01*
X96712000Y-93606950D01*
X96712000Y-94094450D01*
X96710826Y-94118342D01*
X96707316Y-94142003D01*
X96701504Y-94165207D01*
X96693446Y-94187729D01*
X96683218Y-94209353D01*
X96670921Y-94229870D01*
X96656671Y-94249083D01*
X96640607Y-94266807D01*
X96622883Y-94282871D01*
X96603670Y-94297121D01*
X96583153Y-94309418D01*
X96561529Y-94319646D01*
X96539007Y-94327704D01*
X96515803Y-94333516D01*
X96492142Y-94337026D01*
X96468250Y-94338200D01*
X95555750Y-94338200D01*
X95531858Y-94337026D01*
X95508197Y-94333516D01*
X95484993Y-94327704D01*
X95462471Y-94319646D01*
X95440847Y-94309418D01*
X95420330Y-94297121D01*
X95401117Y-94282871D01*
X95383393Y-94266807D01*
X95367329Y-94249083D01*
X95353079Y-94229870D01*
X95340782Y-94209353D01*
X95330554Y-94187729D01*
X95322496Y-94165207D01*
X95316684Y-94142003D01*
X95313174Y-94118342D01*
X95312000Y-94094450D01*
X95312000Y-93606950D01*
X95313174Y-93583058D01*
X95316684Y-93559397D01*
X95322496Y-93536193D01*
X95330554Y-93513671D01*
X95340782Y-93492047D01*
X95353079Y-93471530D01*
X95367329Y-93452317D01*
X95383393Y-93434593D01*
X95401117Y-93418529D01*
X95420330Y-93404279D01*
X95440847Y-93391982D01*
X95462471Y-93381754D01*
X95484993Y-93373696D01*
X95508197Y-93367884D01*
X95531858Y-93364374D01*
X95555750Y-93363200D01*
X96468250Y-93363200D01*
X96492142Y-93364374D01*
X96492142Y-93364374D01*
G37*
D11*
X96012000Y-93850700D03*
G04 #@! TD*
D10*
G04 #@! TO.C,R2*
G36*
X94434742Y-93364374D02*
X94458403Y-93367884D01*
X94481607Y-93373696D01*
X94504129Y-93381754D01*
X94525753Y-93391982D01*
X94546270Y-93404279D01*
X94565483Y-93418529D01*
X94583207Y-93434593D01*
X94599271Y-93452317D01*
X94613521Y-93471530D01*
X94625818Y-93492047D01*
X94636046Y-93513671D01*
X94644104Y-93536193D01*
X94649916Y-93559397D01*
X94653426Y-93583058D01*
X94654600Y-93606950D01*
X94654600Y-94094450D01*
X94653426Y-94118342D01*
X94649916Y-94142003D01*
X94644104Y-94165207D01*
X94636046Y-94187729D01*
X94625818Y-94209353D01*
X94613521Y-94229870D01*
X94599271Y-94249083D01*
X94583207Y-94266807D01*
X94565483Y-94282871D01*
X94546270Y-94297121D01*
X94525753Y-94309418D01*
X94504129Y-94319646D01*
X94481607Y-94327704D01*
X94458403Y-94333516D01*
X94434742Y-94337026D01*
X94410850Y-94338200D01*
X93498350Y-94338200D01*
X93474458Y-94337026D01*
X93450797Y-94333516D01*
X93427593Y-94327704D01*
X93405071Y-94319646D01*
X93383447Y-94309418D01*
X93362930Y-94297121D01*
X93343717Y-94282871D01*
X93325993Y-94266807D01*
X93309929Y-94249083D01*
X93295679Y-94229870D01*
X93283382Y-94209353D01*
X93273154Y-94187729D01*
X93265096Y-94165207D01*
X93259284Y-94142003D01*
X93255774Y-94118342D01*
X93254600Y-94094450D01*
X93254600Y-93606950D01*
X93255774Y-93583058D01*
X93259284Y-93559397D01*
X93265096Y-93536193D01*
X93273154Y-93513671D01*
X93283382Y-93492047D01*
X93295679Y-93471530D01*
X93309929Y-93452317D01*
X93325993Y-93434593D01*
X93343717Y-93418529D01*
X93362930Y-93404279D01*
X93383447Y-93391982D01*
X93405071Y-93381754D01*
X93427593Y-93373696D01*
X93450797Y-93367884D01*
X93474458Y-93364374D01*
X93498350Y-93363200D01*
X94410850Y-93363200D01*
X94434742Y-93364374D01*
X94434742Y-93364374D01*
G37*
D11*
X93954600Y-93850700D03*
D10*
G36*
X94434742Y-91489374D02*
X94458403Y-91492884D01*
X94481607Y-91498696D01*
X94504129Y-91506754D01*
X94525753Y-91516982D01*
X94546270Y-91529279D01*
X94565483Y-91543529D01*
X94583207Y-91559593D01*
X94599271Y-91577317D01*
X94613521Y-91596530D01*
X94625818Y-91617047D01*
X94636046Y-91638671D01*
X94644104Y-91661193D01*
X94649916Y-91684397D01*
X94653426Y-91708058D01*
X94654600Y-91731950D01*
X94654600Y-92219450D01*
X94653426Y-92243342D01*
X94649916Y-92267003D01*
X94644104Y-92290207D01*
X94636046Y-92312729D01*
X94625818Y-92334353D01*
X94613521Y-92354870D01*
X94599271Y-92374083D01*
X94583207Y-92391807D01*
X94565483Y-92407871D01*
X94546270Y-92422121D01*
X94525753Y-92434418D01*
X94504129Y-92444646D01*
X94481607Y-92452704D01*
X94458403Y-92458516D01*
X94434742Y-92462026D01*
X94410850Y-92463200D01*
X93498350Y-92463200D01*
X93474458Y-92462026D01*
X93450797Y-92458516D01*
X93427593Y-92452704D01*
X93405071Y-92444646D01*
X93383447Y-92434418D01*
X93362930Y-92422121D01*
X93343717Y-92407871D01*
X93325993Y-92391807D01*
X93309929Y-92374083D01*
X93295679Y-92354870D01*
X93283382Y-92334353D01*
X93273154Y-92312729D01*
X93265096Y-92290207D01*
X93259284Y-92267003D01*
X93255774Y-92243342D01*
X93254600Y-92219450D01*
X93254600Y-91731950D01*
X93255774Y-91708058D01*
X93259284Y-91684397D01*
X93265096Y-91661193D01*
X93273154Y-91638671D01*
X93283382Y-91617047D01*
X93295679Y-91596530D01*
X93309929Y-91577317D01*
X93325993Y-91559593D01*
X93343717Y-91543529D01*
X93362930Y-91529279D01*
X93383447Y-91516982D01*
X93405071Y-91506754D01*
X93427593Y-91498696D01*
X93450797Y-91492884D01*
X93474458Y-91489374D01*
X93498350Y-91488200D01*
X94410850Y-91488200D01*
X94434742Y-91489374D01*
X94434742Y-91489374D01*
G37*
D11*
X93954600Y-91975700D03*
G04 #@! TD*
D10*
G04 #@! TO.C,R3*
G36*
X110348942Y-97294374D02*
X110372603Y-97297884D01*
X110395807Y-97303696D01*
X110418329Y-97311754D01*
X110439953Y-97321982D01*
X110460470Y-97334279D01*
X110479683Y-97348529D01*
X110497407Y-97364593D01*
X110513471Y-97382317D01*
X110527721Y-97401530D01*
X110540018Y-97422047D01*
X110550246Y-97443671D01*
X110558304Y-97466193D01*
X110564116Y-97489397D01*
X110567626Y-97513058D01*
X110568800Y-97536950D01*
X110568800Y-98449450D01*
X110567626Y-98473342D01*
X110564116Y-98497003D01*
X110558304Y-98520207D01*
X110550246Y-98542729D01*
X110540018Y-98564353D01*
X110527721Y-98584870D01*
X110513471Y-98604083D01*
X110497407Y-98621807D01*
X110479683Y-98637871D01*
X110460470Y-98652121D01*
X110439953Y-98664418D01*
X110418329Y-98674646D01*
X110395807Y-98682704D01*
X110372603Y-98688516D01*
X110348942Y-98692026D01*
X110325050Y-98693200D01*
X109837550Y-98693200D01*
X109813658Y-98692026D01*
X109789997Y-98688516D01*
X109766793Y-98682704D01*
X109744271Y-98674646D01*
X109722647Y-98664418D01*
X109702130Y-98652121D01*
X109682917Y-98637871D01*
X109665193Y-98621807D01*
X109649129Y-98604083D01*
X109634879Y-98584870D01*
X109622582Y-98564353D01*
X109612354Y-98542729D01*
X109604296Y-98520207D01*
X109598484Y-98497003D01*
X109594974Y-98473342D01*
X109593800Y-98449450D01*
X109593800Y-97536950D01*
X109594974Y-97513058D01*
X109598484Y-97489397D01*
X109604296Y-97466193D01*
X109612354Y-97443671D01*
X109622582Y-97422047D01*
X109634879Y-97401530D01*
X109649129Y-97382317D01*
X109665193Y-97364593D01*
X109682917Y-97348529D01*
X109702130Y-97334279D01*
X109722647Y-97321982D01*
X109744271Y-97311754D01*
X109766793Y-97303696D01*
X109789997Y-97297884D01*
X109813658Y-97294374D01*
X109837550Y-97293200D01*
X110325050Y-97293200D01*
X110348942Y-97294374D01*
X110348942Y-97294374D01*
G37*
D11*
X110081300Y-97993200D03*
D10*
G36*
X108473942Y-97294374D02*
X108497603Y-97297884D01*
X108520807Y-97303696D01*
X108543329Y-97311754D01*
X108564953Y-97321982D01*
X108585470Y-97334279D01*
X108604683Y-97348529D01*
X108622407Y-97364593D01*
X108638471Y-97382317D01*
X108652721Y-97401530D01*
X108665018Y-97422047D01*
X108675246Y-97443671D01*
X108683304Y-97466193D01*
X108689116Y-97489397D01*
X108692626Y-97513058D01*
X108693800Y-97536950D01*
X108693800Y-98449450D01*
X108692626Y-98473342D01*
X108689116Y-98497003D01*
X108683304Y-98520207D01*
X108675246Y-98542729D01*
X108665018Y-98564353D01*
X108652721Y-98584870D01*
X108638471Y-98604083D01*
X108622407Y-98621807D01*
X108604683Y-98637871D01*
X108585470Y-98652121D01*
X108564953Y-98664418D01*
X108543329Y-98674646D01*
X108520807Y-98682704D01*
X108497603Y-98688516D01*
X108473942Y-98692026D01*
X108450050Y-98693200D01*
X107962550Y-98693200D01*
X107938658Y-98692026D01*
X107914997Y-98688516D01*
X107891793Y-98682704D01*
X107869271Y-98674646D01*
X107847647Y-98664418D01*
X107827130Y-98652121D01*
X107807917Y-98637871D01*
X107790193Y-98621807D01*
X107774129Y-98604083D01*
X107759879Y-98584870D01*
X107747582Y-98564353D01*
X107737354Y-98542729D01*
X107729296Y-98520207D01*
X107723484Y-98497003D01*
X107719974Y-98473342D01*
X107718800Y-98449450D01*
X107718800Y-97536950D01*
X107719974Y-97513058D01*
X107723484Y-97489397D01*
X107729296Y-97466193D01*
X107737354Y-97443671D01*
X107747582Y-97422047D01*
X107759879Y-97401530D01*
X107774129Y-97382317D01*
X107790193Y-97364593D01*
X107807917Y-97348529D01*
X107827130Y-97334279D01*
X107847647Y-97321982D01*
X107869271Y-97311754D01*
X107891793Y-97303696D01*
X107914997Y-97297884D01*
X107938658Y-97294374D01*
X107962550Y-97293200D01*
X108450050Y-97293200D01*
X108473942Y-97294374D01*
X108473942Y-97294374D01*
G37*
D11*
X108206300Y-97993200D03*
G04 #@! TD*
D10*
G04 #@! TO.C,R4*
G36*
X108658742Y-93648374D02*
X108682403Y-93651884D01*
X108705607Y-93657696D01*
X108728129Y-93665754D01*
X108749753Y-93675982D01*
X108770270Y-93688279D01*
X108789483Y-93702529D01*
X108807207Y-93718593D01*
X108823271Y-93736317D01*
X108837521Y-93755530D01*
X108849818Y-93776047D01*
X108860046Y-93797671D01*
X108868104Y-93820193D01*
X108873916Y-93843397D01*
X108877426Y-93867058D01*
X108878600Y-93890950D01*
X108878600Y-94378450D01*
X108877426Y-94402342D01*
X108873916Y-94426003D01*
X108868104Y-94449207D01*
X108860046Y-94471729D01*
X108849818Y-94493353D01*
X108837521Y-94513870D01*
X108823271Y-94533083D01*
X108807207Y-94550807D01*
X108789483Y-94566871D01*
X108770270Y-94581121D01*
X108749753Y-94593418D01*
X108728129Y-94603646D01*
X108705607Y-94611704D01*
X108682403Y-94617516D01*
X108658742Y-94621026D01*
X108634850Y-94622200D01*
X107722350Y-94622200D01*
X107698458Y-94621026D01*
X107674797Y-94617516D01*
X107651593Y-94611704D01*
X107629071Y-94603646D01*
X107607447Y-94593418D01*
X107586930Y-94581121D01*
X107567717Y-94566871D01*
X107549993Y-94550807D01*
X107533929Y-94533083D01*
X107519679Y-94513870D01*
X107507382Y-94493353D01*
X107497154Y-94471729D01*
X107489096Y-94449207D01*
X107483284Y-94426003D01*
X107479774Y-94402342D01*
X107478600Y-94378450D01*
X107478600Y-93890950D01*
X107479774Y-93867058D01*
X107483284Y-93843397D01*
X107489096Y-93820193D01*
X107497154Y-93797671D01*
X107507382Y-93776047D01*
X107519679Y-93755530D01*
X107533929Y-93736317D01*
X107549993Y-93718593D01*
X107567717Y-93702529D01*
X107586930Y-93688279D01*
X107607447Y-93675982D01*
X107629071Y-93665754D01*
X107651593Y-93657696D01*
X107674797Y-93651884D01*
X107698458Y-93648374D01*
X107722350Y-93647200D01*
X108634850Y-93647200D01*
X108658742Y-93648374D01*
X108658742Y-93648374D01*
G37*
D11*
X108178600Y-94134700D03*
D10*
G36*
X108658742Y-95523374D02*
X108682403Y-95526884D01*
X108705607Y-95532696D01*
X108728129Y-95540754D01*
X108749753Y-95550982D01*
X108770270Y-95563279D01*
X108789483Y-95577529D01*
X108807207Y-95593593D01*
X108823271Y-95611317D01*
X108837521Y-95630530D01*
X108849818Y-95651047D01*
X108860046Y-95672671D01*
X108868104Y-95695193D01*
X108873916Y-95718397D01*
X108877426Y-95742058D01*
X108878600Y-95765950D01*
X108878600Y-96253450D01*
X108877426Y-96277342D01*
X108873916Y-96301003D01*
X108868104Y-96324207D01*
X108860046Y-96346729D01*
X108849818Y-96368353D01*
X108837521Y-96388870D01*
X108823271Y-96408083D01*
X108807207Y-96425807D01*
X108789483Y-96441871D01*
X108770270Y-96456121D01*
X108749753Y-96468418D01*
X108728129Y-96478646D01*
X108705607Y-96486704D01*
X108682403Y-96492516D01*
X108658742Y-96496026D01*
X108634850Y-96497200D01*
X107722350Y-96497200D01*
X107698458Y-96496026D01*
X107674797Y-96492516D01*
X107651593Y-96486704D01*
X107629071Y-96478646D01*
X107607447Y-96468418D01*
X107586930Y-96456121D01*
X107567717Y-96441871D01*
X107549993Y-96425807D01*
X107533929Y-96408083D01*
X107519679Y-96388870D01*
X107507382Y-96368353D01*
X107497154Y-96346729D01*
X107489096Y-96324207D01*
X107483284Y-96301003D01*
X107479774Y-96277342D01*
X107478600Y-96253450D01*
X107478600Y-95765950D01*
X107479774Y-95742058D01*
X107483284Y-95718397D01*
X107489096Y-95695193D01*
X107497154Y-95672671D01*
X107507382Y-95651047D01*
X107519679Y-95630530D01*
X107533929Y-95611317D01*
X107549993Y-95593593D01*
X107567717Y-95577529D01*
X107586930Y-95563279D01*
X107607447Y-95550982D01*
X107629071Y-95540754D01*
X107651593Y-95532696D01*
X107674797Y-95526884D01*
X107698458Y-95523374D01*
X107722350Y-95522200D01*
X108634850Y-95522200D01*
X108658742Y-95523374D01*
X108658742Y-95523374D01*
G37*
D11*
X108178600Y-96009700D03*
G04 #@! TD*
D10*
G04 #@! TO.C,R5*
G36*
X90686799Y-99956192D02*
X90710460Y-99959702D01*
X90733664Y-99965514D01*
X90756186Y-99973572D01*
X90777810Y-99983800D01*
X90798327Y-99996097D01*
X90817540Y-100010347D01*
X90835264Y-100026411D01*
X90851328Y-100044135D01*
X90865578Y-100063348D01*
X90877875Y-100083865D01*
X90888103Y-100105489D01*
X90896161Y-100128011D01*
X90901973Y-100151215D01*
X90905483Y-100174876D01*
X90906657Y-100198768D01*
X90906657Y-100686268D01*
X90905483Y-100710160D01*
X90901973Y-100733821D01*
X90896161Y-100757025D01*
X90888103Y-100779547D01*
X90877875Y-100801171D01*
X90865578Y-100821688D01*
X90851328Y-100840901D01*
X90835264Y-100858625D01*
X90817540Y-100874689D01*
X90798327Y-100888939D01*
X90777810Y-100901236D01*
X90756186Y-100911464D01*
X90733664Y-100919522D01*
X90710460Y-100925334D01*
X90686799Y-100928844D01*
X90662907Y-100930018D01*
X89750407Y-100930018D01*
X89726515Y-100928844D01*
X89702854Y-100925334D01*
X89679650Y-100919522D01*
X89657128Y-100911464D01*
X89635504Y-100901236D01*
X89614987Y-100888939D01*
X89595774Y-100874689D01*
X89578050Y-100858625D01*
X89561986Y-100840901D01*
X89547736Y-100821688D01*
X89535439Y-100801171D01*
X89525211Y-100779547D01*
X89517153Y-100757025D01*
X89511341Y-100733821D01*
X89507831Y-100710160D01*
X89506657Y-100686268D01*
X89506657Y-100198768D01*
X89507831Y-100174876D01*
X89511341Y-100151215D01*
X89517153Y-100128011D01*
X89525211Y-100105489D01*
X89535439Y-100083865D01*
X89547736Y-100063348D01*
X89561986Y-100044135D01*
X89578050Y-100026411D01*
X89595774Y-100010347D01*
X89614987Y-99996097D01*
X89635504Y-99983800D01*
X89657128Y-99973572D01*
X89679650Y-99965514D01*
X89702854Y-99959702D01*
X89726515Y-99956192D01*
X89750407Y-99955018D01*
X90662907Y-99955018D01*
X90686799Y-99956192D01*
X90686799Y-99956192D01*
G37*
D11*
X90206657Y-100442518D03*
D10*
G36*
X90686799Y-98081192D02*
X90710460Y-98084702D01*
X90733664Y-98090514D01*
X90756186Y-98098572D01*
X90777810Y-98108800D01*
X90798327Y-98121097D01*
X90817540Y-98135347D01*
X90835264Y-98151411D01*
X90851328Y-98169135D01*
X90865578Y-98188348D01*
X90877875Y-98208865D01*
X90888103Y-98230489D01*
X90896161Y-98253011D01*
X90901973Y-98276215D01*
X90905483Y-98299876D01*
X90906657Y-98323768D01*
X90906657Y-98811268D01*
X90905483Y-98835160D01*
X90901973Y-98858821D01*
X90896161Y-98882025D01*
X90888103Y-98904547D01*
X90877875Y-98926171D01*
X90865578Y-98946688D01*
X90851328Y-98965901D01*
X90835264Y-98983625D01*
X90817540Y-98999689D01*
X90798327Y-99013939D01*
X90777810Y-99026236D01*
X90756186Y-99036464D01*
X90733664Y-99044522D01*
X90710460Y-99050334D01*
X90686799Y-99053844D01*
X90662907Y-99055018D01*
X89750407Y-99055018D01*
X89726515Y-99053844D01*
X89702854Y-99050334D01*
X89679650Y-99044522D01*
X89657128Y-99036464D01*
X89635504Y-99026236D01*
X89614987Y-99013939D01*
X89595774Y-98999689D01*
X89578050Y-98983625D01*
X89561986Y-98965901D01*
X89547736Y-98946688D01*
X89535439Y-98926171D01*
X89525211Y-98904547D01*
X89517153Y-98882025D01*
X89511341Y-98858821D01*
X89507831Y-98835160D01*
X89506657Y-98811268D01*
X89506657Y-98323768D01*
X89507831Y-98299876D01*
X89511341Y-98276215D01*
X89517153Y-98253011D01*
X89525211Y-98230489D01*
X89535439Y-98208865D01*
X89547736Y-98188348D01*
X89561986Y-98169135D01*
X89578050Y-98151411D01*
X89595774Y-98135347D01*
X89614987Y-98121097D01*
X89635504Y-98108800D01*
X89657128Y-98098572D01*
X89679650Y-98090514D01*
X89702854Y-98084702D01*
X89726515Y-98081192D01*
X89750407Y-98080018D01*
X90662907Y-98080018D01*
X90686799Y-98081192D01*
X90686799Y-98081192D01*
G37*
D11*
X90206657Y-98567518D03*
G04 #@! TD*
D10*
G04 #@! TO.C,R6*
G36*
X93277599Y-99981592D02*
X93301260Y-99985102D01*
X93324464Y-99990914D01*
X93346986Y-99998972D01*
X93368610Y-100009200D01*
X93389127Y-100021497D01*
X93408340Y-100035747D01*
X93426064Y-100051811D01*
X93442128Y-100069535D01*
X93456378Y-100088748D01*
X93468675Y-100109265D01*
X93478903Y-100130889D01*
X93486961Y-100153411D01*
X93492773Y-100176615D01*
X93496283Y-100200276D01*
X93497457Y-100224168D01*
X93497457Y-100711668D01*
X93496283Y-100735560D01*
X93492773Y-100759221D01*
X93486961Y-100782425D01*
X93478903Y-100804947D01*
X93468675Y-100826571D01*
X93456378Y-100847088D01*
X93442128Y-100866301D01*
X93426064Y-100884025D01*
X93408340Y-100900089D01*
X93389127Y-100914339D01*
X93368610Y-100926636D01*
X93346986Y-100936864D01*
X93324464Y-100944922D01*
X93301260Y-100950734D01*
X93277599Y-100954244D01*
X93253707Y-100955418D01*
X92341207Y-100955418D01*
X92317315Y-100954244D01*
X92293654Y-100950734D01*
X92270450Y-100944922D01*
X92247928Y-100936864D01*
X92226304Y-100926636D01*
X92205787Y-100914339D01*
X92186574Y-100900089D01*
X92168850Y-100884025D01*
X92152786Y-100866301D01*
X92138536Y-100847088D01*
X92126239Y-100826571D01*
X92116011Y-100804947D01*
X92107953Y-100782425D01*
X92102141Y-100759221D01*
X92098631Y-100735560D01*
X92097457Y-100711668D01*
X92097457Y-100224168D01*
X92098631Y-100200276D01*
X92102141Y-100176615D01*
X92107953Y-100153411D01*
X92116011Y-100130889D01*
X92126239Y-100109265D01*
X92138536Y-100088748D01*
X92152786Y-100069535D01*
X92168850Y-100051811D01*
X92186574Y-100035747D01*
X92205787Y-100021497D01*
X92226304Y-100009200D01*
X92247928Y-99998972D01*
X92270450Y-99990914D01*
X92293654Y-99985102D01*
X92317315Y-99981592D01*
X92341207Y-99980418D01*
X93253707Y-99980418D01*
X93277599Y-99981592D01*
X93277599Y-99981592D01*
G37*
D11*
X92797457Y-100467918D03*
D10*
G36*
X93277599Y-98106592D02*
X93301260Y-98110102D01*
X93324464Y-98115914D01*
X93346986Y-98123972D01*
X93368610Y-98134200D01*
X93389127Y-98146497D01*
X93408340Y-98160747D01*
X93426064Y-98176811D01*
X93442128Y-98194535D01*
X93456378Y-98213748D01*
X93468675Y-98234265D01*
X93478903Y-98255889D01*
X93486961Y-98278411D01*
X93492773Y-98301615D01*
X93496283Y-98325276D01*
X93497457Y-98349168D01*
X93497457Y-98836668D01*
X93496283Y-98860560D01*
X93492773Y-98884221D01*
X93486961Y-98907425D01*
X93478903Y-98929947D01*
X93468675Y-98951571D01*
X93456378Y-98972088D01*
X93442128Y-98991301D01*
X93426064Y-99009025D01*
X93408340Y-99025089D01*
X93389127Y-99039339D01*
X93368610Y-99051636D01*
X93346986Y-99061864D01*
X93324464Y-99069922D01*
X93301260Y-99075734D01*
X93277599Y-99079244D01*
X93253707Y-99080418D01*
X92341207Y-99080418D01*
X92317315Y-99079244D01*
X92293654Y-99075734D01*
X92270450Y-99069922D01*
X92247928Y-99061864D01*
X92226304Y-99051636D01*
X92205787Y-99039339D01*
X92186574Y-99025089D01*
X92168850Y-99009025D01*
X92152786Y-98991301D01*
X92138536Y-98972088D01*
X92126239Y-98951571D01*
X92116011Y-98929947D01*
X92107953Y-98907425D01*
X92102141Y-98884221D01*
X92098631Y-98860560D01*
X92097457Y-98836668D01*
X92097457Y-98349168D01*
X92098631Y-98325276D01*
X92102141Y-98301615D01*
X92107953Y-98278411D01*
X92116011Y-98255889D01*
X92126239Y-98234265D01*
X92138536Y-98213748D01*
X92152786Y-98194535D01*
X92168850Y-98176811D01*
X92186574Y-98160747D01*
X92205787Y-98146497D01*
X92226304Y-98134200D01*
X92247928Y-98123972D01*
X92270450Y-98115914D01*
X92293654Y-98110102D01*
X92317315Y-98106592D01*
X92341207Y-98105418D01*
X93253707Y-98105418D01*
X93277599Y-98106592D01*
X93277599Y-98106592D01*
G37*
D11*
X92797457Y-98592918D03*
G04 #@! TD*
D10*
G04 #@! TO.C,R7*
G36*
X93381742Y-105371574D02*
X93405403Y-105375084D01*
X93428607Y-105380896D01*
X93451129Y-105388954D01*
X93472753Y-105399182D01*
X93493270Y-105411479D01*
X93512483Y-105425729D01*
X93530207Y-105441793D01*
X93546271Y-105459517D01*
X93560521Y-105478730D01*
X93572818Y-105499247D01*
X93583046Y-105520871D01*
X93591104Y-105543393D01*
X93596916Y-105566597D01*
X93600426Y-105590258D01*
X93601600Y-105614150D01*
X93601600Y-106526650D01*
X93600426Y-106550542D01*
X93596916Y-106574203D01*
X93591104Y-106597407D01*
X93583046Y-106619929D01*
X93572818Y-106641553D01*
X93560521Y-106662070D01*
X93546271Y-106681283D01*
X93530207Y-106699007D01*
X93512483Y-106715071D01*
X93493270Y-106729321D01*
X93472753Y-106741618D01*
X93451129Y-106751846D01*
X93428607Y-106759904D01*
X93405403Y-106765716D01*
X93381742Y-106769226D01*
X93357850Y-106770400D01*
X92870350Y-106770400D01*
X92846458Y-106769226D01*
X92822797Y-106765716D01*
X92799593Y-106759904D01*
X92777071Y-106751846D01*
X92755447Y-106741618D01*
X92734930Y-106729321D01*
X92715717Y-106715071D01*
X92697993Y-106699007D01*
X92681929Y-106681283D01*
X92667679Y-106662070D01*
X92655382Y-106641553D01*
X92645154Y-106619929D01*
X92637096Y-106597407D01*
X92631284Y-106574203D01*
X92627774Y-106550542D01*
X92626600Y-106526650D01*
X92626600Y-105614150D01*
X92627774Y-105590258D01*
X92631284Y-105566597D01*
X92637096Y-105543393D01*
X92645154Y-105520871D01*
X92655382Y-105499247D01*
X92667679Y-105478730D01*
X92681929Y-105459517D01*
X92697993Y-105441793D01*
X92715717Y-105425729D01*
X92734930Y-105411479D01*
X92755447Y-105399182D01*
X92777071Y-105388954D01*
X92799593Y-105380896D01*
X92822797Y-105375084D01*
X92846458Y-105371574D01*
X92870350Y-105370400D01*
X93357850Y-105370400D01*
X93381742Y-105371574D01*
X93381742Y-105371574D01*
G37*
D11*
X93114100Y-106070400D03*
D10*
G36*
X91506742Y-105371574D02*
X91530403Y-105375084D01*
X91553607Y-105380896D01*
X91576129Y-105388954D01*
X91597753Y-105399182D01*
X91618270Y-105411479D01*
X91637483Y-105425729D01*
X91655207Y-105441793D01*
X91671271Y-105459517D01*
X91685521Y-105478730D01*
X91697818Y-105499247D01*
X91708046Y-105520871D01*
X91716104Y-105543393D01*
X91721916Y-105566597D01*
X91725426Y-105590258D01*
X91726600Y-105614150D01*
X91726600Y-106526650D01*
X91725426Y-106550542D01*
X91721916Y-106574203D01*
X91716104Y-106597407D01*
X91708046Y-106619929D01*
X91697818Y-106641553D01*
X91685521Y-106662070D01*
X91671271Y-106681283D01*
X91655207Y-106699007D01*
X91637483Y-106715071D01*
X91618270Y-106729321D01*
X91597753Y-106741618D01*
X91576129Y-106751846D01*
X91553607Y-106759904D01*
X91530403Y-106765716D01*
X91506742Y-106769226D01*
X91482850Y-106770400D01*
X90995350Y-106770400D01*
X90971458Y-106769226D01*
X90947797Y-106765716D01*
X90924593Y-106759904D01*
X90902071Y-106751846D01*
X90880447Y-106741618D01*
X90859930Y-106729321D01*
X90840717Y-106715071D01*
X90822993Y-106699007D01*
X90806929Y-106681283D01*
X90792679Y-106662070D01*
X90780382Y-106641553D01*
X90770154Y-106619929D01*
X90762096Y-106597407D01*
X90756284Y-106574203D01*
X90752774Y-106550542D01*
X90751600Y-106526650D01*
X90751600Y-105614150D01*
X90752774Y-105590258D01*
X90756284Y-105566597D01*
X90762096Y-105543393D01*
X90770154Y-105520871D01*
X90780382Y-105499247D01*
X90792679Y-105478730D01*
X90806929Y-105459517D01*
X90822993Y-105441793D01*
X90840717Y-105425729D01*
X90859930Y-105411479D01*
X90880447Y-105399182D01*
X90902071Y-105388954D01*
X90924593Y-105380896D01*
X90947797Y-105375084D01*
X90971458Y-105371574D01*
X90995350Y-105370400D01*
X91482850Y-105370400D01*
X91506742Y-105371574D01*
X91506742Y-105371574D01*
G37*
D11*
X91239100Y-106070400D03*
G04 #@! TD*
D10*
G04 #@! TO.C,R8*
G36*
X105699642Y-106399174D02*
X105723303Y-106402684D01*
X105746507Y-106408496D01*
X105769029Y-106416554D01*
X105790653Y-106426782D01*
X105811170Y-106439079D01*
X105830383Y-106453329D01*
X105848107Y-106469393D01*
X105864171Y-106487117D01*
X105878421Y-106506330D01*
X105890718Y-106526847D01*
X105900946Y-106548471D01*
X105909004Y-106570993D01*
X105914816Y-106594197D01*
X105918326Y-106617858D01*
X105919500Y-106641750D01*
X105919500Y-107129250D01*
X105918326Y-107153142D01*
X105914816Y-107176803D01*
X105909004Y-107200007D01*
X105900946Y-107222529D01*
X105890718Y-107244153D01*
X105878421Y-107264670D01*
X105864171Y-107283883D01*
X105848107Y-107301607D01*
X105830383Y-107317671D01*
X105811170Y-107331921D01*
X105790653Y-107344218D01*
X105769029Y-107354446D01*
X105746507Y-107362504D01*
X105723303Y-107368316D01*
X105699642Y-107371826D01*
X105675750Y-107373000D01*
X104763250Y-107373000D01*
X104739358Y-107371826D01*
X104715697Y-107368316D01*
X104692493Y-107362504D01*
X104669971Y-107354446D01*
X104648347Y-107344218D01*
X104627830Y-107331921D01*
X104608617Y-107317671D01*
X104590893Y-107301607D01*
X104574829Y-107283883D01*
X104560579Y-107264670D01*
X104548282Y-107244153D01*
X104538054Y-107222529D01*
X104529996Y-107200007D01*
X104524184Y-107176803D01*
X104520674Y-107153142D01*
X104519500Y-107129250D01*
X104519500Y-106641750D01*
X104520674Y-106617858D01*
X104524184Y-106594197D01*
X104529996Y-106570993D01*
X104538054Y-106548471D01*
X104548282Y-106526847D01*
X104560579Y-106506330D01*
X104574829Y-106487117D01*
X104590893Y-106469393D01*
X104608617Y-106453329D01*
X104627830Y-106439079D01*
X104648347Y-106426782D01*
X104669971Y-106416554D01*
X104692493Y-106408496D01*
X104715697Y-106402684D01*
X104739358Y-106399174D01*
X104763250Y-106398000D01*
X105675750Y-106398000D01*
X105699642Y-106399174D01*
X105699642Y-106399174D01*
G37*
D11*
X105219500Y-106885500D03*
D10*
G36*
X105699642Y-108274174D02*
X105723303Y-108277684D01*
X105746507Y-108283496D01*
X105769029Y-108291554D01*
X105790653Y-108301782D01*
X105811170Y-108314079D01*
X105830383Y-108328329D01*
X105848107Y-108344393D01*
X105864171Y-108362117D01*
X105878421Y-108381330D01*
X105890718Y-108401847D01*
X105900946Y-108423471D01*
X105909004Y-108445993D01*
X105914816Y-108469197D01*
X105918326Y-108492858D01*
X105919500Y-108516750D01*
X105919500Y-109004250D01*
X105918326Y-109028142D01*
X105914816Y-109051803D01*
X105909004Y-109075007D01*
X105900946Y-109097529D01*
X105890718Y-109119153D01*
X105878421Y-109139670D01*
X105864171Y-109158883D01*
X105848107Y-109176607D01*
X105830383Y-109192671D01*
X105811170Y-109206921D01*
X105790653Y-109219218D01*
X105769029Y-109229446D01*
X105746507Y-109237504D01*
X105723303Y-109243316D01*
X105699642Y-109246826D01*
X105675750Y-109248000D01*
X104763250Y-109248000D01*
X104739358Y-109246826D01*
X104715697Y-109243316D01*
X104692493Y-109237504D01*
X104669971Y-109229446D01*
X104648347Y-109219218D01*
X104627830Y-109206921D01*
X104608617Y-109192671D01*
X104590893Y-109176607D01*
X104574829Y-109158883D01*
X104560579Y-109139670D01*
X104548282Y-109119153D01*
X104538054Y-109097529D01*
X104529996Y-109075007D01*
X104524184Y-109051803D01*
X104520674Y-109028142D01*
X104519500Y-109004250D01*
X104519500Y-108516750D01*
X104520674Y-108492858D01*
X104524184Y-108469197D01*
X104529996Y-108445993D01*
X104538054Y-108423471D01*
X104548282Y-108401847D01*
X104560579Y-108381330D01*
X104574829Y-108362117D01*
X104590893Y-108344393D01*
X104608617Y-108328329D01*
X104627830Y-108314079D01*
X104648347Y-108301782D01*
X104669971Y-108291554D01*
X104692493Y-108283496D01*
X104715697Y-108277684D01*
X104739358Y-108274174D01*
X104763250Y-108273000D01*
X105675750Y-108273000D01*
X105699642Y-108274174D01*
X105699642Y-108274174D01*
G37*
D11*
X105219500Y-108760500D03*
G04 #@! TD*
D10*
G04 #@! TO.C,R9*
G36*
X105699642Y-104908674D02*
X105723303Y-104912184D01*
X105746507Y-104917996D01*
X105769029Y-104926054D01*
X105790653Y-104936282D01*
X105811170Y-104948579D01*
X105830383Y-104962829D01*
X105848107Y-104978893D01*
X105864171Y-104996617D01*
X105878421Y-105015830D01*
X105890718Y-105036347D01*
X105900946Y-105057971D01*
X105909004Y-105080493D01*
X105914816Y-105103697D01*
X105918326Y-105127358D01*
X105919500Y-105151250D01*
X105919500Y-105638750D01*
X105918326Y-105662642D01*
X105914816Y-105686303D01*
X105909004Y-105709507D01*
X105900946Y-105732029D01*
X105890718Y-105753653D01*
X105878421Y-105774170D01*
X105864171Y-105793383D01*
X105848107Y-105811107D01*
X105830383Y-105827171D01*
X105811170Y-105841421D01*
X105790653Y-105853718D01*
X105769029Y-105863946D01*
X105746507Y-105872004D01*
X105723303Y-105877816D01*
X105699642Y-105881326D01*
X105675750Y-105882500D01*
X104763250Y-105882500D01*
X104739358Y-105881326D01*
X104715697Y-105877816D01*
X104692493Y-105872004D01*
X104669971Y-105863946D01*
X104648347Y-105853718D01*
X104627830Y-105841421D01*
X104608617Y-105827171D01*
X104590893Y-105811107D01*
X104574829Y-105793383D01*
X104560579Y-105774170D01*
X104548282Y-105753653D01*
X104538054Y-105732029D01*
X104529996Y-105709507D01*
X104524184Y-105686303D01*
X104520674Y-105662642D01*
X104519500Y-105638750D01*
X104519500Y-105151250D01*
X104520674Y-105127358D01*
X104524184Y-105103697D01*
X104529996Y-105080493D01*
X104538054Y-105057971D01*
X104548282Y-105036347D01*
X104560579Y-105015830D01*
X104574829Y-104996617D01*
X104590893Y-104978893D01*
X104608617Y-104962829D01*
X104627830Y-104948579D01*
X104648347Y-104936282D01*
X104669971Y-104926054D01*
X104692493Y-104917996D01*
X104715697Y-104912184D01*
X104739358Y-104908674D01*
X104763250Y-104907500D01*
X105675750Y-104907500D01*
X105699642Y-104908674D01*
X105699642Y-104908674D01*
G37*
D11*
X105219500Y-105395000D03*
D10*
G36*
X105699642Y-103033674D02*
X105723303Y-103037184D01*
X105746507Y-103042996D01*
X105769029Y-103051054D01*
X105790653Y-103061282D01*
X105811170Y-103073579D01*
X105830383Y-103087829D01*
X105848107Y-103103893D01*
X105864171Y-103121617D01*
X105878421Y-103140830D01*
X105890718Y-103161347D01*
X105900946Y-103182971D01*
X105909004Y-103205493D01*
X105914816Y-103228697D01*
X105918326Y-103252358D01*
X105919500Y-103276250D01*
X105919500Y-103763750D01*
X105918326Y-103787642D01*
X105914816Y-103811303D01*
X105909004Y-103834507D01*
X105900946Y-103857029D01*
X105890718Y-103878653D01*
X105878421Y-103899170D01*
X105864171Y-103918383D01*
X105848107Y-103936107D01*
X105830383Y-103952171D01*
X105811170Y-103966421D01*
X105790653Y-103978718D01*
X105769029Y-103988946D01*
X105746507Y-103997004D01*
X105723303Y-104002816D01*
X105699642Y-104006326D01*
X105675750Y-104007500D01*
X104763250Y-104007500D01*
X104739358Y-104006326D01*
X104715697Y-104002816D01*
X104692493Y-103997004D01*
X104669971Y-103988946D01*
X104648347Y-103978718D01*
X104627830Y-103966421D01*
X104608617Y-103952171D01*
X104590893Y-103936107D01*
X104574829Y-103918383D01*
X104560579Y-103899170D01*
X104548282Y-103878653D01*
X104538054Y-103857029D01*
X104529996Y-103834507D01*
X104524184Y-103811303D01*
X104520674Y-103787642D01*
X104519500Y-103763750D01*
X104519500Y-103276250D01*
X104520674Y-103252358D01*
X104524184Y-103228697D01*
X104529996Y-103205493D01*
X104538054Y-103182971D01*
X104548282Y-103161347D01*
X104560579Y-103140830D01*
X104574829Y-103121617D01*
X104590893Y-103103893D01*
X104608617Y-103087829D01*
X104627830Y-103073579D01*
X104648347Y-103061282D01*
X104669971Y-103051054D01*
X104692493Y-103042996D01*
X104715697Y-103037184D01*
X104739358Y-103033674D01*
X104763250Y-103032500D01*
X105675750Y-103032500D01*
X105699642Y-103033674D01*
X105699642Y-103033674D01*
G37*
D11*
X105219500Y-103520000D03*
G04 #@! TD*
D10*
G04 #@! TO.C,R10*
G36*
X95704742Y-104387974D02*
X95728403Y-104391484D01*
X95751607Y-104397296D01*
X95774129Y-104405354D01*
X95795753Y-104415582D01*
X95816270Y-104427879D01*
X95835483Y-104442129D01*
X95853207Y-104458193D01*
X95869271Y-104475917D01*
X95883521Y-104495130D01*
X95895818Y-104515647D01*
X95906046Y-104537271D01*
X95914104Y-104559793D01*
X95919916Y-104582997D01*
X95923426Y-104606658D01*
X95924600Y-104630550D01*
X95924600Y-105118050D01*
X95923426Y-105141942D01*
X95919916Y-105165603D01*
X95914104Y-105188807D01*
X95906046Y-105211329D01*
X95895818Y-105232953D01*
X95883521Y-105253470D01*
X95869271Y-105272683D01*
X95853207Y-105290407D01*
X95835483Y-105306471D01*
X95816270Y-105320721D01*
X95795753Y-105333018D01*
X95774129Y-105343246D01*
X95751607Y-105351304D01*
X95728403Y-105357116D01*
X95704742Y-105360626D01*
X95680850Y-105361800D01*
X94768350Y-105361800D01*
X94744458Y-105360626D01*
X94720797Y-105357116D01*
X94697593Y-105351304D01*
X94675071Y-105343246D01*
X94653447Y-105333018D01*
X94632930Y-105320721D01*
X94613717Y-105306471D01*
X94595993Y-105290407D01*
X94579929Y-105272683D01*
X94565679Y-105253470D01*
X94553382Y-105232953D01*
X94543154Y-105211329D01*
X94535096Y-105188807D01*
X94529284Y-105165603D01*
X94525774Y-105141942D01*
X94524600Y-105118050D01*
X94524600Y-104630550D01*
X94525774Y-104606658D01*
X94529284Y-104582997D01*
X94535096Y-104559793D01*
X94543154Y-104537271D01*
X94553382Y-104515647D01*
X94565679Y-104495130D01*
X94579929Y-104475917D01*
X94595993Y-104458193D01*
X94613717Y-104442129D01*
X94632930Y-104427879D01*
X94653447Y-104415582D01*
X94675071Y-104405354D01*
X94697593Y-104397296D01*
X94720797Y-104391484D01*
X94744458Y-104387974D01*
X94768350Y-104386800D01*
X95680850Y-104386800D01*
X95704742Y-104387974D01*
X95704742Y-104387974D01*
G37*
D11*
X95224600Y-104874300D03*
D10*
G36*
X95704742Y-102512974D02*
X95728403Y-102516484D01*
X95751607Y-102522296D01*
X95774129Y-102530354D01*
X95795753Y-102540582D01*
X95816270Y-102552879D01*
X95835483Y-102567129D01*
X95853207Y-102583193D01*
X95869271Y-102600917D01*
X95883521Y-102620130D01*
X95895818Y-102640647D01*
X95906046Y-102662271D01*
X95914104Y-102684793D01*
X95919916Y-102707997D01*
X95923426Y-102731658D01*
X95924600Y-102755550D01*
X95924600Y-103243050D01*
X95923426Y-103266942D01*
X95919916Y-103290603D01*
X95914104Y-103313807D01*
X95906046Y-103336329D01*
X95895818Y-103357953D01*
X95883521Y-103378470D01*
X95869271Y-103397683D01*
X95853207Y-103415407D01*
X95835483Y-103431471D01*
X95816270Y-103445721D01*
X95795753Y-103458018D01*
X95774129Y-103468246D01*
X95751607Y-103476304D01*
X95728403Y-103482116D01*
X95704742Y-103485626D01*
X95680850Y-103486800D01*
X94768350Y-103486800D01*
X94744458Y-103485626D01*
X94720797Y-103482116D01*
X94697593Y-103476304D01*
X94675071Y-103468246D01*
X94653447Y-103458018D01*
X94632930Y-103445721D01*
X94613717Y-103431471D01*
X94595993Y-103415407D01*
X94579929Y-103397683D01*
X94565679Y-103378470D01*
X94553382Y-103357953D01*
X94543154Y-103336329D01*
X94535096Y-103313807D01*
X94529284Y-103290603D01*
X94525774Y-103266942D01*
X94524600Y-103243050D01*
X94524600Y-102755550D01*
X94525774Y-102731658D01*
X94529284Y-102707997D01*
X94535096Y-102684793D01*
X94543154Y-102662271D01*
X94553382Y-102640647D01*
X94565679Y-102620130D01*
X94579929Y-102600917D01*
X94595993Y-102583193D01*
X94613717Y-102567129D01*
X94632930Y-102552879D01*
X94653447Y-102540582D01*
X94675071Y-102530354D01*
X94697593Y-102522296D01*
X94720797Y-102516484D01*
X94744458Y-102512974D01*
X94768350Y-102511800D01*
X95680850Y-102511800D01*
X95704742Y-102512974D01*
X95704742Y-102512974D01*
G37*
D11*
X95224600Y-102999300D03*
G04 #@! TD*
D10*
G04 #@! TO.C,R11*
G36*
X109191799Y-103124192D02*
X109215460Y-103127702D01*
X109238664Y-103133514D01*
X109261186Y-103141572D01*
X109282810Y-103151800D01*
X109303327Y-103164097D01*
X109322540Y-103178347D01*
X109340264Y-103194411D01*
X109356328Y-103212135D01*
X109370578Y-103231348D01*
X109382875Y-103251865D01*
X109393103Y-103273489D01*
X109401161Y-103296011D01*
X109406973Y-103319215D01*
X109410483Y-103342876D01*
X109411657Y-103366768D01*
X109411657Y-104279268D01*
X109410483Y-104303160D01*
X109406973Y-104326821D01*
X109401161Y-104350025D01*
X109393103Y-104372547D01*
X109382875Y-104394171D01*
X109370578Y-104414688D01*
X109356328Y-104433901D01*
X109340264Y-104451625D01*
X109322540Y-104467689D01*
X109303327Y-104481939D01*
X109282810Y-104494236D01*
X109261186Y-104504464D01*
X109238664Y-104512522D01*
X109215460Y-104518334D01*
X109191799Y-104521844D01*
X109167907Y-104523018D01*
X108680407Y-104523018D01*
X108656515Y-104521844D01*
X108632854Y-104518334D01*
X108609650Y-104512522D01*
X108587128Y-104504464D01*
X108565504Y-104494236D01*
X108544987Y-104481939D01*
X108525774Y-104467689D01*
X108508050Y-104451625D01*
X108491986Y-104433901D01*
X108477736Y-104414688D01*
X108465439Y-104394171D01*
X108455211Y-104372547D01*
X108447153Y-104350025D01*
X108441341Y-104326821D01*
X108437831Y-104303160D01*
X108436657Y-104279268D01*
X108436657Y-103366768D01*
X108437831Y-103342876D01*
X108441341Y-103319215D01*
X108447153Y-103296011D01*
X108455211Y-103273489D01*
X108465439Y-103251865D01*
X108477736Y-103231348D01*
X108491986Y-103212135D01*
X108508050Y-103194411D01*
X108525774Y-103178347D01*
X108544987Y-103164097D01*
X108565504Y-103151800D01*
X108587128Y-103141572D01*
X108609650Y-103133514D01*
X108632854Y-103127702D01*
X108656515Y-103124192D01*
X108680407Y-103123018D01*
X109167907Y-103123018D01*
X109191799Y-103124192D01*
X109191799Y-103124192D01*
G37*
D11*
X108924157Y-103823018D03*
D10*
G36*
X107316799Y-103124192D02*
X107340460Y-103127702D01*
X107363664Y-103133514D01*
X107386186Y-103141572D01*
X107407810Y-103151800D01*
X107428327Y-103164097D01*
X107447540Y-103178347D01*
X107465264Y-103194411D01*
X107481328Y-103212135D01*
X107495578Y-103231348D01*
X107507875Y-103251865D01*
X107518103Y-103273489D01*
X107526161Y-103296011D01*
X107531973Y-103319215D01*
X107535483Y-103342876D01*
X107536657Y-103366768D01*
X107536657Y-104279268D01*
X107535483Y-104303160D01*
X107531973Y-104326821D01*
X107526161Y-104350025D01*
X107518103Y-104372547D01*
X107507875Y-104394171D01*
X107495578Y-104414688D01*
X107481328Y-104433901D01*
X107465264Y-104451625D01*
X107447540Y-104467689D01*
X107428327Y-104481939D01*
X107407810Y-104494236D01*
X107386186Y-104504464D01*
X107363664Y-104512522D01*
X107340460Y-104518334D01*
X107316799Y-104521844D01*
X107292907Y-104523018D01*
X106805407Y-104523018D01*
X106781515Y-104521844D01*
X106757854Y-104518334D01*
X106734650Y-104512522D01*
X106712128Y-104504464D01*
X106690504Y-104494236D01*
X106669987Y-104481939D01*
X106650774Y-104467689D01*
X106633050Y-104451625D01*
X106616986Y-104433901D01*
X106602736Y-104414688D01*
X106590439Y-104394171D01*
X106580211Y-104372547D01*
X106572153Y-104350025D01*
X106566341Y-104326821D01*
X106562831Y-104303160D01*
X106561657Y-104279268D01*
X106561657Y-103366768D01*
X106562831Y-103342876D01*
X106566341Y-103319215D01*
X106572153Y-103296011D01*
X106580211Y-103273489D01*
X106590439Y-103251865D01*
X106602736Y-103231348D01*
X106616986Y-103212135D01*
X106633050Y-103194411D01*
X106650774Y-103178347D01*
X106669987Y-103164097D01*
X106690504Y-103151800D01*
X106712128Y-103141572D01*
X106734650Y-103133514D01*
X106757854Y-103127702D01*
X106781515Y-103124192D01*
X106805407Y-103123018D01*
X107292907Y-103123018D01*
X107316799Y-103124192D01*
X107316799Y-103124192D01*
G37*
D11*
X107049157Y-103823018D03*
G04 #@! TD*
D13*
G04 #@! TO.C,U1*
X98315800Y-98806000D03*
X98315800Y-97536000D03*
X98315800Y-96266000D03*
X98315800Y-94996000D03*
X103715800Y-94996000D03*
X103715800Y-96266000D03*
X103715800Y-97536000D03*
X103715800Y-98806000D03*
G04 #@! TD*
G04 #@! TO.C,U2*
X97666657Y-103035618D03*
X97666657Y-104305618D03*
X97666657Y-105575618D03*
X97666657Y-106845618D03*
X103066657Y-106845618D03*
X103066657Y-105575618D03*
X103066657Y-104305618D03*
X103066657Y-103035618D03*
G04 #@! TD*
D14*
G04 #@! TO.C,D1*
X93929200Y-95401418D03*
X93929200Y-96801418D03*
G04 #@! TD*
G04 #@! TO.C,D2*
X92202000Y-96788200D03*
X92202000Y-95388200D03*
G04 #@! TD*
G04 #@! TO.C,D3*
X90576400Y-95439000D03*
X90576400Y-96839000D03*
G04 #@! TD*
G04 #@! TO.C,D4*
X95631000Y-95362800D03*
X95631000Y-96762800D03*
G04 #@! TD*
M02*
