G04 #@! TF.GenerationSoftware,KiCad,Pcbnew,5.0.0*
G04 #@! TF.CreationDate,2018-09-10T00:09:20+02:00*
G04 #@! TF.ProjectId,preamp,707265616D702E6B696361645F706362,rev?*
G04 #@! TF.SameCoordinates,Original*
G04 #@! TF.FileFunction,Legend,Top*
G04 #@! TF.FilePolarity,Positive*
%FSLAX46Y46*%
G04 Gerber Fmt 4.6, Leading zero omitted, Abs format (unit mm)*
G04 Created by KiCad (PCBNEW 5.0.0) date Mon Sep 10 00:09:20 2018*
%MOMM*%
%LPD*%
G01*
G04 APERTURE LIST*
%ADD10C,0.120000*%
%ADD11C,0.150000*%
G04 APERTURE END LIST*
D10*
G04 #@! TO.C,C1*
X102327035Y-101815218D02*
X101809879Y-101815218D01*
X102327035Y-100395218D02*
X101809879Y-100395218D01*
G04 #@! TO.C,C2*
X90891257Y-102929440D02*
X90891257Y-103446596D01*
X89471257Y-102929440D02*
X89471257Y-103446596D01*
G04 #@! TO.C,C3*
X106882000Y-95330778D02*
X106882000Y-94813622D01*
X105462000Y-95330778D02*
X105462000Y-94813622D01*
G04 #@! TO.C,C4*
X95945857Y-99144840D02*
X95945857Y-99661996D01*
X94525857Y-99144840D02*
X94525857Y-99661996D01*
G04 #@! TO.C,C5*
X92036657Y-102830140D02*
X92036657Y-103347296D01*
X93456657Y-102830140D02*
X93456657Y-103347296D01*
G04 #@! TO.C,C6*
X99944422Y-93750200D02*
X100461578Y-93750200D01*
X99944422Y-92330200D02*
X100461578Y-92330200D01*
G04 #@! TO.C,C7*
X96461078Y-109549000D02*
X95943922Y-109549000D01*
X96461078Y-108129000D02*
X95943922Y-108129000D01*
G04 #@! TO.C,C8*
X107945422Y-106831200D02*
X108462578Y-106831200D01*
X107945422Y-105411200D02*
X108462578Y-105411200D01*
G04 #@! TO.C,Q1*
X104519000Y-93832800D02*
X104519000Y-92902800D01*
X104519000Y-90672800D02*
X104519000Y-91602800D01*
X104519000Y-90672800D02*
X102359000Y-90672800D01*
X104519000Y-93832800D02*
X103059000Y-93832800D01*
G04 #@! TO.C,R1*
X96722000Y-93171778D02*
X96722000Y-92654622D01*
X95302000Y-93171778D02*
X95302000Y-92654622D01*
G04 #@! TO.C,R2*
X93244600Y-92654622D02*
X93244600Y-93171778D01*
X94664600Y-92654622D02*
X94664600Y-93171778D01*
G04 #@! TO.C,R3*
X109402378Y-98703200D02*
X108885222Y-98703200D01*
X109402378Y-97283200D02*
X108885222Y-97283200D01*
G04 #@! TO.C,R4*
X108888600Y-95330778D02*
X108888600Y-94813622D01*
X107468600Y-95330778D02*
X107468600Y-94813622D01*
G04 #@! TO.C,R5*
X89496657Y-99763596D02*
X89496657Y-99246440D01*
X90916657Y-99763596D02*
X90916657Y-99246440D01*
G04 #@! TO.C,R6*
X92087457Y-99788996D02*
X92087457Y-99271840D01*
X93507457Y-99788996D02*
X93507457Y-99271840D01*
G04 #@! TO.C,R7*
X91918022Y-106780400D02*
X92435178Y-106780400D01*
X91918022Y-105360400D02*
X92435178Y-105360400D01*
G04 #@! TO.C,R8*
X105929500Y-107564422D02*
X105929500Y-108081578D01*
X104509500Y-107564422D02*
X104509500Y-108081578D01*
G04 #@! TO.C,R9*
X104509500Y-104198922D02*
X104509500Y-104716078D01*
X105929500Y-104198922D02*
X105929500Y-104716078D01*
G04 #@! TO.C,R10*
X94514600Y-104195378D02*
X94514600Y-103678222D01*
X95934600Y-104195378D02*
X95934600Y-103678222D01*
G04 #@! TO.C,R11*
X108245235Y-104533018D02*
X107728079Y-104533018D01*
X108245235Y-103113018D02*
X107728079Y-103113018D01*
D11*
G04 #@! TO.C,U1*
X103090800Y-99426000D02*
X104490800Y-99426000D01*
X103090800Y-94326000D02*
X98940800Y-94326000D01*
X103090800Y-99476000D02*
X98940800Y-99476000D01*
X103090800Y-94326000D02*
X103090800Y-94471000D01*
X98940800Y-94326000D02*
X98940800Y-94471000D01*
X98940800Y-99476000D02*
X98940800Y-99331000D01*
X103090800Y-99476000D02*
X103090800Y-99426000D01*
G04 #@! TO.C,U2*
X98291657Y-102365618D02*
X98291657Y-102415618D01*
X102441657Y-102365618D02*
X102441657Y-102510618D01*
X102441657Y-107515618D02*
X102441657Y-107370618D01*
X98291657Y-107515618D02*
X98291657Y-107370618D01*
X98291657Y-102365618D02*
X102441657Y-102365618D01*
X98291657Y-107515618D02*
X102441657Y-107515618D01*
X98291657Y-102415618D02*
X96891657Y-102415618D01*
D10*
G04 #@! TO.C,J1*
X95566000Y-89546200D02*
X96966000Y-89546200D01*
X95566000Y-90946200D02*
X95566000Y-89546200D01*
X96966000Y-90946200D02*
X95566000Y-90946200D01*
X96966000Y-89546200D02*
X96966000Y-90946200D01*
G04 #@! TO.C,J2*
X94934000Y-89546200D02*
X94934000Y-90946200D01*
X94934000Y-90946200D02*
X93534000Y-90946200D01*
X93534000Y-90946200D02*
X93534000Y-89546200D01*
X93534000Y-89546200D02*
X94934000Y-89546200D01*
G04 #@! TO.C,J3*
X100138000Y-90184200D02*
X100138000Y-88784200D01*
X101538000Y-90184200D02*
X100138000Y-90184200D01*
X101538000Y-88784200D02*
X101538000Y-90184200D01*
X100138000Y-88784200D02*
X101538000Y-88784200D01*
G04 #@! TO.C,J4*
X102119200Y-88784200D02*
X103519200Y-88784200D01*
X103519200Y-88784200D02*
X103519200Y-90184200D01*
X103519200Y-90184200D02*
X102119200Y-90184200D01*
X102119200Y-90184200D02*
X102119200Y-88784200D01*
G04 #@! TO.C,J5*
X99379000Y-109345500D02*
X99379000Y-110745500D01*
X99379000Y-110745500D02*
X97979000Y-110745500D01*
X97979000Y-110745500D02*
X97979000Y-109345500D01*
X97979000Y-109345500D02*
X99379000Y-109345500D01*
G04 #@! TO.C,J6*
X101662000Y-109345500D02*
X103062000Y-109345500D01*
X101662000Y-110745500D02*
X101662000Y-109345500D01*
X103062000Y-110745500D02*
X101662000Y-110745500D01*
X103062000Y-109345500D02*
X103062000Y-110745500D01*
G04 #@! TO.C,J7*
X101220500Y-109345500D02*
X101220500Y-110745500D01*
X101220500Y-110745500D02*
X99820500Y-110745500D01*
X99820500Y-110745500D02*
X99820500Y-109345500D01*
X99820500Y-109345500D02*
X101220500Y-109345500D01*
G04 #@! TO.C,D1*
X93329200Y-96801418D02*
X93329200Y-94951418D01*
X94529200Y-96801418D02*
X94529200Y-94951418D01*
X94529200Y-94951418D02*
X93329200Y-94951418D01*
G04 #@! TO.C,D2*
X92802000Y-95388200D02*
X92802000Y-97238200D01*
X91602000Y-95388200D02*
X91602000Y-97238200D01*
X91602000Y-97238200D02*
X92802000Y-97238200D01*
G04 #@! TO.C,D3*
X89976400Y-97289000D02*
X91176400Y-97289000D01*
X89976400Y-95439000D02*
X89976400Y-97289000D01*
X91176400Y-95439000D02*
X91176400Y-97289000D01*
G04 #@! TO.C,D4*
X95031000Y-97212800D02*
X96231000Y-97212800D01*
X95031000Y-95362800D02*
X95031000Y-97212800D01*
X96231000Y-95362800D02*
X96231000Y-97212800D01*
G04 #@! TD*
M02*
