G04 #@! TF.GenerationSoftware,KiCad,Pcbnew,5.0.0*
G04 #@! TF.CreationDate,2018-09-10T00:09:20+02:00*
G04 #@! TF.ProjectId,preamp,707265616D702E6B696361645F706362,rev?*
G04 #@! TF.SameCoordinates,Original*
G04 #@! TF.FileFunction,Soldermask,Top*
G04 #@! TF.FilePolarity,Negative*
%FSLAX46Y46*%
G04 Gerber Fmt 4.6, Leading zero omitted, Abs format (unit mm)*
G04 Created by KiCad (PCBNEW 5.0.0) date Mon Sep 10 00:09:20 2018*
%MOMM*%
%LPD*%
G01*
G04 APERTURE LIST*
%ADD10C,0.100000*%
%ADD11C,1.375000*%
%ADD12R,1.300000X1.200000*%
%ADD13R,1.950000X1.000000*%
%ADD14R,1.400000X1.400000*%
%ADD15R,1.100000X1.000000*%
G04 APERTURE END LIST*
D10*
G04 #@! TO.C,C1*
G36*
X103383400Y-100206873D02*
X103416769Y-100211823D01*
X103449492Y-100220020D01*
X103481254Y-100231384D01*
X103511750Y-100245808D01*
X103540684Y-100263150D01*
X103567780Y-100283246D01*
X103592775Y-100305900D01*
X103615429Y-100330895D01*
X103635525Y-100357991D01*
X103652867Y-100386925D01*
X103667291Y-100417421D01*
X103678655Y-100449183D01*
X103686852Y-100481906D01*
X103691802Y-100515275D01*
X103693457Y-100548968D01*
X103693457Y-101661468D01*
X103691802Y-101695161D01*
X103686852Y-101728530D01*
X103678655Y-101761253D01*
X103667291Y-101793015D01*
X103652867Y-101823511D01*
X103635525Y-101852445D01*
X103615429Y-101879541D01*
X103592775Y-101904536D01*
X103567780Y-101927190D01*
X103540684Y-101947286D01*
X103511750Y-101964628D01*
X103481254Y-101979052D01*
X103449492Y-101990416D01*
X103416769Y-101998613D01*
X103383400Y-102003563D01*
X103349707Y-102005218D01*
X102662207Y-102005218D01*
X102628514Y-102003563D01*
X102595145Y-101998613D01*
X102562422Y-101990416D01*
X102530660Y-101979052D01*
X102500164Y-101964628D01*
X102471230Y-101947286D01*
X102444134Y-101927190D01*
X102419139Y-101904536D01*
X102396485Y-101879541D01*
X102376389Y-101852445D01*
X102359047Y-101823511D01*
X102344623Y-101793015D01*
X102333259Y-101761253D01*
X102325062Y-101728530D01*
X102320112Y-101695161D01*
X102318457Y-101661468D01*
X102318457Y-100548968D01*
X102320112Y-100515275D01*
X102325062Y-100481906D01*
X102333259Y-100449183D01*
X102344623Y-100417421D01*
X102359047Y-100386925D01*
X102376389Y-100357991D01*
X102396485Y-100330895D01*
X102419139Y-100305900D01*
X102444134Y-100283246D01*
X102471230Y-100263150D01*
X102500164Y-100245808D01*
X102530660Y-100231384D01*
X102562422Y-100220020D01*
X102595145Y-100211823D01*
X102628514Y-100206873D01*
X102662207Y-100205218D01*
X103349707Y-100205218D01*
X103383400Y-100206873D01*
X103383400Y-100206873D01*
G37*
D11*
X103005957Y-101105218D03*
D10*
G36*
X101508400Y-100206873D02*
X101541769Y-100211823D01*
X101574492Y-100220020D01*
X101606254Y-100231384D01*
X101636750Y-100245808D01*
X101665684Y-100263150D01*
X101692780Y-100283246D01*
X101717775Y-100305900D01*
X101740429Y-100330895D01*
X101760525Y-100357991D01*
X101777867Y-100386925D01*
X101792291Y-100417421D01*
X101803655Y-100449183D01*
X101811852Y-100481906D01*
X101816802Y-100515275D01*
X101818457Y-100548968D01*
X101818457Y-101661468D01*
X101816802Y-101695161D01*
X101811852Y-101728530D01*
X101803655Y-101761253D01*
X101792291Y-101793015D01*
X101777867Y-101823511D01*
X101760525Y-101852445D01*
X101740429Y-101879541D01*
X101717775Y-101904536D01*
X101692780Y-101927190D01*
X101665684Y-101947286D01*
X101636750Y-101964628D01*
X101606254Y-101979052D01*
X101574492Y-101990416D01*
X101541769Y-101998613D01*
X101508400Y-102003563D01*
X101474707Y-102005218D01*
X100787207Y-102005218D01*
X100753514Y-102003563D01*
X100720145Y-101998613D01*
X100687422Y-101990416D01*
X100655660Y-101979052D01*
X100625164Y-101964628D01*
X100596230Y-101947286D01*
X100569134Y-101927190D01*
X100544139Y-101904536D01*
X100521485Y-101879541D01*
X100501389Y-101852445D01*
X100484047Y-101823511D01*
X100469623Y-101793015D01*
X100458259Y-101761253D01*
X100450062Y-101728530D01*
X100445112Y-101695161D01*
X100443457Y-101661468D01*
X100443457Y-100548968D01*
X100445112Y-100515275D01*
X100450062Y-100481906D01*
X100458259Y-100449183D01*
X100469623Y-100417421D01*
X100484047Y-100386925D01*
X100501389Y-100357991D01*
X100521485Y-100330895D01*
X100544139Y-100305900D01*
X100569134Y-100283246D01*
X100596230Y-100263150D01*
X100625164Y-100245808D01*
X100655660Y-100231384D01*
X100687422Y-100220020D01*
X100720145Y-100211823D01*
X100753514Y-100206873D01*
X100787207Y-100205218D01*
X101474707Y-100205218D01*
X101508400Y-100206873D01*
X101508400Y-100206873D01*
G37*
D11*
X101130957Y-101105218D03*
G04 #@! TD*
D10*
G04 #@! TO.C,C2*
G36*
X90771200Y-101564673D02*
X90804569Y-101569623D01*
X90837292Y-101577820D01*
X90869054Y-101589184D01*
X90899550Y-101603608D01*
X90928484Y-101620950D01*
X90955580Y-101641046D01*
X90980575Y-101663700D01*
X91003229Y-101688695D01*
X91023325Y-101715791D01*
X91040667Y-101744725D01*
X91055091Y-101775221D01*
X91066455Y-101806983D01*
X91074652Y-101839706D01*
X91079602Y-101873075D01*
X91081257Y-101906768D01*
X91081257Y-102594268D01*
X91079602Y-102627961D01*
X91074652Y-102661330D01*
X91066455Y-102694053D01*
X91055091Y-102725815D01*
X91040667Y-102756311D01*
X91023325Y-102785245D01*
X91003229Y-102812341D01*
X90980575Y-102837336D01*
X90955580Y-102859990D01*
X90928484Y-102880086D01*
X90899550Y-102897428D01*
X90869054Y-102911852D01*
X90837292Y-102923216D01*
X90804569Y-102931413D01*
X90771200Y-102936363D01*
X90737507Y-102938018D01*
X89625007Y-102938018D01*
X89591314Y-102936363D01*
X89557945Y-102931413D01*
X89525222Y-102923216D01*
X89493460Y-102911852D01*
X89462964Y-102897428D01*
X89434030Y-102880086D01*
X89406934Y-102859990D01*
X89381939Y-102837336D01*
X89359285Y-102812341D01*
X89339189Y-102785245D01*
X89321847Y-102756311D01*
X89307423Y-102725815D01*
X89296059Y-102694053D01*
X89287862Y-102661330D01*
X89282912Y-102627961D01*
X89281257Y-102594268D01*
X89281257Y-101906768D01*
X89282912Y-101873075D01*
X89287862Y-101839706D01*
X89296059Y-101806983D01*
X89307423Y-101775221D01*
X89321847Y-101744725D01*
X89339189Y-101715791D01*
X89359285Y-101688695D01*
X89381939Y-101663700D01*
X89406934Y-101641046D01*
X89434030Y-101620950D01*
X89462964Y-101603608D01*
X89493460Y-101589184D01*
X89525222Y-101577820D01*
X89557945Y-101569623D01*
X89591314Y-101564673D01*
X89625007Y-101563018D01*
X90737507Y-101563018D01*
X90771200Y-101564673D01*
X90771200Y-101564673D01*
G37*
D11*
X90181257Y-102250518D03*
D10*
G36*
X90771200Y-103439673D02*
X90804569Y-103444623D01*
X90837292Y-103452820D01*
X90869054Y-103464184D01*
X90899550Y-103478608D01*
X90928484Y-103495950D01*
X90955580Y-103516046D01*
X90980575Y-103538700D01*
X91003229Y-103563695D01*
X91023325Y-103590791D01*
X91040667Y-103619725D01*
X91055091Y-103650221D01*
X91066455Y-103681983D01*
X91074652Y-103714706D01*
X91079602Y-103748075D01*
X91081257Y-103781768D01*
X91081257Y-104469268D01*
X91079602Y-104502961D01*
X91074652Y-104536330D01*
X91066455Y-104569053D01*
X91055091Y-104600815D01*
X91040667Y-104631311D01*
X91023325Y-104660245D01*
X91003229Y-104687341D01*
X90980575Y-104712336D01*
X90955580Y-104734990D01*
X90928484Y-104755086D01*
X90899550Y-104772428D01*
X90869054Y-104786852D01*
X90837292Y-104798216D01*
X90804569Y-104806413D01*
X90771200Y-104811363D01*
X90737507Y-104813018D01*
X89625007Y-104813018D01*
X89591314Y-104811363D01*
X89557945Y-104806413D01*
X89525222Y-104798216D01*
X89493460Y-104786852D01*
X89462964Y-104772428D01*
X89434030Y-104755086D01*
X89406934Y-104734990D01*
X89381939Y-104712336D01*
X89359285Y-104687341D01*
X89339189Y-104660245D01*
X89321847Y-104631311D01*
X89307423Y-104600815D01*
X89296059Y-104569053D01*
X89287862Y-104536330D01*
X89282912Y-104502961D01*
X89281257Y-104469268D01*
X89281257Y-103781768D01*
X89282912Y-103748075D01*
X89287862Y-103714706D01*
X89296059Y-103681983D01*
X89307423Y-103650221D01*
X89321847Y-103619725D01*
X89339189Y-103590791D01*
X89359285Y-103563695D01*
X89381939Y-103538700D01*
X89406934Y-103516046D01*
X89434030Y-103495950D01*
X89462964Y-103478608D01*
X89493460Y-103464184D01*
X89525222Y-103452820D01*
X89557945Y-103444623D01*
X89591314Y-103439673D01*
X89625007Y-103438018D01*
X90737507Y-103438018D01*
X90771200Y-103439673D01*
X90771200Y-103439673D01*
G37*
D11*
X90181257Y-104125518D03*
G04 #@! TD*
D10*
G04 #@! TO.C,C3*
G36*
X106761943Y-93448855D02*
X106795312Y-93453805D01*
X106828035Y-93462002D01*
X106859797Y-93473366D01*
X106890293Y-93487790D01*
X106919227Y-93505132D01*
X106946323Y-93525228D01*
X106971318Y-93547882D01*
X106993972Y-93572877D01*
X107014068Y-93599973D01*
X107031410Y-93628907D01*
X107045834Y-93659403D01*
X107057198Y-93691165D01*
X107065395Y-93723888D01*
X107070345Y-93757257D01*
X107072000Y-93790950D01*
X107072000Y-94478450D01*
X107070345Y-94512143D01*
X107065395Y-94545512D01*
X107057198Y-94578235D01*
X107045834Y-94609997D01*
X107031410Y-94640493D01*
X107014068Y-94669427D01*
X106993972Y-94696523D01*
X106971318Y-94721518D01*
X106946323Y-94744172D01*
X106919227Y-94764268D01*
X106890293Y-94781610D01*
X106859797Y-94796034D01*
X106828035Y-94807398D01*
X106795312Y-94815595D01*
X106761943Y-94820545D01*
X106728250Y-94822200D01*
X105615750Y-94822200D01*
X105582057Y-94820545D01*
X105548688Y-94815595D01*
X105515965Y-94807398D01*
X105484203Y-94796034D01*
X105453707Y-94781610D01*
X105424773Y-94764268D01*
X105397677Y-94744172D01*
X105372682Y-94721518D01*
X105350028Y-94696523D01*
X105329932Y-94669427D01*
X105312590Y-94640493D01*
X105298166Y-94609997D01*
X105286802Y-94578235D01*
X105278605Y-94545512D01*
X105273655Y-94512143D01*
X105272000Y-94478450D01*
X105272000Y-93790950D01*
X105273655Y-93757257D01*
X105278605Y-93723888D01*
X105286802Y-93691165D01*
X105298166Y-93659403D01*
X105312590Y-93628907D01*
X105329932Y-93599973D01*
X105350028Y-93572877D01*
X105372682Y-93547882D01*
X105397677Y-93525228D01*
X105424773Y-93505132D01*
X105453707Y-93487790D01*
X105484203Y-93473366D01*
X105515965Y-93462002D01*
X105548688Y-93453805D01*
X105582057Y-93448855D01*
X105615750Y-93447200D01*
X106728250Y-93447200D01*
X106761943Y-93448855D01*
X106761943Y-93448855D01*
G37*
D11*
X106172000Y-94134700D03*
D10*
G36*
X106761943Y-95323855D02*
X106795312Y-95328805D01*
X106828035Y-95337002D01*
X106859797Y-95348366D01*
X106890293Y-95362790D01*
X106919227Y-95380132D01*
X106946323Y-95400228D01*
X106971318Y-95422882D01*
X106993972Y-95447877D01*
X107014068Y-95474973D01*
X107031410Y-95503907D01*
X107045834Y-95534403D01*
X107057198Y-95566165D01*
X107065395Y-95598888D01*
X107070345Y-95632257D01*
X107072000Y-95665950D01*
X107072000Y-96353450D01*
X107070345Y-96387143D01*
X107065395Y-96420512D01*
X107057198Y-96453235D01*
X107045834Y-96484997D01*
X107031410Y-96515493D01*
X107014068Y-96544427D01*
X106993972Y-96571523D01*
X106971318Y-96596518D01*
X106946323Y-96619172D01*
X106919227Y-96639268D01*
X106890293Y-96656610D01*
X106859797Y-96671034D01*
X106828035Y-96682398D01*
X106795312Y-96690595D01*
X106761943Y-96695545D01*
X106728250Y-96697200D01*
X105615750Y-96697200D01*
X105582057Y-96695545D01*
X105548688Y-96690595D01*
X105515965Y-96682398D01*
X105484203Y-96671034D01*
X105453707Y-96656610D01*
X105424773Y-96639268D01*
X105397677Y-96619172D01*
X105372682Y-96596518D01*
X105350028Y-96571523D01*
X105329932Y-96544427D01*
X105312590Y-96515493D01*
X105298166Y-96484997D01*
X105286802Y-96453235D01*
X105278605Y-96420512D01*
X105273655Y-96387143D01*
X105272000Y-96353450D01*
X105272000Y-95665950D01*
X105273655Y-95632257D01*
X105278605Y-95598888D01*
X105286802Y-95566165D01*
X105298166Y-95534403D01*
X105312590Y-95503907D01*
X105329932Y-95474973D01*
X105350028Y-95447877D01*
X105372682Y-95422882D01*
X105397677Y-95400228D01*
X105424773Y-95380132D01*
X105453707Y-95362790D01*
X105484203Y-95348366D01*
X105515965Y-95337002D01*
X105548688Y-95328805D01*
X105582057Y-95323855D01*
X105615750Y-95322200D01*
X106728250Y-95322200D01*
X106761943Y-95323855D01*
X106761943Y-95323855D01*
G37*
D11*
X106172000Y-96009700D03*
G04 #@! TD*
D10*
G04 #@! TO.C,C4*
G36*
X95825800Y-97780073D02*
X95859169Y-97785023D01*
X95891892Y-97793220D01*
X95923654Y-97804584D01*
X95954150Y-97819008D01*
X95983084Y-97836350D01*
X96010180Y-97856446D01*
X96035175Y-97879100D01*
X96057829Y-97904095D01*
X96077925Y-97931191D01*
X96095267Y-97960125D01*
X96109691Y-97990621D01*
X96121055Y-98022383D01*
X96129252Y-98055106D01*
X96134202Y-98088475D01*
X96135857Y-98122168D01*
X96135857Y-98809668D01*
X96134202Y-98843361D01*
X96129252Y-98876730D01*
X96121055Y-98909453D01*
X96109691Y-98941215D01*
X96095267Y-98971711D01*
X96077925Y-99000645D01*
X96057829Y-99027741D01*
X96035175Y-99052736D01*
X96010180Y-99075390D01*
X95983084Y-99095486D01*
X95954150Y-99112828D01*
X95923654Y-99127252D01*
X95891892Y-99138616D01*
X95859169Y-99146813D01*
X95825800Y-99151763D01*
X95792107Y-99153418D01*
X94679607Y-99153418D01*
X94645914Y-99151763D01*
X94612545Y-99146813D01*
X94579822Y-99138616D01*
X94548060Y-99127252D01*
X94517564Y-99112828D01*
X94488630Y-99095486D01*
X94461534Y-99075390D01*
X94436539Y-99052736D01*
X94413885Y-99027741D01*
X94393789Y-99000645D01*
X94376447Y-98971711D01*
X94362023Y-98941215D01*
X94350659Y-98909453D01*
X94342462Y-98876730D01*
X94337512Y-98843361D01*
X94335857Y-98809668D01*
X94335857Y-98122168D01*
X94337512Y-98088475D01*
X94342462Y-98055106D01*
X94350659Y-98022383D01*
X94362023Y-97990621D01*
X94376447Y-97960125D01*
X94393789Y-97931191D01*
X94413885Y-97904095D01*
X94436539Y-97879100D01*
X94461534Y-97856446D01*
X94488630Y-97836350D01*
X94517564Y-97819008D01*
X94548060Y-97804584D01*
X94579822Y-97793220D01*
X94612545Y-97785023D01*
X94645914Y-97780073D01*
X94679607Y-97778418D01*
X95792107Y-97778418D01*
X95825800Y-97780073D01*
X95825800Y-97780073D01*
G37*
D11*
X95235857Y-98465918D03*
D10*
G36*
X95825800Y-99655073D02*
X95859169Y-99660023D01*
X95891892Y-99668220D01*
X95923654Y-99679584D01*
X95954150Y-99694008D01*
X95983084Y-99711350D01*
X96010180Y-99731446D01*
X96035175Y-99754100D01*
X96057829Y-99779095D01*
X96077925Y-99806191D01*
X96095267Y-99835125D01*
X96109691Y-99865621D01*
X96121055Y-99897383D01*
X96129252Y-99930106D01*
X96134202Y-99963475D01*
X96135857Y-99997168D01*
X96135857Y-100684668D01*
X96134202Y-100718361D01*
X96129252Y-100751730D01*
X96121055Y-100784453D01*
X96109691Y-100816215D01*
X96095267Y-100846711D01*
X96077925Y-100875645D01*
X96057829Y-100902741D01*
X96035175Y-100927736D01*
X96010180Y-100950390D01*
X95983084Y-100970486D01*
X95954150Y-100987828D01*
X95923654Y-101002252D01*
X95891892Y-101013616D01*
X95859169Y-101021813D01*
X95825800Y-101026763D01*
X95792107Y-101028418D01*
X94679607Y-101028418D01*
X94645914Y-101026763D01*
X94612545Y-101021813D01*
X94579822Y-101013616D01*
X94548060Y-101002252D01*
X94517564Y-100987828D01*
X94488630Y-100970486D01*
X94461534Y-100950390D01*
X94436539Y-100927736D01*
X94413885Y-100902741D01*
X94393789Y-100875645D01*
X94376447Y-100846711D01*
X94362023Y-100816215D01*
X94350659Y-100784453D01*
X94342462Y-100751730D01*
X94337512Y-100718361D01*
X94335857Y-100684668D01*
X94335857Y-99997168D01*
X94337512Y-99963475D01*
X94342462Y-99930106D01*
X94350659Y-99897383D01*
X94362023Y-99865621D01*
X94376447Y-99835125D01*
X94393789Y-99806191D01*
X94413885Y-99779095D01*
X94436539Y-99754100D01*
X94461534Y-99731446D01*
X94488630Y-99711350D01*
X94517564Y-99694008D01*
X94548060Y-99679584D01*
X94579822Y-99668220D01*
X94612545Y-99660023D01*
X94645914Y-99655073D01*
X94679607Y-99653418D01*
X95792107Y-99653418D01*
X95825800Y-99655073D01*
X95825800Y-99655073D01*
G37*
D11*
X95235857Y-100340918D03*
G04 #@! TD*
D10*
G04 #@! TO.C,C5*
G36*
X93336600Y-103340373D02*
X93369969Y-103345323D01*
X93402692Y-103353520D01*
X93434454Y-103364884D01*
X93464950Y-103379308D01*
X93493884Y-103396650D01*
X93520980Y-103416746D01*
X93545975Y-103439400D01*
X93568629Y-103464395D01*
X93588725Y-103491491D01*
X93606067Y-103520425D01*
X93620491Y-103550921D01*
X93631855Y-103582683D01*
X93640052Y-103615406D01*
X93645002Y-103648775D01*
X93646657Y-103682468D01*
X93646657Y-104369968D01*
X93645002Y-104403661D01*
X93640052Y-104437030D01*
X93631855Y-104469753D01*
X93620491Y-104501515D01*
X93606067Y-104532011D01*
X93588725Y-104560945D01*
X93568629Y-104588041D01*
X93545975Y-104613036D01*
X93520980Y-104635690D01*
X93493884Y-104655786D01*
X93464950Y-104673128D01*
X93434454Y-104687552D01*
X93402692Y-104698916D01*
X93369969Y-104707113D01*
X93336600Y-104712063D01*
X93302907Y-104713718D01*
X92190407Y-104713718D01*
X92156714Y-104712063D01*
X92123345Y-104707113D01*
X92090622Y-104698916D01*
X92058860Y-104687552D01*
X92028364Y-104673128D01*
X91999430Y-104655786D01*
X91972334Y-104635690D01*
X91947339Y-104613036D01*
X91924685Y-104588041D01*
X91904589Y-104560945D01*
X91887247Y-104532011D01*
X91872823Y-104501515D01*
X91861459Y-104469753D01*
X91853262Y-104437030D01*
X91848312Y-104403661D01*
X91846657Y-104369968D01*
X91846657Y-103682468D01*
X91848312Y-103648775D01*
X91853262Y-103615406D01*
X91861459Y-103582683D01*
X91872823Y-103550921D01*
X91887247Y-103520425D01*
X91904589Y-103491491D01*
X91924685Y-103464395D01*
X91947339Y-103439400D01*
X91972334Y-103416746D01*
X91999430Y-103396650D01*
X92028364Y-103379308D01*
X92058860Y-103364884D01*
X92090622Y-103353520D01*
X92123345Y-103345323D01*
X92156714Y-103340373D01*
X92190407Y-103338718D01*
X93302907Y-103338718D01*
X93336600Y-103340373D01*
X93336600Y-103340373D01*
G37*
D11*
X92746657Y-104026218D03*
D10*
G36*
X93336600Y-101465373D02*
X93369969Y-101470323D01*
X93402692Y-101478520D01*
X93434454Y-101489884D01*
X93464950Y-101504308D01*
X93493884Y-101521650D01*
X93520980Y-101541746D01*
X93545975Y-101564400D01*
X93568629Y-101589395D01*
X93588725Y-101616491D01*
X93606067Y-101645425D01*
X93620491Y-101675921D01*
X93631855Y-101707683D01*
X93640052Y-101740406D01*
X93645002Y-101773775D01*
X93646657Y-101807468D01*
X93646657Y-102494968D01*
X93645002Y-102528661D01*
X93640052Y-102562030D01*
X93631855Y-102594753D01*
X93620491Y-102626515D01*
X93606067Y-102657011D01*
X93588725Y-102685945D01*
X93568629Y-102713041D01*
X93545975Y-102738036D01*
X93520980Y-102760690D01*
X93493884Y-102780786D01*
X93464950Y-102798128D01*
X93434454Y-102812552D01*
X93402692Y-102823916D01*
X93369969Y-102832113D01*
X93336600Y-102837063D01*
X93302907Y-102838718D01*
X92190407Y-102838718D01*
X92156714Y-102837063D01*
X92123345Y-102832113D01*
X92090622Y-102823916D01*
X92058860Y-102812552D01*
X92028364Y-102798128D01*
X91999430Y-102780786D01*
X91972334Y-102760690D01*
X91947339Y-102738036D01*
X91924685Y-102713041D01*
X91904589Y-102685945D01*
X91887247Y-102657011D01*
X91872823Y-102626515D01*
X91861459Y-102594753D01*
X91853262Y-102562030D01*
X91848312Y-102528661D01*
X91846657Y-102494968D01*
X91846657Y-101807468D01*
X91848312Y-101773775D01*
X91853262Y-101740406D01*
X91861459Y-101707683D01*
X91872823Y-101675921D01*
X91887247Y-101645425D01*
X91904589Y-101616491D01*
X91924685Y-101589395D01*
X91947339Y-101564400D01*
X91972334Y-101541746D01*
X91999430Y-101521650D01*
X92028364Y-101504308D01*
X92058860Y-101489884D01*
X92090622Y-101478520D01*
X92123345Y-101470323D01*
X92156714Y-101465373D01*
X92190407Y-101463718D01*
X93302907Y-101463718D01*
X93336600Y-101465373D01*
X93336600Y-101465373D01*
G37*
D11*
X92746657Y-102151218D03*
G04 #@! TD*
D10*
G04 #@! TO.C,C6*
G36*
X101517943Y-92141855D02*
X101551312Y-92146805D01*
X101584035Y-92155002D01*
X101615797Y-92166366D01*
X101646293Y-92180790D01*
X101675227Y-92198132D01*
X101702323Y-92218228D01*
X101727318Y-92240882D01*
X101749972Y-92265877D01*
X101770068Y-92292973D01*
X101787410Y-92321907D01*
X101801834Y-92352403D01*
X101813198Y-92384165D01*
X101821395Y-92416888D01*
X101826345Y-92450257D01*
X101828000Y-92483950D01*
X101828000Y-93596450D01*
X101826345Y-93630143D01*
X101821395Y-93663512D01*
X101813198Y-93696235D01*
X101801834Y-93727997D01*
X101787410Y-93758493D01*
X101770068Y-93787427D01*
X101749972Y-93814523D01*
X101727318Y-93839518D01*
X101702323Y-93862172D01*
X101675227Y-93882268D01*
X101646293Y-93899610D01*
X101615797Y-93914034D01*
X101584035Y-93925398D01*
X101551312Y-93933595D01*
X101517943Y-93938545D01*
X101484250Y-93940200D01*
X100796750Y-93940200D01*
X100763057Y-93938545D01*
X100729688Y-93933595D01*
X100696965Y-93925398D01*
X100665203Y-93914034D01*
X100634707Y-93899610D01*
X100605773Y-93882268D01*
X100578677Y-93862172D01*
X100553682Y-93839518D01*
X100531028Y-93814523D01*
X100510932Y-93787427D01*
X100493590Y-93758493D01*
X100479166Y-93727997D01*
X100467802Y-93696235D01*
X100459605Y-93663512D01*
X100454655Y-93630143D01*
X100453000Y-93596450D01*
X100453000Y-92483950D01*
X100454655Y-92450257D01*
X100459605Y-92416888D01*
X100467802Y-92384165D01*
X100479166Y-92352403D01*
X100493590Y-92321907D01*
X100510932Y-92292973D01*
X100531028Y-92265877D01*
X100553682Y-92240882D01*
X100578677Y-92218228D01*
X100605773Y-92198132D01*
X100634707Y-92180790D01*
X100665203Y-92166366D01*
X100696965Y-92155002D01*
X100729688Y-92146805D01*
X100763057Y-92141855D01*
X100796750Y-92140200D01*
X101484250Y-92140200D01*
X101517943Y-92141855D01*
X101517943Y-92141855D01*
G37*
D11*
X101140500Y-93040200D03*
D10*
G36*
X99642943Y-92141855D02*
X99676312Y-92146805D01*
X99709035Y-92155002D01*
X99740797Y-92166366D01*
X99771293Y-92180790D01*
X99800227Y-92198132D01*
X99827323Y-92218228D01*
X99852318Y-92240882D01*
X99874972Y-92265877D01*
X99895068Y-92292973D01*
X99912410Y-92321907D01*
X99926834Y-92352403D01*
X99938198Y-92384165D01*
X99946395Y-92416888D01*
X99951345Y-92450257D01*
X99953000Y-92483950D01*
X99953000Y-93596450D01*
X99951345Y-93630143D01*
X99946395Y-93663512D01*
X99938198Y-93696235D01*
X99926834Y-93727997D01*
X99912410Y-93758493D01*
X99895068Y-93787427D01*
X99874972Y-93814523D01*
X99852318Y-93839518D01*
X99827323Y-93862172D01*
X99800227Y-93882268D01*
X99771293Y-93899610D01*
X99740797Y-93914034D01*
X99709035Y-93925398D01*
X99676312Y-93933595D01*
X99642943Y-93938545D01*
X99609250Y-93940200D01*
X98921750Y-93940200D01*
X98888057Y-93938545D01*
X98854688Y-93933595D01*
X98821965Y-93925398D01*
X98790203Y-93914034D01*
X98759707Y-93899610D01*
X98730773Y-93882268D01*
X98703677Y-93862172D01*
X98678682Y-93839518D01*
X98656028Y-93814523D01*
X98635932Y-93787427D01*
X98618590Y-93758493D01*
X98604166Y-93727997D01*
X98592802Y-93696235D01*
X98584605Y-93663512D01*
X98579655Y-93630143D01*
X98578000Y-93596450D01*
X98578000Y-92483950D01*
X98579655Y-92450257D01*
X98584605Y-92416888D01*
X98592802Y-92384165D01*
X98604166Y-92352403D01*
X98618590Y-92321907D01*
X98635932Y-92292973D01*
X98656028Y-92265877D01*
X98678682Y-92240882D01*
X98703677Y-92218228D01*
X98730773Y-92198132D01*
X98759707Y-92180790D01*
X98790203Y-92166366D01*
X98821965Y-92155002D01*
X98854688Y-92146805D01*
X98888057Y-92141855D01*
X98921750Y-92140200D01*
X99609250Y-92140200D01*
X99642943Y-92141855D01*
X99642943Y-92141855D01*
G37*
D11*
X99265500Y-93040200D03*
G04 #@! TD*
D10*
G04 #@! TO.C,C7*
G36*
X97517443Y-107940655D02*
X97550812Y-107945605D01*
X97583535Y-107953802D01*
X97615297Y-107965166D01*
X97645793Y-107979590D01*
X97674727Y-107996932D01*
X97701823Y-108017028D01*
X97726818Y-108039682D01*
X97749472Y-108064677D01*
X97769568Y-108091773D01*
X97786910Y-108120707D01*
X97801334Y-108151203D01*
X97812698Y-108182965D01*
X97820895Y-108215688D01*
X97825845Y-108249057D01*
X97827500Y-108282750D01*
X97827500Y-109395250D01*
X97825845Y-109428943D01*
X97820895Y-109462312D01*
X97812698Y-109495035D01*
X97801334Y-109526797D01*
X97786910Y-109557293D01*
X97769568Y-109586227D01*
X97749472Y-109613323D01*
X97726818Y-109638318D01*
X97701823Y-109660972D01*
X97674727Y-109681068D01*
X97645793Y-109698410D01*
X97615297Y-109712834D01*
X97583535Y-109724198D01*
X97550812Y-109732395D01*
X97517443Y-109737345D01*
X97483750Y-109739000D01*
X96796250Y-109739000D01*
X96762557Y-109737345D01*
X96729188Y-109732395D01*
X96696465Y-109724198D01*
X96664703Y-109712834D01*
X96634207Y-109698410D01*
X96605273Y-109681068D01*
X96578177Y-109660972D01*
X96553182Y-109638318D01*
X96530528Y-109613323D01*
X96510432Y-109586227D01*
X96493090Y-109557293D01*
X96478666Y-109526797D01*
X96467302Y-109495035D01*
X96459105Y-109462312D01*
X96454155Y-109428943D01*
X96452500Y-109395250D01*
X96452500Y-108282750D01*
X96454155Y-108249057D01*
X96459105Y-108215688D01*
X96467302Y-108182965D01*
X96478666Y-108151203D01*
X96493090Y-108120707D01*
X96510432Y-108091773D01*
X96530528Y-108064677D01*
X96553182Y-108039682D01*
X96578177Y-108017028D01*
X96605273Y-107996932D01*
X96634207Y-107979590D01*
X96664703Y-107965166D01*
X96696465Y-107953802D01*
X96729188Y-107945605D01*
X96762557Y-107940655D01*
X96796250Y-107939000D01*
X97483750Y-107939000D01*
X97517443Y-107940655D01*
X97517443Y-107940655D01*
G37*
D11*
X97140000Y-108839000D03*
D10*
G36*
X95642443Y-107940655D02*
X95675812Y-107945605D01*
X95708535Y-107953802D01*
X95740297Y-107965166D01*
X95770793Y-107979590D01*
X95799727Y-107996932D01*
X95826823Y-108017028D01*
X95851818Y-108039682D01*
X95874472Y-108064677D01*
X95894568Y-108091773D01*
X95911910Y-108120707D01*
X95926334Y-108151203D01*
X95937698Y-108182965D01*
X95945895Y-108215688D01*
X95950845Y-108249057D01*
X95952500Y-108282750D01*
X95952500Y-109395250D01*
X95950845Y-109428943D01*
X95945895Y-109462312D01*
X95937698Y-109495035D01*
X95926334Y-109526797D01*
X95911910Y-109557293D01*
X95894568Y-109586227D01*
X95874472Y-109613323D01*
X95851818Y-109638318D01*
X95826823Y-109660972D01*
X95799727Y-109681068D01*
X95770793Y-109698410D01*
X95740297Y-109712834D01*
X95708535Y-109724198D01*
X95675812Y-109732395D01*
X95642443Y-109737345D01*
X95608750Y-109739000D01*
X94921250Y-109739000D01*
X94887557Y-109737345D01*
X94854188Y-109732395D01*
X94821465Y-109724198D01*
X94789703Y-109712834D01*
X94759207Y-109698410D01*
X94730273Y-109681068D01*
X94703177Y-109660972D01*
X94678182Y-109638318D01*
X94655528Y-109613323D01*
X94635432Y-109586227D01*
X94618090Y-109557293D01*
X94603666Y-109526797D01*
X94592302Y-109495035D01*
X94584105Y-109462312D01*
X94579155Y-109428943D01*
X94577500Y-109395250D01*
X94577500Y-108282750D01*
X94579155Y-108249057D01*
X94584105Y-108215688D01*
X94592302Y-108182965D01*
X94603666Y-108151203D01*
X94618090Y-108120707D01*
X94635432Y-108091773D01*
X94655528Y-108064677D01*
X94678182Y-108039682D01*
X94703177Y-108017028D01*
X94730273Y-107996932D01*
X94759207Y-107979590D01*
X94789703Y-107965166D01*
X94821465Y-107953802D01*
X94854188Y-107945605D01*
X94887557Y-107940655D01*
X94921250Y-107939000D01*
X95608750Y-107939000D01*
X95642443Y-107940655D01*
X95642443Y-107940655D01*
G37*
D11*
X95265000Y-108839000D03*
G04 #@! TD*
D10*
G04 #@! TO.C,C8*
G36*
X109518943Y-105222855D02*
X109552312Y-105227805D01*
X109585035Y-105236002D01*
X109616797Y-105247366D01*
X109647293Y-105261790D01*
X109676227Y-105279132D01*
X109703323Y-105299228D01*
X109728318Y-105321882D01*
X109750972Y-105346877D01*
X109771068Y-105373973D01*
X109788410Y-105402907D01*
X109802834Y-105433403D01*
X109814198Y-105465165D01*
X109822395Y-105497888D01*
X109827345Y-105531257D01*
X109829000Y-105564950D01*
X109829000Y-106677450D01*
X109827345Y-106711143D01*
X109822395Y-106744512D01*
X109814198Y-106777235D01*
X109802834Y-106808997D01*
X109788410Y-106839493D01*
X109771068Y-106868427D01*
X109750972Y-106895523D01*
X109728318Y-106920518D01*
X109703323Y-106943172D01*
X109676227Y-106963268D01*
X109647293Y-106980610D01*
X109616797Y-106995034D01*
X109585035Y-107006398D01*
X109552312Y-107014595D01*
X109518943Y-107019545D01*
X109485250Y-107021200D01*
X108797750Y-107021200D01*
X108764057Y-107019545D01*
X108730688Y-107014595D01*
X108697965Y-107006398D01*
X108666203Y-106995034D01*
X108635707Y-106980610D01*
X108606773Y-106963268D01*
X108579677Y-106943172D01*
X108554682Y-106920518D01*
X108532028Y-106895523D01*
X108511932Y-106868427D01*
X108494590Y-106839493D01*
X108480166Y-106808997D01*
X108468802Y-106777235D01*
X108460605Y-106744512D01*
X108455655Y-106711143D01*
X108454000Y-106677450D01*
X108454000Y-105564950D01*
X108455655Y-105531257D01*
X108460605Y-105497888D01*
X108468802Y-105465165D01*
X108480166Y-105433403D01*
X108494590Y-105402907D01*
X108511932Y-105373973D01*
X108532028Y-105346877D01*
X108554682Y-105321882D01*
X108579677Y-105299228D01*
X108606773Y-105279132D01*
X108635707Y-105261790D01*
X108666203Y-105247366D01*
X108697965Y-105236002D01*
X108730688Y-105227805D01*
X108764057Y-105222855D01*
X108797750Y-105221200D01*
X109485250Y-105221200D01*
X109518943Y-105222855D01*
X109518943Y-105222855D01*
G37*
D11*
X109141500Y-106121200D03*
D10*
G36*
X107643943Y-105222855D02*
X107677312Y-105227805D01*
X107710035Y-105236002D01*
X107741797Y-105247366D01*
X107772293Y-105261790D01*
X107801227Y-105279132D01*
X107828323Y-105299228D01*
X107853318Y-105321882D01*
X107875972Y-105346877D01*
X107896068Y-105373973D01*
X107913410Y-105402907D01*
X107927834Y-105433403D01*
X107939198Y-105465165D01*
X107947395Y-105497888D01*
X107952345Y-105531257D01*
X107954000Y-105564950D01*
X107954000Y-106677450D01*
X107952345Y-106711143D01*
X107947395Y-106744512D01*
X107939198Y-106777235D01*
X107927834Y-106808997D01*
X107913410Y-106839493D01*
X107896068Y-106868427D01*
X107875972Y-106895523D01*
X107853318Y-106920518D01*
X107828323Y-106943172D01*
X107801227Y-106963268D01*
X107772293Y-106980610D01*
X107741797Y-106995034D01*
X107710035Y-107006398D01*
X107677312Y-107014595D01*
X107643943Y-107019545D01*
X107610250Y-107021200D01*
X106922750Y-107021200D01*
X106889057Y-107019545D01*
X106855688Y-107014595D01*
X106822965Y-107006398D01*
X106791203Y-106995034D01*
X106760707Y-106980610D01*
X106731773Y-106963268D01*
X106704677Y-106943172D01*
X106679682Y-106920518D01*
X106657028Y-106895523D01*
X106636932Y-106868427D01*
X106619590Y-106839493D01*
X106605166Y-106808997D01*
X106593802Y-106777235D01*
X106585605Y-106744512D01*
X106580655Y-106711143D01*
X106579000Y-106677450D01*
X106579000Y-105564950D01*
X106580655Y-105531257D01*
X106585605Y-105497888D01*
X106593802Y-105465165D01*
X106605166Y-105433403D01*
X106619590Y-105402907D01*
X106636932Y-105373973D01*
X106657028Y-105346877D01*
X106679682Y-105321882D01*
X106704677Y-105299228D01*
X106731773Y-105279132D01*
X106760707Y-105261790D01*
X106791203Y-105247366D01*
X106822965Y-105236002D01*
X106855688Y-105227805D01*
X106889057Y-105222855D01*
X106922750Y-105221200D01*
X107610250Y-105221200D01*
X107643943Y-105222855D01*
X107643943Y-105222855D01*
G37*
D11*
X107266500Y-106121200D03*
G04 #@! TD*
D12*
G04 #@! TO.C,Q1*
X102759000Y-91302800D03*
X102759000Y-93202800D03*
X104759000Y-92252800D03*
G04 #@! TD*
D10*
G04 #@! TO.C,R1*
G36*
X96601943Y-91289855D02*
X96635312Y-91294805D01*
X96668035Y-91303002D01*
X96699797Y-91314366D01*
X96730293Y-91328790D01*
X96759227Y-91346132D01*
X96786323Y-91366228D01*
X96811318Y-91388882D01*
X96833972Y-91413877D01*
X96854068Y-91440973D01*
X96871410Y-91469907D01*
X96885834Y-91500403D01*
X96897198Y-91532165D01*
X96905395Y-91564888D01*
X96910345Y-91598257D01*
X96912000Y-91631950D01*
X96912000Y-92319450D01*
X96910345Y-92353143D01*
X96905395Y-92386512D01*
X96897198Y-92419235D01*
X96885834Y-92450997D01*
X96871410Y-92481493D01*
X96854068Y-92510427D01*
X96833972Y-92537523D01*
X96811318Y-92562518D01*
X96786323Y-92585172D01*
X96759227Y-92605268D01*
X96730293Y-92622610D01*
X96699797Y-92637034D01*
X96668035Y-92648398D01*
X96635312Y-92656595D01*
X96601943Y-92661545D01*
X96568250Y-92663200D01*
X95455750Y-92663200D01*
X95422057Y-92661545D01*
X95388688Y-92656595D01*
X95355965Y-92648398D01*
X95324203Y-92637034D01*
X95293707Y-92622610D01*
X95264773Y-92605268D01*
X95237677Y-92585172D01*
X95212682Y-92562518D01*
X95190028Y-92537523D01*
X95169932Y-92510427D01*
X95152590Y-92481493D01*
X95138166Y-92450997D01*
X95126802Y-92419235D01*
X95118605Y-92386512D01*
X95113655Y-92353143D01*
X95112000Y-92319450D01*
X95112000Y-91631950D01*
X95113655Y-91598257D01*
X95118605Y-91564888D01*
X95126802Y-91532165D01*
X95138166Y-91500403D01*
X95152590Y-91469907D01*
X95169932Y-91440973D01*
X95190028Y-91413877D01*
X95212682Y-91388882D01*
X95237677Y-91366228D01*
X95264773Y-91346132D01*
X95293707Y-91328790D01*
X95324203Y-91314366D01*
X95355965Y-91303002D01*
X95388688Y-91294805D01*
X95422057Y-91289855D01*
X95455750Y-91288200D01*
X96568250Y-91288200D01*
X96601943Y-91289855D01*
X96601943Y-91289855D01*
G37*
D11*
X96012000Y-91975700D03*
D10*
G36*
X96601943Y-93164855D02*
X96635312Y-93169805D01*
X96668035Y-93178002D01*
X96699797Y-93189366D01*
X96730293Y-93203790D01*
X96759227Y-93221132D01*
X96786323Y-93241228D01*
X96811318Y-93263882D01*
X96833972Y-93288877D01*
X96854068Y-93315973D01*
X96871410Y-93344907D01*
X96885834Y-93375403D01*
X96897198Y-93407165D01*
X96905395Y-93439888D01*
X96910345Y-93473257D01*
X96912000Y-93506950D01*
X96912000Y-94194450D01*
X96910345Y-94228143D01*
X96905395Y-94261512D01*
X96897198Y-94294235D01*
X96885834Y-94325997D01*
X96871410Y-94356493D01*
X96854068Y-94385427D01*
X96833972Y-94412523D01*
X96811318Y-94437518D01*
X96786323Y-94460172D01*
X96759227Y-94480268D01*
X96730293Y-94497610D01*
X96699797Y-94512034D01*
X96668035Y-94523398D01*
X96635312Y-94531595D01*
X96601943Y-94536545D01*
X96568250Y-94538200D01*
X95455750Y-94538200D01*
X95422057Y-94536545D01*
X95388688Y-94531595D01*
X95355965Y-94523398D01*
X95324203Y-94512034D01*
X95293707Y-94497610D01*
X95264773Y-94480268D01*
X95237677Y-94460172D01*
X95212682Y-94437518D01*
X95190028Y-94412523D01*
X95169932Y-94385427D01*
X95152590Y-94356493D01*
X95138166Y-94325997D01*
X95126802Y-94294235D01*
X95118605Y-94261512D01*
X95113655Y-94228143D01*
X95112000Y-94194450D01*
X95112000Y-93506950D01*
X95113655Y-93473257D01*
X95118605Y-93439888D01*
X95126802Y-93407165D01*
X95138166Y-93375403D01*
X95152590Y-93344907D01*
X95169932Y-93315973D01*
X95190028Y-93288877D01*
X95212682Y-93263882D01*
X95237677Y-93241228D01*
X95264773Y-93221132D01*
X95293707Y-93203790D01*
X95324203Y-93189366D01*
X95355965Y-93178002D01*
X95388688Y-93169805D01*
X95422057Y-93164855D01*
X95455750Y-93163200D01*
X96568250Y-93163200D01*
X96601943Y-93164855D01*
X96601943Y-93164855D01*
G37*
D11*
X96012000Y-93850700D03*
G04 #@! TD*
D10*
G04 #@! TO.C,R2*
G36*
X94544543Y-93164855D02*
X94577912Y-93169805D01*
X94610635Y-93178002D01*
X94642397Y-93189366D01*
X94672893Y-93203790D01*
X94701827Y-93221132D01*
X94728923Y-93241228D01*
X94753918Y-93263882D01*
X94776572Y-93288877D01*
X94796668Y-93315973D01*
X94814010Y-93344907D01*
X94828434Y-93375403D01*
X94839798Y-93407165D01*
X94847995Y-93439888D01*
X94852945Y-93473257D01*
X94854600Y-93506950D01*
X94854600Y-94194450D01*
X94852945Y-94228143D01*
X94847995Y-94261512D01*
X94839798Y-94294235D01*
X94828434Y-94325997D01*
X94814010Y-94356493D01*
X94796668Y-94385427D01*
X94776572Y-94412523D01*
X94753918Y-94437518D01*
X94728923Y-94460172D01*
X94701827Y-94480268D01*
X94672893Y-94497610D01*
X94642397Y-94512034D01*
X94610635Y-94523398D01*
X94577912Y-94531595D01*
X94544543Y-94536545D01*
X94510850Y-94538200D01*
X93398350Y-94538200D01*
X93364657Y-94536545D01*
X93331288Y-94531595D01*
X93298565Y-94523398D01*
X93266803Y-94512034D01*
X93236307Y-94497610D01*
X93207373Y-94480268D01*
X93180277Y-94460172D01*
X93155282Y-94437518D01*
X93132628Y-94412523D01*
X93112532Y-94385427D01*
X93095190Y-94356493D01*
X93080766Y-94325997D01*
X93069402Y-94294235D01*
X93061205Y-94261512D01*
X93056255Y-94228143D01*
X93054600Y-94194450D01*
X93054600Y-93506950D01*
X93056255Y-93473257D01*
X93061205Y-93439888D01*
X93069402Y-93407165D01*
X93080766Y-93375403D01*
X93095190Y-93344907D01*
X93112532Y-93315973D01*
X93132628Y-93288877D01*
X93155282Y-93263882D01*
X93180277Y-93241228D01*
X93207373Y-93221132D01*
X93236307Y-93203790D01*
X93266803Y-93189366D01*
X93298565Y-93178002D01*
X93331288Y-93169805D01*
X93364657Y-93164855D01*
X93398350Y-93163200D01*
X94510850Y-93163200D01*
X94544543Y-93164855D01*
X94544543Y-93164855D01*
G37*
D11*
X93954600Y-93850700D03*
D10*
G36*
X94544543Y-91289855D02*
X94577912Y-91294805D01*
X94610635Y-91303002D01*
X94642397Y-91314366D01*
X94672893Y-91328790D01*
X94701827Y-91346132D01*
X94728923Y-91366228D01*
X94753918Y-91388882D01*
X94776572Y-91413877D01*
X94796668Y-91440973D01*
X94814010Y-91469907D01*
X94828434Y-91500403D01*
X94839798Y-91532165D01*
X94847995Y-91564888D01*
X94852945Y-91598257D01*
X94854600Y-91631950D01*
X94854600Y-92319450D01*
X94852945Y-92353143D01*
X94847995Y-92386512D01*
X94839798Y-92419235D01*
X94828434Y-92450997D01*
X94814010Y-92481493D01*
X94796668Y-92510427D01*
X94776572Y-92537523D01*
X94753918Y-92562518D01*
X94728923Y-92585172D01*
X94701827Y-92605268D01*
X94672893Y-92622610D01*
X94642397Y-92637034D01*
X94610635Y-92648398D01*
X94577912Y-92656595D01*
X94544543Y-92661545D01*
X94510850Y-92663200D01*
X93398350Y-92663200D01*
X93364657Y-92661545D01*
X93331288Y-92656595D01*
X93298565Y-92648398D01*
X93266803Y-92637034D01*
X93236307Y-92622610D01*
X93207373Y-92605268D01*
X93180277Y-92585172D01*
X93155282Y-92562518D01*
X93132628Y-92537523D01*
X93112532Y-92510427D01*
X93095190Y-92481493D01*
X93080766Y-92450997D01*
X93069402Y-92419235D01*
X93061205Y-92386512D01*
X93056255Y-92353143D01*
X93054600Y-92319450D01*
X93054600Y-91631950D01*
X93056255Y-91598257D01*
X93061205Y-91564888D01*
X93069402Y-91532165D01*
X93080766Y-91500403D01*
X93095190Y-91469907D01*
X93112532Y-91440973D01*
X93132628Y-91413877D01*
X93155282Y-91388882D01*
X93180277Y-91366228D01*
X93207373Y-91346132D01*
X93236307Y-91328790D01*
X93266803Y-91314366D01*
X93298565Y-91303002D01*
X93331288Y-91294805D01*
X93364657Y-91289855D01*
X93398350Y-91288200D01*
X94510850Y-91288200D01*
X94544543Y-91289855D01*
X94544543Y-91289855D01*
G37*
D11*
X93954600Y-91975700D03*
G04 #@! TD*
D10*
G04 #@! TO.C,R3*
G36*
X110458743Y-97094855D02*
X110492112Y-97099805D01*
X110524835Y-97108002D01*
X110556597Y-97119366D01*
X110587093Y-97133790D01*
X110616027Y-97151132D01*
X110643123Y-97171228D01*
X110668118Y-97193882D01*
X110690772Y-97218877D01*
X110710868Y-97245973D01*
X110728210Y-97274907D01*
X110742634Y-97305403D01*
X110753998Y-97337165D01*
X110762195Y-97369888D01*
X110767145Y-97403257D01*
X110768800Y-97436950D01*
X110768800Y-98549450D01*
X110767145Y-98583143D01*
X110762195Y-98616512D01*
X110753998Y-98649235D01*
X110742634Y-98680997D01*
X110728210Y-98711493D01*
X110710868Y-98740427D01*
X110690772Y-98767523D01*
X110668118Y-98792518D01*
X110643123Y-98815172D01*
X110616027Y-98835268D01*
X110587093Y-98852610D01*
X110556597Y-98867034D01*
X110524835Y-98878398D01*
X110492112Y-98886595D01*
X110458743Y-98891545D01*
X110425050Y-98893200D01*
X109737550Y-98893200D01*
X109703857Y-98891545D01*
X109670488Y-98886595D01*
X109637765Y-98878398D01*
X109606003Y-98867034D01*
X109575507Y-98852610D01*
X109546573Y-98835268D01*
X109519477Y-98815172D01*
X109494482Y-98792518D01*
X109471828Y-98767523D01*
X109451732Y-98740427D01*
X109434390Y-98711493D01*
X109419966Y-98680997D01*
X109408602Y-98649235D01*
X109400405Y-98616512D01*
X109395455Y-98583143D01*
X109393800Y-98549450D01*
X109393800Y-97436950D01*
X109395455Y-97403257D01*
X109400405Y-97369888D01*
X109408602Y-97337165D01*
X109419966Y-97305403D01*
X109434390Y-97274907D01*
X109451732Y-97245973D01*
X109471828Y-97218877D01*
X109494482Y-97193882D01*
X109519477Y-97171228D01*
X109546573Y-97151132D01*
X109575507Y-97133790D01*
X109606003Y-97119366D01*
X109637765Y-97108002D01*
X109670488Y-97099805D01*
X109703857Y-97094855D01*
X109737550Y-97093200D01*
X110425050Y-97093200D01*
X110458743Y-97094855D01*
X110458743Y-97094855D01*
G37*
D11*
X110081300Y-97993200D03*
D10*
G36*
X108583743Y-97094855D02*
X108617112Y-97099805D01*
X108649835Y-97108002D01*
X108681597Y-97119366D01*
X108712093Y-97133790D01*
X108741027Y-97151132D01*
X108768123Y-97171228D01*
X108793118Y-97193882D01*
X108815772Y-97218877D01*
X108835868Y-97245973D01*
X108853210Y-97274907D01*
X108867634Y-97305403D01*
X108878998Y-97337165D01*
X108887195Y-97369888D01*
X108892145Y-97403257D01*
X108893800Y-97436950D01*
X108893800Y-98549450D01*
X108892145Y-98583143D01*
X108887195Y-98616512D01*
X108878998Y-98649235D01*
X108867634Y-98680997D01*
X108853210Y-98711493D01*
X108835868Y-98740427D01*
X108815772Y-98767523D01*
X108793118Y-98792518D01*
X108768123Y-98815172D01*
X108741027Y-98835268D01*
X108712093Y-98852610D01*
X108681597Y-98867034D01*
X108649835Y-98878398D01*
X108617112Y-98886595D01*
X108583743Y-98891545D01*
X108550050Y-98893200D01*
X107862550Y-98893200D01*
X107828857Y-98891545D01*
X107795488Y-98886595D01*
X107762765Y-98878398D01*
X107731003Y-98867034D01*
X107700507Y-98852610D01*
X107671573Y-98835268D01*
X107644477Y-98815172D01*
X107619482Y-98792518D01*
X107596828Y-98767523D01*
X107576732Y-98740427D01*
X107559390Y-98711493D01*
X107544966Y-98680997D01*
X107533602Y-98649235D01*
X107525405Y-98616512D01*
X107520455Y-98583143D01*
X107518800Y-98549450D01*
X107518800Y-97436950D01*
X107520455Y-97403257D01*
X107525405Y-97369888D01*
X107533602Y-97337165D01*
X107544966Y-97305403D01*
X107559390Y-97274907D01*
X107576732Y-97245973D01*
X107596828Y-97218877D01*
X107619482Y-97193882D01*
X107644477Y-97171228D01*
X107671573Y-97151132D01*
X107700507Y-97133790D01*
X107731003Y-97119366D01*
X107762765Y-97108002D01*
X107795488Y-97099805D01*
X107828857Y-97094855D01*
X107862550Y-97093200D01*
X108550050Y-97093200D01*
X108583743Y-97094855D01*
X108583743Y-97094855D01*
G37*
D11*
X108206300Y-97993200D03*
G04 #@! TD*
D10*
G04 #@! TO.C,R4*
G36*
X108768543Y-93448855D02*
X108801912Y-93453805D01*
X108834635Y-93462002D01*
X108866397Y-93473366D01*
X108896893Y-93487790D01*
X108925827Y-93505132D01*
X108952923Y-93525228D01*
X108977918Y-93547882D01*
X109000572Y-93572877D01*
X109020668Y-93599973D01*
X109038010Y-93628907D01*
X109052434Y-93659403D01*
X109063798Y-93691165D01*
X109071995Y-93723888D01*
X109076945Y-93757257D01*
X109078600Y-93790950D01*
X109078600Y-94478450D01*
X109076945Y-94512143D01*
X109071995Y-94545512D01*
X109063798Y-94578235D01*
X109052434Y-94609997D01*
X109038010Y-94640493D01*
X109020668Y-94669427D01*
X109000572Y-94696523D01*
X108977918Y-94721518D01*
X108952923Y-94744172D01*
X108925827Y-94764268D01*
X108896893Y-94781610D01*
X108866397Y-94796034D01*
X108834635Y-94807398D01*
X108801912Y-94815595D01*
X108768543Y-94820545D01*
X108734850Y-94822200D01*
X107622350Y-94822200D01*
X107588657Y-94820545D01*
X107555288Y-94815595D01*
X107522565Y-94807398D01*
X107490803Y-94796034D01*
X107460307Y-94781610D01*
X107431373Y-94764268D01*
X107404277Y-94744172D01*
X107379282Y-94721518D01*
X107356628Y-94696523D01*
X107336532Y-94669427D01*
X107319190Y-94640493D01*
X107304766Y-94609997D01*
X107293402Y-94578235D01*
X107285205Y-94545512D01*
X107280255Y-94512143D01*
X107278600Y-94478450D01*
X107278600Y-93790950D01*
X107280255Y-93757257D01*
X107285205Y-93723888D01*
X107293402Y-93691165D01*
X107304766Y-93659403D01*
X107319190Y-93628907D01*
X107336532Y-93599973D01*
X107356628Y-93572877D01*
X107379282Y-93547882D01*
X107404277Y-93525228D01*
X107431373Y-93505132D01*
X107460307Y-93487790D01*
X107490803Y-93473366D01*
X107522565Y-93462002D01*
X107555288Y-93453805D01*
X107588657Y-93448855D01*
X107622350Y-93447200D01*
X108734850Y-93447200D01*
X108768543Y-93448855D01*
X108768543Y-93448855D01*
G37*
D11*
X108178600Y-94134700D03*
D10*
G36*
X108768543Y-95323855D02*
X108801912Y-95328805D01*
X108834635Y-95337002D01*
X108866397Y-95348366D01*
X108896893Y-95362790D01*
X108925827Y-95380132D01*
X108952923Y-95400228D01*
X108977918Y-95422882D01*
X109000572Y-95447877D01*
X109020668Y-95474973D01*
X109038010Y-95503907D01*
X109052434Y-95534403D01*
X109063798Y-95566165D01*
X109071995Y-95598888D01*
X109076945Y-95632257D01*
X109078600Y-95665950D01*
X109078600Y-96353450D01*
X109076945Y-96387143D01*
X109071995Y-96420512D01*
X109063798Y-96453235D01*
X109052434Y-96484997D01*
X109038010Y-96515493D01*
X109020668Y-96544427D01*
X109000572Y-96571523D01*
X108977918Y-96596518D01*
X108952923Y-96619172D01*
X108925827Y-96639268D01*
X108896893Y-96656610D01*
X108866397Y-96671034D01*
X108834635Y-96682398D01*
X108801912Y-96690595D01*
X108768543Y-96695545D01*
X108734850Y-96697200D01*
X107622350Y-96697200D01*
X107588657Y-96695545D01*
X107555288Y-96690595D01*
X107522565Y-96682398D01*
X107490803Y-96671034D01*
X107460307Y-96656610D01*
X107431373Y-96639268D01*
X107404277Y-96619172D01*
X107379282Y-96596518D01*
X107356628Y-96571523D01*
X107336532Y-96544427D01*
X107319190Y-96515493D01*
X107304766Y-96484997D01*
X107293402Y-96453235D01*
X107285205Y-96420512D01*
X107280255Y-96387143D01*
X107278600Y-96353450D01*
X107278600Y-95665950D01*
X107280255Y-95632257D01*
X107285205Y-95598888D01*
X107293402Y-95566165D01*
X107304766Y-95534403D01*
X107319190Y-95503907D01*
X107336532Y-95474973D01*
X107356628Y-95447877D01*
X107379282Y-95422882D01*
X107404277Y-95400228D01*
X107431373Y-95380132D01*
X107460307Y-95362790D01*
X107490803Y-95348366D01*
X107522565Y-95337002D01*
X107555288Y-95328805D01*
X107588657Y-95323855D01*
X107622350Y-95322200D01*
X108734850Y-95322200D01*
X108768543Y-95323855D01*
X108768543Y-95323855D01*
G37*
D11*
X108178600Y-96009700D03*
G04 #@! TD*
D10*
G04 #@! TO.C,R5*
G36*
X90796600Y-99756673D02*
X90829969Y-99761623D01*
X90862692Y-99769820D01*
X90894454Y-99781184D01*
X90924950Y-99795608D01*
X90953884Y-99812950D01*
X90980980Y-99833046D01*
X91005975Y-99855700D01*
X91028629Y-99880695D01*
X91048725Y-99907791D01*
X91066067Y-99936725D01*
X91080491Y-99967221D01*
X91091855Y-99998983D01*
X91100052Y-100031706D01*
X91105002Y-100065075D01*
X91106657Y-100098768D01*
X91106657Y-100786268D01*
X91105002Y-100819961D01*
X91100052Y-100853330D01*
X91091855Y-100886053D01*
X91080491Y-100917815D01*
X91066067Y-100948311D01*
X91048725Y-100977245D01*
X91028629Y-101004341D01*
X91005975Y-101029336D01*
X90980980Y-101051990D01*
X90953884Y-101072086D01*
X90924950Y-101089428D01*
X90894454Y-101103852D01*
X90862692Y-101115216D01*
X90829969Y-101123413D01*
X90796600Y-101128363D01*
X90762907Y-101130018D01*
X89650407Y-101130018D01*
X89616714Y-101128363D01*
X89583345Y-101123413D01*
X89550622Y-101115216D01*
X89518860Y-101103852D01*
X89488364Y-101089428D01*
X89459430Y-101072086D01*
X89432334Y-101051990D01*
X89407339Y-101029336D01*
X89384685Y-101004341D01*
X89364589Y-100977245D01*
X89347247Y-100948311D01*
X89332823Y-100917815D01*
X89321459Y-100886053D01*
X89313262Y-100853330D01*
X89308312Y-100819961D01*
X89306657Y-100786268D01*
X89306657Y-100098768D01*
X89308312Y-100065075D01*
X89313262Y-100031706D01*
X89321459Y-99998983D01*
X89332823Y-99967221D01*
X89347247Y-99936725D01*
X89364589Y-99907791D01*
X89384685Y-99880695D01*
X89407339Y-99855700D01*
X89432334Y-99833046D01*
X89459430Y-99812950D01*
X89488364Y-99795608D01*
X89518860Y-99781184D01*
X89550622Y-99769820D01*
X89583345Y-99761623D01*
X89616714Y-99756673D01*
X89650407Y-99755018D01*
X90762907Y-99755018D01*
X90796600Y-99756673D01*
X90796600Y-99756673D01*
G37*
D11*
X90206657Y-100442518D03*
D10*
G36*
X90796600Y-97881673D02*
X90829969Y-97886623D01*
X90862692Y-97894820D01*
X90894454Y-97906184D01*
X90924950Y-97920608D01*
X90953884Y-97937950D01*
X90980980Y-97958046D01*
X91005975Y-97980700D01*
X91028629Y-98005695D01*
X91048725Y-98032791D01*
X91066067Y-98061725D01*
X91080491Y-98092221D01*
X91091855Y-98123983D01*
X91100052Y-98156706D01*
X91105002Y-98190075D01*
X91106657Y-98223768D01*
X91106657Y-98911268D01*
X91105002Y-98944961D01*
X91100052Y-98978330D01*
X91091855Y-99011053D01*
X91080491Y-99042815D01*
X91066067Y-99073311D01*
X91048725Y-99102245D01*
X91028629Y-99129341D01*
X91005975Y-99154336D01*
X90980980Y-99176990D01*
X90953884Y-99197086D01*
X90924950Y-99214428D01*
X90894454Y-99228852D01*
X90862692Y-99240216D01*
X90829969Y-99248413D01*
X90796600Y-99253363D01*
X90762907Y-99255018D01*
X89650407Y-99255018D01*
X89616714Y-99253363D01*
X89583345Y-99248413D01*
X89550622Y-99240216D01*
X89518860Y-99228852D01*
X89488364Y-99214428D01*
X89459430Y-99197086D01*
X89432334Y-99176990D01*
X89407339Y-99154336D01*
X89384685Y-99129341D01*
X89364589Y-99102245D01*
X89347247Y-99073311D01*
X89332823Y-99042815D01*
X89321459Y-99011053D01*
X89313262Y-98978330D01*
X89308312Y-98944961D01*
X89306657Y-98911268D01*
X89306657Y-98223768D01*
X89308312Y-98190075D01*
X89313262Y-98156706D01*
X89321459Y-98123983D01*
X89332823Y-98092221D01*
X89347247Y-98061725D01*
X89364589Y-98032791D01*
X89384685Y-98005695D01*
X89407339Y-97980700D01*
X89432334Y-97958046D01*
X89459430Y-97937950D01*
X89488364Y-97920608D01*
X89518860Y-97906184D01*
X89550622Y-97894820D01*
X89583345Y-97886623D01*
X89616714Y-97881673D01*
X89650407Y-97880018D01*
X90762907Y-97880018D01*
X90796600Y-97881673D01*
X90796600Y-97881673D01*
G37*
D11*
X90206657Y-98567518D03*
G04 #@! TD*
D10*
G04 #@! TO.C,R6*
G36*
X93387400Y-99782073D02*
X93420769Y-99787023D01*
X93453492Y-99795220D01*
X93485254Y-99806584D01*
X93515750Y-99821008D01*
X93544684Y-99838350D01*
X93571780Y-99858446D01*
X93596775Y-99881100D01*
X93619429Y-99906095D01*
X93639525Y-99933191D01*
X93656867Y-99962125D01*
X93671291Y-99992621D01*
X93682655Y-100024383D01*
X93690852Y-100057106D01*
X93695802Y-100090475D01*
X93697457Y-100124168D01*
X93697457Y-100811668D01*
X93695802Y-100845361D01*
X93690852Y-100878730D01*
X93682655Y-100911453D01*
X93671291Y-100943215D01*
X93656867Y-100973711D01*
X93639525Y-101002645D01*
X93619429Y-101029741D01*
X93596775Y-101054736D01*
X93571780Y-101077390D01*
X93544684Y-101097486D01*
X93515750Y-101114828D01*
X93485254Y-101129252D01*
X93453492Y-101140616D01*
X93420769Y-101148813D01*
X93387400Y-101153763D01*
X93353707Y-101155418D01*
X92241207Y-101155418D01*
X92207514Y-101153763D01*
X92174145Y-101148813D01*
X92141422Y-101140616D01*
X92109660Y-101129252D01*
X92079164Y-101114828D01*
X92050230Y-101097486D01*
X92023134Y-101077390D01*
X91998139Y-101054736D01*
X91975485Y-101029741D01*
X91955389Y-101002645D01*
X91938047Y-100973711D01*
X91923623Y-100943215D01*
X91912259Y-100911453D01*
X91904062Y-100878730D01*
X91899112Y-100845361D01*
X91897457Y-100811668D01*
X91897457Y-100124168D01*
X91899112Y-100090475D01*
X91904062Y-100057106D01*
X91912259Y-100024383D01*
X91923623Y-99992621D01*
X91938047Y-99962125D01*
X91955389Y-99933191D01*
X91975485Y-99906095D01*
X91998139Y-99881100D01*
X92023134Y-99858446D01*
X92050230Y-99838350D01*
X92079164Y-99821008D01*
X92109660Y-99806584D01*
X92141422Y-99795220D01*
X92174145Y-99787023D01*
X92207514Y-99782073D01*
X92241207Y-99780418D01*
X93353707Y-99780418D01*
X93387400Y-99782073D01*
X93387400Y-99782073D01*
G37*
D11*
X92797457Y-100467918D03*
D10*
G36*
X93387400Y-97907073D02*
X93420769Y-97912023D01*
X93453492Y-97920220D01*
X93485254Y-97931584D01*
X93515750Y-97946008D01*
X93544684Y-97963350D01*
X93571780Y-97983446D01*
X93596775Y-98006100D01*
X93619429Y-98031095D01*
X93639525Y-98058191D01*
X93656867Y-98087125D01*
X93671291Y-98117621D01*
X93682655Y-98149383D01*
X93690852Y-98182106D01*
X93695802Y-98215475D01*
X93697457Y-98249168D01*
X93697457Y-98936668D01*
X93695802Y-98970361D01*
X93690852Y-99003730D01*
X93682655Y-99036453D01*
X93671291Y-99068215D01*
X93656867Y-99098711D01*
X93639525Y-99127645D01*
X93619429Y-99154741D01*
X93596775Y-99179736D01*
X93571780Y-99202390D01*
X93544684Y-99222486D01*
X93515750Y-99239828D01*
X93485254Y-99254252D01*
X93453492Y-99265616D01*
X93420769Y-99273813D01*
X93387400Y-99278763D01*
X93353707Y-99280418D01*
X92241207Y-99280418D01*
X92207514Y-99278763D01*
X92174145Y-99273813D01*
X92141422Y-99265616D01*
X92109660Y-99254252D01*
X92079164Y-99239828D01*
X92050230Y-99222486D01*
X92023134Y-99202390D01*
X91998139Y-99179736D01*
X91975485Y-99154741D01*
X91955389Y-99127645D01*
X91938047Y-99098711D01*
X91923623Y-99068215D01*
X91912259Y-99036453D01*
X91904062Y-99003730D01*
X91899112Y-98970361D01*
X91897457Y-98936668D01*
X91897457Y-98249168D01*
X91899112Y-98215475D01*
X91904062Y-98182106D01*
X91912259Y-98149383D01*
X91923623Y-98117621D01*
X91938047Y-98087125D01*
X91955389Y-98058191D01*
X91975485Y-98031095D01*
X91998139Y-98006100D01*
X92023134Y-97983446D01*
X92050230Y-97963350D01*
X92079164Y-97946008D01*
X92109660Y-97931584D01*
X92141422Y-97920220D01*
X92174145Y-97912023D01*
X92207514Y-97907073D01*
X92241207Y-97905418D01*
X93353707Y-97905418D01*
X93387400Y-97907073D01*
X93387400Y-97907073D01*
G37*
D11*
X92797457Y-98592918D03*
G04 #@! TD*
D10*
G04 #@! TO.C,R7*
G36*
X93491543Y-105172055D02*
X93524912Y-105177005D01*
X93557635Y-105185202D01*
X93589397Y-105196566D01*
X93619893Y-105210990D01*
X93648827Y-105228332D01*
X93675923Y-105248428D01*
X93700918Y-105271082D01*
X93723572Y-105296077D01*
X93743668Y-105323173D01*
X93761010Y-105352107D01*
X93775434Y-105382603D01*
X93786798Y-105414365D01*
X93794995Y-105447088D01*
X93799945Y-105480457D01*
X93801600Y-105514150D01*
X93801600Y-106626650D01*
X93799945Y-106660343D01*
X93794995Y-106693712D01*
X93786798Y-106726435D01*
X93775434Y-106758197D01*
X93761010Y-106788693D01*
X93743668Y-106817627D01*
X93723572Y-106844723D01*
X93700918Y-106869718D01*
X93675923Y-106892372D01*
X93648827Y-106912468D01*
X93619893Y-106929810D01*
X93589397Y-106944234D01*
X93557635Y-106955598D01*
X93524912Y-106963795D01*
X93491543Y-106968745D01*
X93457850Y-106970400D01*
X92770350Y-106970400D01*
X92736657Y-106968745D01*
X92703288Y-106963795D01*
X92670565Y-106955598D01*
X92638803Y-106944234D01*
X92608307Y-106929810D01*
X92579373Y-106912468D01*
X92552277Y-106892372D01*
X92527282Y-106869718D01*
X92504628Y-106844723D01*
X92484532Y-106817627D01*
X92467190Y-106788693D01*
X92452766Y-106758197D01*
X92441402Y-106726435D01*
X92433205Y-106693712D01*
X92428255Y-106660343D01*
X92426600Y-106626650D01*
X92426600Y-105514150D01*
X92428255Y-105480457D01*
X92433205Y-105447088D01*
X92441402Y-105414365D01*
X92452766Y-105382603D01*
X92467190Y-105352107D01*
X92484532Y-105323173D01*
X92504628Y-105296077D01*
X92527282Y-105271082D01*
X92552277Y-105248428D01*
X92579373Y-105228332D01*
X92608307Y-105210990D01*
X92638803Y-105196566D01*
X92670565Y-105185202D01*
X92703288Y-105177005D01*
X92736657Y-105172055D01*
X92770350Y-105170400D01*
X93457850Y-105170400D01*
X93491543Y-105172055D01*
X93491543Y-105172055D01*
G37*
D11*
X93114100Y-106070400D03*
D10*
G36*
X91616543Y-105172055D02*
X91649912Y-105177005D01*
X91682635Y-105185202D01*
X91714397Y-105196566D01*
X91744893Y-105210990D01*
X91773827Y-105228332D01*
X91800923Y-105248428D01*
X91825918Y-105271082D01*
X91848572Y-105296077D01*
X91868668Y-105323173D01*
X91886010Y-105352107D01*
X91900434Y-105382603D01*
X91911798Y-105414365D01*
X91919995Y-105447088D01*
X91924945Y-105480457D01*
X91926600Y-105514150D01*
X91926600Y-106626650D01*
X91924945Y-106660343D01*
X91919995Y-106693712D01*
X91911798Y-106726435D01*
X91900434Y-106758197D01*
X91886010Y-106788693D01*
X91868668Y-106817627D01*
X91848572Y-106844723D01*
X91825918Y-106869718D01*
X91800923Y-106892372D01*
X91773827Y-106912468D01*
X91744893Y-106929810D01*
X91714397Y-106944234D01*
X91682635Y-106955598D01*
X91649912Y-106963795D01*
X91616543Y-106968745D01*
X91582850Y-106970400D01*
X90895350Y-106970400D01*
X90861657Y-106968745D01*
X90828288Y-106963795D01*
X90795565Y-106955598D01*
X90763803Y-106944234D01*
X90733307Y-106929810D01*
X90704373Y-106912468D01*
X90677277Y-106892372D01*
X90652282Y-106869718D01*
X90629628Y-106844723D01*
X90609532Y-106817627D01*
X90592190Y-106788693D01*
X90577766Y-106758197D01*
X90566402Y-106726435D01*
X90558205Y-106693712D01*
X90553255Y-106660343D01*
X90551600Y-106626650D01*
X90551600Y-105514150D01*
X90553255Y-105480457D01*
X90558205Y-105447088D01*
X90566402Y-105414365D01*
X90577766Y-105382603D01*
X90592190Y-105352107D01*
X90609532Y-105323173D01*
X90629628Y-105296077D01*
X90652282Y-105271082D01*
X90677277Y-105248428D01*
X90704373Y-105228332D01*
X90733307Y-105210990D01*
X90763803Y-105196566D01*
X90795565Y-105185202D01*
X90828288Y-105177005D01*
X90861657Y-105172055D01*
X90895350Y-105170400D01*
X91582850Y-105170400D01*
X91616543Y-105172055D01*
X91616543Y-105172055D01*
G37*
D11*
X91239100Y-106070400D03*
G04 #@! TD*
D10*
G04 #@! TO.C,R8*
G36*
X105809443Y-106199655D02*
X105842812Y-106204605D01*
X105875535Y-106212802D01*
X105907297Y-106224166D01*
X105937793Y-106238590D01*
X105966727Y-106255932D01*
X105993823Y-106276028D01*
X106018818Y-106298682D01*
X106041472Y-106323677D01*
X106061568Y-106350773D01*
X106078910Y-106379707D01*
X106093334Y-106410203D01*
X106104698Y-106441965D01*
X106112895Y-106474688D01*
X106117845Y-106508057D01*
X106119500Y-106541750D01*
X106119500Y-107229250D01*
X106117845Y-107262943D01*
X106112895Y-107296312D01*
X106104698Y-107329035D01*
X106093334Y-107360797D01*
X106078910Y-107391293D01*
X106061568Y-107420227D01*
X106041472Y-107447323D01*
X106018818Y-107472318D01*
X105993823Y-107494972D01*
X105966727Y-107515068D01*
X105937793Y-107532410D01*
X105907297Y-107546834D01*
X105875535Y-107558198D01*
X105842812Y-107566395D01*
X105809443Y-107571345D01*
X105775750Y-107573000D01*
X104663250Y-107573000D01*
X104629557Y-107571345D01*
X104596188Y-107566395D01*
X104563465Y-107558198D01*
X104531703Y-107546834D01*
X104501207Y-107532410D01*
X104472273Y-107515068D01*
X104445177Y-107494972D01*
X104420182Y-107472318D01*
X104397528Y-107447323D01*
X104377432Y-107420227D01*
X104360090Y-107391293D01*
X104345666Y-107360797D01*
X104334302Y-107329035D01*
X104326105Y-107296312D01*
X104321155Y-107262943D01*
X104319500Y-107229250D01*
X104319500Y-106541750D01*
X104321155Y-106508057D01*
X104326105Y-106474688D01*
X104334302Y-106441965D01*
X104345666Y-106410203D01*
X104360090Y-106379707D01*
X104377432Y-106350773D01*
X104397528Y-106323677D01*
X104420182Y-106298682D01*
X104445177Y-106276028D01*
X104472273Y-106255932D01*
X104501207Y-106238590D01*
X104531703Y-106224166D01*
X104563465Y-106212802D01*
X104596188Y-106204605D01*
X104629557Y-106199655D01*
X104663250Y-106198000D01*
X105775750Y-106198000D01*
X105809443Y-106199655D01*
X105809443Y-106199655D01*
G37*
D11*
X105219500Y-106885500D03*
D10*
G36*
X105809443Y-108074655D02*
X105842812Y-108079605D01*
X105875535Y-108087802D01*
X105907297Y-108099166D01*
X105937793Y-108113590D01*
X105966727Y-108130932D01*
X105993823Y-108151028D01*
X106018818Y-108173682D01*
X106041472Y-108198677D01*
X106061568Y-108225773D01*
X106078910Y-108254707D01*
X106093334Y-108285203D01*
X106104698Y-108316965D01*
X106112895Y-108349688D01*
X106117845Y-108383057D01*
X106119500Y-108416750D01*
X106119500Y-109104250D01*
X106117845Y-109137943D01*
X106112895Y-109171312D01*
X106104698Y-109204035D01*
X106093334Y-109235797D01*
X106078910Y-109266293D01*
X106061568Y-109295227D01*
X106041472Y-109322323D01*
X106018818Y-109347318D01*
X105993823Y-109369972D01*
X105966727Y-109390068D01*
X105937793Y-109407410D01*
X105907297Y-109421834D01*
X105875535Y-109433198D01*
X105842812Y-109441395D01*
X105809443Y-109446345D01*
X105775750Y-109448000D01*
X104663250Y-109448000D01*
X104629557Y-109446345D01*
X104596188Y-109441395D01*
X104563465Y-109433198D01*
X104531703Y-109421834D01*
X104501207Y-109407410D01*
X104472273Y-109390068D01*
X104445177Y-109369972D01*
X104420182Y-109347318D01*
X104397528Y-109322323D01*
X104377432Y-109295227D01*
X104360090Y-109266293D01*
X104345666Y-109235797D01*
X104334302Y-109204035D01*
X104326105Y-109171312D01*
X104321155Y-109137943D01*
X104319500Y-109104250D01*
X104319500Y-108416750D01*
X104321155Y-108383057D01*
X104326105Y-108349688D01*
X104334302Y-108316965D01*
X104345666Y-108285203D01*
X104360090Y-108254707D01*
X104377432Y-108225773D01*
X104397528Y-108198677D01*
X104420182Y-108173682D01*
X104445177Y-108151028D01*
X104472273Y-108130932D01*
X104501207Y-108113590D01*
X104531703Y-108099166D01*
X104563465Y-108087802D01*
X104596188Y-108079605D01*
X104629557Y-108074655D01*
X104663250Y-108073000D01*
X105775750Y-108073000D01*
X105809443Y-108074655D01*
X105809443Y-108074655D01*
G37*
D11*
X105219500Y-108760500D03*
G04 #@! TD*
D10*
G04 #@! TO.C,R9*
G36*
X105809443Y-104709155D02*
X105842812Y-104714105D01*
X105875535Y-104722302D01*
X105907297Y-104733666D01*
X105937793Y-104748090D01*
X105966727Y-104765432D01*
X105993823Y-104785528D01*
X106018818Y-104808182D01*
X106041472Y-104833177D01*
X106061568Y-104860273D01*
X106078910Y-104889207D01*
X106093334Y-104919703D01*
X106104698Y-104951465D01*
X106112895Y-104984188D01*
X106117845Y-105017557D01*
X106119500Y-105051250D01*
X106119500Y-105738750D01*
X106117845Y-105772443D01*
X106112895Y-105805812D01*
X106104698Y-105838535D01*
X106093334Y-105870297D01*
X106078910Y-105900793D01*
X106061568Y-105929727D01*
X106041472Y-105956823D01*
X106018818Y-105981818D01*
X105993823Y-106004472D01*
X105966727Y-106024568D01*
X105937793Y-106041910D01*
X105907297Y-106056334D01*
X105875535Y-106067698D01*
X105842812Y-106075895D01*
X105809443Y-106080845D01*
X105775750Y-106082500D01*
X104663250Y-106082500D01*
X104629557Y-106080845D01*
X104596188Y-106075895D01*
X104563465Y-106067698D01*
X104531703Y-106056334D01*
X104501207Y-106041910D01*
X104472273Y-106024568D01*
X104445177Y-106004472D01*
X104420182Y-105981818D01*
X104397528Y-105956823D01*
X104377432Y-105929727D01*
X104360090Y-105900793D01*
X104345666Y-105870297D01*
X104334302Y-105838535D01*
X104326105Y-105805812D01*
X104321155Y-105772443D01*
X104319500Y-105738750D01*
X104319500Y-105051250D01*
X104321155Y-105017557D01*
X104326105Y-104984188D01*
X104334302Y-104951465D01*
X104345666Y-104919703D01*
X104360090Y-104889207D01*
X104377432Y-104860273D01*
X104397528Y-104833177D01*
X104420182Y-104808182D01*
X104445177Y-104785528D01*
X104472273Y-104765432D01*
X104501207Y-104748090D01*
X104531703Y-104733666D01*
X104563465Y-104722302D01*
X104596188Y-104714105D01*
X104629557Y-104709155D01*
X104663250Y-104707500D01*
X105775750Y-104707500D01*
X105809443Y-104709155D01*
X105809443Y-104709155D01*
G37*
D11*
X105219500Y-105395000D03*
D10*
G36*
X105809443Y-102834155D02*
X105842812Y-102839105D01*
X105875535Y-102847302D01*
X105907297Y-102858666D01*
X105937793Y-102873090D01*
X105966727Y-102890432D01*
X105993823Y-102910528D01*
X106018818Y-102933182D01*
X106041472Y-102958177D01*
X106061568Y-102985273D01*
X106078910Y-103014207D01*
X106093334Y-103044703D01*
X106104698Y-103076465D01*
X106112895Y-103109188D01*
X106117845Y-103142557D01*
X106119500Y-103176250D01*
X106119500Y-103863750D01*
X106117845Y-103897443D01*
X106112895Y-103930812D01*
X106104698Y-103963535D01*
X106093334Y-103995297D01*
X106078910Y-104025793D01*
X106061568Y-104054727D01*
X106041472Y-104081823D01*
X106018818Y-104106818D01*
X105993823Y-104129472D01*
X105966727Y-104149568D01*
X105937793Y-104166910D01*
X105907297Y-104181334D01*
X105875535Y-104192698D01*
X105842812Y-104200895D01*
X105809443Y-104205845D01*
X105775750Y-104207500D01*
X104663250Y-104207500D01*
X104629557Y-104205845D01*
X104596188Y-104200895D01*
X104563465Y-104192698D01*
X104531703Y-104181334D01*
X104501207Y-104166910D01*
X104472273Y-104149568D01*
X104445177Y-104129472D01*
X104420182Y-104106818D01*
X104397528Y-104081823D01*
X104377432Y-104054727D01*
X104360090Y-104025793D01*
X104345666Y-103995297D01*
X104334302Y-103963535D01*
X104326105Y-103930812D01*
X104321155Y-103897443D01*
X104319500Y-103863750D01*
X104319500Y-103176250D01*
X104321155Y-103142557D01*
X104326105Y-103109188D01*
X104334302Y-103076465D01*
X104345666Y-103044703D01*
X104360090Y-103014207D01*
X104377432Y-102985273D01*
X104397528Y-102958177D01*
X104420182Y-102933182D01*
X104445177Y-102910528D01*
X104472273Y-102890432D01*
X104501207Y-102873090D01*
X104531703Y-102858666D01*
X104563465Y-102847302D01*
X104596188Y-102839105D01*
X104629557Y-102834155D01*
X104663250Y-102832500D01*
X105775750Y-102832500D01*
X105809443Y-102834155D01*
X105809443Y-102834155D01*
G37*
D11*
X105219500Y-103520000D03*
G04 #@! TD*
D10*
G04 #@! TO.C,R10*
G36*
X95814543Y-104188455D02*
X95847912Y-104193405D01*
X95880635Y-104201602D01*
X95912397Y-104212966D01*
X95942893Y-104227390D01*
X95971827Y-104244732D01*
X95998923Y-104264828D01*
X96023918Y-104287482D01*
X96046572Y-104312477D01*
X96066668Y-104339573D01*
X96084010Y-104368507D01*
X96098434Y-104399003D01*
X96109798Y-104430765D01*
X96117995Y-104463488D01*
X96122945Y-104496857D01*
X96124600Y-104530550D01*
X96124600Y-105218050D01*
X96122945Y-105251743D01*
X96117995Y-105285112D01*
X96109798Y-105317835D01*
X96098434Y-105349597D01*
X96084010Y-105380093D01*
X96066668Y-105409027D01*
X96046572Y-105436123D01*
X96023918Y-105461118D01*
X95998923Y-105483772D01*
X95971827Y-105503868D01*
X95942893Y-105521210D01*
X95912397Y-105535634D01*
X95880635Y-105546998D01*
X95847912Y-105555195D01*
X95814543Y-105560145D01*
X95780850Y-105561800D01*
X94668350Y-105561800D01*
X94634657Y-105560145D01*
X94601288Y-105555195D01*
X94568565Y-105546998D01*
X94536803Y-105535634D01*
X94506307Y-105521210D01*
X94477373Y-105503868D01*
X94450277Y-105483772D01*
X94425282Y-105461118D01*
X94402628Y-105436123D01*
X94382532Y-105409027D01*
X94365190Y-105380093D01*
X94350766Y-105349597D01*
X94339402Y-105317835D01*
X94331205Y-105285112D01*
X94326255Y-105251743D01*
X94324600Y-105218050D01*
X94324600Y-104530550D01*
X94326255Y-104496857D01*
X94331205Y-104463488D01*
X94339402Y-104430765D01*
X94350766Y-104399003D01*
X94365190Y-104368507D01*
X94382532Y-104339573D01*
X94402628Y-104312477D01*
X94425282Y-104287482D01*
X94450277Y-104264828D01*
X94477373Y-104244732D01*
X94506307Y-104227390D01*
X94536803Y-104212966D01*
X94568565Y-104201602D01*
X94601288Y-104193405D01*
X94634657Y-104188455D01*
X94668350Y-104186800D01*
X95780850Y-104186800D01*
X95814543Y-104188455D01*
X95814543Y-104188455D01*
G37*
D11*
X95224600Y-104874300D03*
D10*
G36*
X95814543Y-102313455D02*
X95847912Y-102318405D01*
X95880635Y-102326602D01*
X95912397Y-102337966D01*
X95942893Y-102352390D01*
X95971827Y-102369732D01*
X95998923Y-102389828D01*
X96023918Y-102412482D01*
X96046572Y-102437477D01*
X96066668Y-102464573D01*
X96084010Y-102493507D01*
X96098434Y-102524003D01*
X96109798Y-102555765D01*
X96117995Y-102588488D01*
X96122945Y-102621857D01*
X96124600Y-102655550D01*
X96124600Y-103343050D01*
X96122945Y-103376743D01*
X96117995Y-103410112D01*
X96109798Y-103442835D01*
X96098434Y-103474597D01*
X96084010Y-103505093D01*
X96066668Y-103534027D01*
X96046572Y-103561123D01*
X96023918Y-103586118D01*
X95998923Y-103608772D01*
X95971827Y-103628868D01*
X95942893Y-103646210D01*
X95912397Y-103660634D01*
X95880635Y-103671998D01*
X95847912Y-103680195D01*
X95814543Y-103685145D01*
X95780850Y-103686800D01*
X94668350Y-103686800D01*
X94634657Y-103685145D01*
X94601288Y-103680195D01*
X94568565Y-103671998D01*
X94536803Y-103660634D01*
X94506307Y-103646210D01*
X94477373Y-103628868D01*
X94450277Y-103608772D01*
X94425282Y-103586118D01*
X94402628Y-103561123D01*
X94382532Y-103534027D01*
X94365190Y-103505093D01*
X94350766Y-103474597D01*
X94339402Y-103442835D01*
X94331205Y-103410112D01*
X94326255Y-103376743D01*
X94324600Y-103343050D01*
X94324600Y-102655550D01*
X94326255Y-102621857D01*
X94331205Y-102588488D01*
X94339402Y-102555765D01*
X94350766Y-102524003D01*
X94365190Y-102493507D01*
X94382532Y-102464573D01*
X94402628Y-102437477D01*
X94425282Y-102412482D01*
X94450277Y-102389828D01*
X94477373Y-102369732D01*
X94506307Y-102352390D01*
X94536803Y-102337966D01*
X94568565Y-102326602D01*
X94601288Y-102318405D01*
X94634657Y-102313455D01*
X94668350Y-102311800D01*
X95780850Y-102311800D01*
X95814543Y-102313455D01*
X95814543Y-102313455D01*
G37*
D11*
X95224600Y-102999300D03*
G04 #@! TD*
D10*
G04 #@! TO.C,R11*
G36*
X109301600Y-102924673D02*
X109334969Y-102929623D01*
X109367692Y-102937820D01*
X109399454Y-102949184D01*
X109429950Y-102963608D01*
X109458884Y-102980950D01*
X109485980Y-103001046D01*
X109510975Y-103023700D01*
X109533629Y-103048695D01*
X109553725Y-103075791D01*
X109571067Y-103104725D01*
X109585491Y-103135221D01*
X109596855Y-103166983D01*
X109605052Y-103199706D01*
X109610002Y-103233075D01*
X109611657Y-103266768D01*
X109611657Y-104379268D01*
X109610002Y-104412961D01*
X109605052Y-104446330D01*
X109596855Y-104479053D01*
X109585491Y-104510815D01*
X109571067Y-104541311D01*
X109553725Y-104570245D01*
X109533629Y-104597341D01*
X109510975Y-104622336D01*
X109485980Y-104644990D01*
X109458884Y-104665086D01*
X109429950Y-104682428D01*
X109399454Y-104696852D01*
X109367692Y-104708216D01*
X109334969Y-104716413D01*
X109301600Y-104721363D01*
X109267907Y-104723018D01*
X108580407Y-104723018D01*
X108546714Y-104721363D01*
X108513345Y-104716413D01*
X108480622Y-104708216D01*
X108448860Y-104696852D01*
X108418364Y-104682428D01*
X108389430Y-104665086D01*
X108362334Y-104644990D01*
X108337339Y-104622336D01*
X108314685Y-104597341D01*
X108294589Y-104570245D01*
X108277247Y-104541311D01*
X108262823Y-104510815D01*
X108251459Y-104479053D01*
X108243262Y-104446330D01*
X108238312Y-104412961D01*
X108236657Y-104379268D01*
X108236657Y-103266768D01*
X108238312Y-103233075D01*
X108243262Y-103199706D01*
X108251459Y-103166983D01*
X108262823Y-103135221D01*
X108277247Y-103104725D01*
X108294589Y-103075791D01*
X108314685Y-103048695D01*
X108337339Y-103023700D01*
X108362334Y-103001046D01*
X108389430Y-102980950D01*
X108418364Y-102963608D01*
X108448860Y-102949184D01*
X108480622Y-102937820D01*
X108513345Y-102929623D01*
X108546714Y-102924673D01*
X108580407Y-102923018D01*
X109267907Y-102923018D01*
X109301600Y-102924673D01*
X109301600Y-102924673D01*
G37*
D11*
X108924157Y-103823018D03*
D10*
G36*
X107426600Y-102924673D02*
X107459969Y-102929623D01*
X107492692Y-102937820D01*
X107524454Y-102949184D01*
X107554950Y-102963608D01*
X107583884Y-102980950D01*
X107610980Y-103001046D01*
X107635975Y-103023700D01*
X107658629Y-103048695D01*
X107678725Y-103075791D01*
X107696067Y-103104725D01*
X107710491Y-103135221D01*
X107721855Y-103166983D01*
X107730052Y-103199706D01*
X107735002Y-103233075D01*
X107736657Y-103266768D01*
X107736657Y-104379268D01*
X107735002Y-104412961D01*
X107730052Y-104446330D01*
X107721855Y-104479053D01*
X107710491Y-104510815D01*
X107696067Y-104541311D01*
X107678725Y-104570245D01*
X107658629Y-104597341D01*
X107635975Y-104622336D01*
X107610980Y-104644990D01*
X107583884Y-104665086D01*
X107554950Y-104682428D01*
X107524454Y-104696852D01*
X107492692Y-104708216D01*
X107459969Y-104716413D01*
X107426600Y-104721363D01*
X107392907Y-104723018D01*
X106705407Y-104723018D01*
X106671714Y-104721363D01*
X106638345Y-104716413D01*
X106605622Y-104708216D01*
X106573860Y-104696852D01*
X106543364Y-104682428D01*
X106514430Y-104665086D01*
X106487334Y-104644990D01*
X106462339Y-104622336D01*
X106439685Y-104597341D01*
X106419589Y-104570245D01*
X106402247Y-104541311D01*
X106387823Y-104510815D01*
X106376459Y-104479053D01*
X106368262Y-104446330D01*
X106363312Y-104412961D01*
X106361657Y-104379268D01*
X106361657Y-103266768D01*
X106363312Y-103233075D01*
X106368262Y-103199706D01*
X106376459Y-103166983D01*
X106387823Y-103135221D01*
X106402247Y-103104725D01*
X106419589Y-103075791D01*
X106439685Y-103048695D01*
X106462339Y-103023700D01*
X106487334Y-103001046D01*
X106514430Y-102980950D01*
X106543364Y-102963608D01*
X106573860Y-102949184D01*
X106605622Y-102937820D01*
X106638345Y-102929623D01*
X106671714Y-102924673D01*
X106705407Y-102923018D01*
X107392907Y-102923018D01*
X107426600Y-102924673D01*
X107426600Y-102924673D01*
G37*
D11*
X107049157Y-103823018D03*
G04 #@! TD*
D13*
G04 #@! TO.C,U1*
X98315800Y-98806000D03*
X98315800Y-97536000D03*
X98315800Y-96266000D03*
X98315800Y-94996000D03*
X103715800Y-94996000D03*
X103715800Y-96266000D03*
X103715800Y-97536000D03*
X103715800Y-98806000D03*
G04 #@! TD*
G04 #@! TO.C,U2*
X97666657Y-103035618D03*
X97666657Y-104305618D03*
X97666657Y-105575618D03*
X97666657Y-106845618D03*
X103066657Y-106845618D03*
X103066657Y-105575618D03*
X103066657Y-104305618D03*
X103066657Y-103035618D03*
G04 #@! TD*
D14*
G04 #@! TO.C,J1*
X96266000Y-90246200D03*
G04 #@! TD*
G04 #@! TO.C,J2*
X94234000Y-90246200D03*
G04 #@! TD*
G04 #@! TO.C,J3*
X100838000Y-89484200D03*
G04 #@! TD*
G04 #@! TO.C,J4*
X102819200Y-89484200D03*
G04 #@! TD*
G04 #@! TO.C,J5*
X98679000Y-110045500D03*
G04 #@! TD*
G04 #@! TO.C,J6*
X102362000Y-110045500D03*
G04 #@! TD*
G04 #@! TO.C,J7*
X100520500Y-110045500D03*
G04 #@! TD*
D15*
G04 #@! TO.C,D1*
X93929200Y-95401418D03*
X93929200Y-96801418D03*
G04 #@! TD*
G04 #@! TO.C,D2*
X92202000Y-96788200D03*
X92202000Y-95388200D03*
G04 #@! TD*
G04 #@! TO.C,D3*
X90576400Y-95439000D03*
X90576400Y-96839000D03*
G04 #@! TD*
G04 #@! TO.C,D4*
X95631000Y-95362800D03*
X95631000Y-96762800D03*
G04 #@! TD*
M02*
