*
%FSLAX25Y25*%
%MOIN*%
%ADD10C,0.015748*%
%ADD11C,0.025591*%
%IPPOS*%
%LNdrl*%
%LPD*%
G54D10*
X56927Y53183D03*
Y47079D03*
X68177Y70579D03*
X69927Y76829D03*
X88177Y45579D03*
X91427Y42079D03*
X95177Y72079D03*
X98027Y80929D03*
G54D11*
X61677Y114779D03*
X79677Y117779D03*
X53677Y114779D03*
X71177Y36829D03*
X87477Y117779D03*
X78427Y36829D03*
X85677D03*
G54D10*
X56927Y158695D03*
Y152591D03*
X68177Y176091D03*
X69927Y182341D03*
X88177Y151091D03*
X91427Y147591D03*
X95177Y177591D03*
X98027Y186441D03*
G54D11*
X61677Y220291D03*
X79677Y223291D03*
X53677Y220291D03*
X71177Y142341D03*
X87477Y223291D03*
X78427Y142341D03*
X85677D03*
G54D10*
X56927Y264207D03*
Y258102D03*
X68177Y281602D03*
X69927Y287852D03*
X88177Y256602D03*
X91427Y253102D03*
X95177Y283102D03*
X98027Y291952D03*
G54D11*
X61677Y325802D03*
X79677Y328802D03*
X53677Y325802D03*
X71177Y247852D03*
X87477Y328802D03*
X78427Y247852D03*
X85677D03*
G54D10*
X162439Y53183D03*
Y47079D03*
X173689Y70579D03*
X175439Y76829D03*
X193689Y45579D03*
X196939Y42079D03*
X200689Y72079D03*
X203539Y80929D03*
G54D11*
X167189Y114779D03*
X185189Y117779D03*
X159189Y114779D03*
X176689Y36829D03*
X192989Y117779D03*
X183939Y36829D03*
X191189D03*
G54D10*
X162439Y158695D03*
Y152591D03*
X173689Y176091D03*
X175439Y182341D03*
X193689Y151091D03*
X196939Y147591D03*
X200689Y177591D03*
X203539Y186441D03*
G54D11*
X167189Y220291D03*
X185189Y223291D03*
X159189Y220291D03*
X176689Y142341D03*
X192989Y223291D03*
X183939Y142341D03*
X191189D03*
G54D10*
X162439Y264207D03*
Y258102D03*
X173689Y281602D03*
X175439Y287852D03*
X193689Y256602D03*
X196939Y253102D03*
X200689Y283102D03*
X203539Y291952D03*
G54D11*
X167189Y325802D03*
X185189Y328802D03*
X159189Y325802D03*
X176689Y247852D03*
X192989Y328802D03*
X183939Y247852D03*
X191189D03*
M02*
