*
%FSLAX25Y25*%
%MOIN*%
%ADD10C,0.005906*%
%IPPOS*%
%LNrou*%
%LPD*%
G54D10*
X28342Y211984D02*
X28714Y212483D01*
X29160Y212917D01*
X29668Y213276D01*
X30227Y213550D01*
X30822Y213732D01*
X31438Y213818D01*
X32060Y213806D01*
X32673Y213696D01*
X33260Y213491D01*
X33808Y213195D01*
X34302Y212817D01*
X34731Y212366D01*
X35082Y211852D01*
X35349Y211290D01*
X35523Y210693D01*
X35601Y210075D01*
X35580Y209453D01*
X35462Y208842D01*
X35249Y208258D01*
X35017Y207825D01*
X33893Y205940D01*
X32855Y204006D01*
X31905Y202027D01*
X31045Y200008D01*
X30277Y197952D01*
X29601Y195864D01*
X29020Y193747D01*
X28535Y191607D01*
X28147Y189446D01*
X27856Y187271D01*
X27663Y185084D01*
X27569Y182892D01*
X27573Y180697D01*
X27676Y178504D01*
X27878Y176319D01*
X28177Y174144D01*
X28574Y171986D01*
X29067Y169847D01*
X29657Y167733D01*
X30340Y165647D01*
X31117Y163594D01*
X31985Y161578D01*
X32943Y159603D01*
X33988Y157674D01*
X35022Y155948D01*
X35305Y155394D01*
X35498Y154802D01*
X35594Y154187D01*
X35592Y153565D01*
X35492Y152951D01*
X35297Y152360D01*
X35011Y151807D01*
X34641Y151307D01*
X34197Y150871D01*
X33689Y150511D01*
X33131Y150235D01*
X32537Y150051D01*
X31921Y149963D01*
X31299Y149973D01*
X30686Y150081D01*
X30098Y150284D01*
X29549Y150578D01*
X29054Y150955D01*
X28624Y151405D01*
X28345Y151793D01*
X27132Y153823D01*
X26004Y155901D01*
X24963Y158025D01*
X24013Y160191D01*
X23153Y162394D01*
X22386Y164631D01*
X21713Y166899D01*
X21135Y169192D01*
X20654Y171508D01*
X20269Y173841D01*
X19982Y176189D01*
X19793Y178546D01*
X19703Y180910D01*
X19711Y183275D01*
X19819Y185638D01*
X20024Y187994D01*
X20328Y190339D01*
X20729Y192670D01*
X21227Y194982D01*
X21821Y197271D01*
X22510Y199534D01*
X23293Y201765D01*
X24168Y203963D01*
X25135Y206121D01*
X26190Y208238D01*
X27333Y210308D01*
X28342Y211984D01*
X28342Y317495D02*
X28714Y317995D01*
X29160Y318429D01*
X29668Y318788D01*
X30227Y319062D01*
X30822Y319244D01*
X31438Y319330D01*
X32060Y319318D01*
X32673Y319208D01*
X33260Y319003D01*
X33808Y318707D01*
X34302Y318329D01*
X34731Y317878D01*
X35082Y317364D01*
X35349Y316802D01*
X35523Y316204D01*
X35601Y315587D01*
X35580Y314965D01*
X35462Y314354D01*
X35249Y313769D01*
X35017Y313337D01*
X33893Y311452D01*
X32855Y309518D01*
X31905Y307539D01*
X31045Y305520D01*
X30277Y303464D01*
X29601Y301376D01*
X29020Y299259D01*
X28535Y297118D01*
X28147Y294958D01*
X27856Y292783D01*
X27663Y290596D01*
X27569Y288403D01*
X27573Y286208D01*
X27676Y284016D01*
X27878Y281830D01*
X28177Y279656D01*
X28574Y277497D01*
X29067Y275359D01*
X29657Y273244D01*
X30340Y271159D01*
X31117Y269106D01*
X31985Y267090D01*
X32943Y265115D01*
X33988Y263185D01*
X35022Y261460D01*
X35305Y260906D01*
X35498Y260314D01*
X35594Y259699D01*
X35592Y259077D01*
X35492Y258463D01*
X35297Y257872D01*
X35011Y257319D01*
X34641Y256819D01*
X34197Y256383D01*
X33689Y256023D01*
X33131Y255747D01*
X32537Y255563D01*
X31921Y255474D01*
X31299Y255484D01*
X30686Y255593D01*
X30098Y255796D01*
X29549Y256090D01*
X29054Y256466D01*
X28624Y256916D01*
X28345Y257304D01*
X27132Y259334D01*
X26004Y261413D01*
X24963Y263537D01*
X24013Y265703D01*
X23153Y267906D01*
X22386Y270143D01*
X21713Y272411D01*
X21135Y274704D01*
X20654Y277019D01*
X20269Y279353D01*
X19982Y281701D01*
X19793Y284058D01*
X19703Y286422D01*
X19711Y288787D01*
X19819Y291149D01*
X20024Y293505D01*
X20328Y295851D01*
X20729Y298182D01*
X21227Y300494D01*
X21821Y302783D01*
X22510Y305045D01*
X23293Y307277D01*
X24168Y309474D01*
X25135Y311633D01*
X26190Y313750D01*
X27333Y315820D01*
X28342Y317495D01*
X28343Y106471D02*
X28714Y106970D01*
X29160Y107405D01*
X29668Y107763D01*
X30227Y108037D01*
X30822Y108220D01*
X31439Y108306D01*
X32061Y108294D01*
X32673Y108184D01*
X33261Y107978D01*
X33808Y107683D01*
X34303Y107305D01*
X34731Y106853D01*
X35083Y106340D01*
X35349Y105777D01*
X35523Y105180D01*
X35601Y104563D01*
X35581Y103941D01*
X35462Y103330D01*
X35249Y102745D01*
X35018Y102313D01*
X33894Y100427D01*
X32856Y98493D01*
X31906Y96515D01*
X31045Y94496D01*
X30277Y92440D01*
X29602Y90351D01*
X29021Y88235D01*
X28536Y86094D01*
X28147Y83934D01*
X27856Y81758D01*
X27664Y79572D01*
X27569Y77379D01*
X27574Y75184D01*
X27677Y72992D01*
X27878Y70806D01*
X28177Y68632D01*
X28574Y66473D01*
X29068Y64334D01*
X29657Y62220D01*
X30341Y60134D01*
X31117Y58082D01*
X31985Y56066D01*
X32943Y54091D01*
X33989Y52161D01*
X35022Y50436D01*
X35306Y49881D01*
X35498Y49290D01*
X35594Y48675D01*
X35593Y48053D01*
X35493Y47438D01*
X35297Y46847D01*
X35011Y46295D01*
X34641Y45794D01*
X34197Y45359D01*
X33690Y44998D01*
X33132Y44723D01*
X32537Y44538D01*
X31921Y44450D01*
X31299Y44460D01*
X30686Y44568D01*
X30098Y44772D01*
X29549Y45066D01*
X29054Y45442D01*
X28624Y45892D01*
X28346Y46280D01*
X27132Y48310D01*
X26004Y50389D01*
X24964Y52513D01*
X24013Y54678D01*
X23153Y56882D01*
X22386Y59119D01*
X21713Y61386D01*
X21136Y63680D01*
X20654Y65995D01*
X20269Y68329D01*
X19982Y70676D01*
X19794Y73034D01*
X19703Y75397D01*
X19712Y77762D01*
X19819Y80125D01*
X20024Y82481D01*
X20328Y84827D01*
X20729Y87157D01*
X21227Y89469D01*
X21822Y91759D01*
X22511Y94021D01*
X23294Y96253D01*
X24169Y98450D01*
X25135Y100609D01*
X26190Y102725D01*
X27333Y104796D01*
X28343Y106471D01*
X46281Y28345D02*
X45782Y28717D01*
X45348Y29163D01*
X44990Y29672D01*
X44717Y30231D01*
X44535Y30826D01*
X44450Y31443D01*
X44462Y32065D01*
X44573Y32677D01*
X44779Y33265D01*
X45075Y33812D01*
X45454Y34306D01*
X45906Y34734D01*
X46420Y35085D01*
X46982Y35351D01*
X47580Y35524D01*
X48197Y35601D01*
X48819Y35580D01*
X49430Y35461D01*
X50015Y35247D01*
X50445Y35016D01*
X52331Y33892D01*
X54265Y32854D01*
X56243Y31905D01*
X58263Y31044D01*
X60319Y30276D01*
X62407Y29601D01*
X64524Y29020D01*
X66664Y28535D01*
X68825Y28147D01*
X71000Y27856D01*
X73187Y27663D01*
X75379Y27569D01*
X77574Y27574D01*
X79767Y27677D01*
X81952Y27878D01*
X84127Y28178D01*
X86285Y28575D01*
X88424Y29068D01*
X90538Y29658D01*
X92624Y30341D01*
X94677Y31118D01*
X96693Y31986D01*
X98667Y32944D01*
X100597Y33990D01*
X102339Y35034D01*
X102895Y35314D01*
X103488Y35503D01*
X104103Y35596D01*
X104725Y35591D01*
X105339Y35488D01*
X105929Y35289D01*
X106479Y34999D01*
X106978Y34627D01*
X107411Y34180D01*
X107769Y33671D01*
X108041Y33111D01*
X108222Y32516D01*
X108307Y31900D01*
X108294Y31277D01*
X108182Y30665D01*
X107975Y30078D01*
X107678Y29531D01*
X107299Y29038D01*
X106847Y28611D01*
X106470Y28342D01*
X104440Y27129D01*
X102362Y26001D01*
X100237Y24961D01*
X98072Y24011D01*
X95868Y23151D01*
X93631Y22384D01*
X91364Y21712D01*
X89070Y21134D01*
X86755Y20653D01*
X84421Y20268D01*
X82073Y19982D01*
X79716Y19793D01*
X77352Y19703D01*
X74987Y19712D01*
X72625Y19819D01*
X70269Y20025D01*
X67923Y20329D01*
X65592Y20731D01*
X63280Y21229D01*
X60991Y21823D01*
X58729Y22513D01*
X56497Y23296D01*
X54300Y24171D01*
X52142Y25138D01*
X50025Y26193D01*
X47955Y27336D01*
X46281Y28345D01*
X46285Y335437D02*
X48315Y336650D01*
X50394Y337778D01*
X52518Y338818D01*
X54683Y339769D01*
X56887Y340628D01*
X59124Y341395D01*
X61392Y342068D01*
X63685Y342645D01*
X66001Y343127D01*
X68334Y343511D01*
X70682Y343798D01*
X73039Y343986D01*
X75403Y344076D01*
X77768Y344068D01*
X80131Y343960D01*
X82487Y343755D01*
X84832Y343451D01*
X87163Y343049D01*
X89475Y342551D01*
X91764Y341956D01*
X94026Y341267D01*
X96258Y340484D01*
X98455Y339609D01*
X100614Y338642D01*
X102730Y337587D01*
X104801Y336444D01*
X106471Y335437D01*
X106970Y335066D01*
X107404Y334620D01*
X107763Y334112D01*
X108037Y333553D01*
X108220Y332958D01*
X108306Y332342D01*
X108294Y331719D01*
X108184Y331107D01*
X107979Y330519D01*
X107683Y329972D01*
X107305Y329477D01*
X106854Y329049D01*
X106341Y328697D01*
X105778Y328431D01*
X105181Y328256D01*
X104563Y328178D01*
X103941Y328199D01*
X103330Y328317D01*
X102746Y328530D01*
X102308Y328765D01*
X100422Y329889D01*
X98488Y330927D01*
X96509Y331876D01*
X94490Y332736D01*
X92434Y333505D01*
X90346Y334180D01*
X88229Y334760D01*
X86088Y335245D01*
X83928Y335633D01*
X81752Y335924D01*
X79566Y336116D01*
X77373Y336210D01*
X75178Y336206D01*
X72986Y336103D01*
X70800Y335901D01*
X68626Y335601D01*
X66467Y335204D01*
X64329Y334710D01*
X62215Y334121D01*
X60129Y333437D01*
X58076Y332660D01*
X56060Y331792D01*
X54086Y330834D01*
X52156Y329788D01*
X50433Y328756D01*
X49878Y328475D01*
X49286Y328285D01*
X48670Y328191D01*
X48048Y328196D01*
X47782Y328228D01*
X47176Y328370D01*
X46601Y328605D01*
X46070Y328929D01*
X45596Y329333D01*
X45193Y329806D01*
X44869Y330336D01*
X44633Y330912D01*
X44490Y331517D01*
X44445Y332138D01*
X44499Y332757D01*
X44650Y333361D01*
X44894Y333933D01*
X45225Y334459D01*
X45635Y334926D01*
X46114Y335323D01*
X46285Y335437D01*
X151793Y28345D02*
X151294Y28717D01*
X150860Y29163D01*
X150502Y29672D01*
X150229Y30231D01*
X150047Y30826D01*
X149962Y31443D01*
X149974Y32065D01*
X150085Y32677D01*
X150291Y33265D01*
X150587Y33812D01*
X150966Y34306D01*
X151418Y34734D01*
X151931Y35085D01*
X152494Y35351D01*
X153092Y35524D01*
X153709Y35601D01*
X154331Y35580D01*
X154942Y35461D01*
X155526Y35247D01*
X155957Y35016D01*
X157843Y33892D01*
X159777Y32854D01*
X161755Y31905D01*
X163775Y31044D01*
X165830Y30276D01*
X167919Y29601D01*
X170036Y29020D01*
X172176Y28535D01*
X174336Y28147D01*
X176512Y27856D01*
X178698Y27663D01*
X180891Y27569D01*
X183086Y27574D01*
X185278Y27677D01*
X187464Y27878D01*
X189638Y28178D01*
X191797Y28575D01*
X193936Y29068D01*
X196050Y29658D01*
X198136Y30341D01*
X200188Y31118D01*
X202204Y31986D01*
X204179Y32944D01*
X206109Y33990D01*
X207851Y35034D01*
X208406Y35314D01*
X208999Y35503D01*
X209615Y35596D01*
X210237Y35591D01*
X210851Y35488D01*
X211440Y35289D01*
X211991Y34999D01*
X212490Y34627D01*
X212923Y34180D01*
X213281Y33671D01*
X213553Y33111D01*
X213734Y32516D01*
X213819Y31900D01*
X213805Y31277D01*
X213694Y30665D01*
X213487Y30078D01*
X213190Y29531D01*
X212811Y29038D01*
X212359Y28611D01*
X211982Y28342D01*
X209952Y27129D01*
X207873Y26001D01*
X205749Y24961D01*
X203584Y24011D01*
X201380Y23151D01*
X199143Y22384D01*
X196875Y21712D01*
X194582Y21134D01*
X192266Y20653D01*
X189933Y20268D01*
X187585Y19982D01*
X185228Y19793D01*
X182864Y19703D01*
X180499Y19712D01*
X178136Y19819D01*
X175780Y20025D01*
X173435Y20329D01*
X171104Y20731D01*
X168792Y21229D01*
X166503Y21823D01*
X164241Y22513D01*
X162009Y23296D01*
X159812Y24171D01*
X157653Y25138D01*
X155537Y26193D01*
X153466Y27336D01*
X151793Y28345D01*
X151797Y335437D02*
X153827Y336650D01*
X155906Y337778D01*
X158030Y338818D01*
X160195Y339769D01*
X162399Y340628D01*
X164636Y341395D01*
X166903Y342068D01*
X169197Y342645D01*
X171512Y343127D01*
X173846Y343511D01*
X176194Y343798D01*
X178551Y343986D01*
X180915Y344076D01*
X183280Y344068D01*
X185642Y343960D01*
X187998Y343755D01*
X190344Y343451D01*
X192675Y343049D01*
X194987Y342551D01*
X197276Y341956D01*
X199538Y341267D01*
X201770Y340484D01*
X203967Y339609D01*
X206126Y338642D01*
X208242Y337587D01*
X210313Y336444D01*
X211982Y335437D01*
X212482Y335066D01*
X212916Y334620D01*
X213275Y334112D01*
X213549Y333553D01*
X213731Y332958D01*
X213818Y332342D01*
X213806Y331719D01*
X213696Y331107D01*
X213490Y330519D01*
X213195Y329972D01*
X212817Y329477D01*
X212366Y329049D01*
X211852Y328697D01*
X211290Y328431D01*
X210693Y328256D01*
X210075Y328178D01*
X209453Y328199D01*
X208842Y328317D01*
X208258Y328530D01*
X207819Y328765D01*
X205934Y329889D01*
X204000Y330927D01*
X202021Y331876D01*
X200002Y332736D01*
X197946Y333505D01*
X195857Y334180D01*
X193741Y334760D01*
X191600Y335245D01*
X189440Y335633D01*
X187264Y335924D01*
X185078Y336116D01*
X182885Y336210D01*
X180690Y336206D01*
X178498Y336103D01*
X176312Y335901D01*
X174138Y335601D01*
X171979Y335204D01*
X169841Y334710D01*
X167726Y334121D01*
X165641Y333437D01*
X163588Y332660D01*
X161572Y331792D01*
X159597Y330834D01*
X157668Y329788D01*
X155945Y328756D01*
X155390Y328475D01*
X154797Y328285D01*
X154182Y328191D01*
X153560Y328196D01*
X153294Y328228D01*
X152688Y328370D01*
X152113Y328605D01*
X151582Y328929D01*
X151108Y329333D01*
X150704Y329806D01*
X150380Y330336D01*
X150144Y330912D01*
X150002Y331517D01*
X149957Y332138D01*
X150011Y332757D01*
X150161Y333361D01*
X150405Y333933D01*
X150737Y334459D01*
X151147Y334926D01*
X151626Y335323D01*
X151797Y335437D01*
X223249Y313339D02*
X222965Y313892D01*
X222771Y314484D01*
X222674Y315099D01*
X222675Y315721D01*
X222774Y316335D01*
X222969Y316926D01*
X223254Y317479D01*
X223623Y317980D01*
X224067Y318417D01*
X224574Y318778D01*
X225131Y319054D01*
X225725Y319239D01*
X226341Y319328D01*
X226964Y319319D01*
X227577Y319212D01*
X228165Y319009D01*
X228714Y318716D01*
X229210Y318340D01*
X229640Y317891D01*
X229927Y317491D01*
X231141Y315460D01*
X232268Y313382D01*
X233308Y311257D01*
X234259Y309092D01*
X235118Y306888D01*
X235884Y304651D01*
X236557Y302383D01*
X237134Y300090D01*
X237616Y297774D01*
X238000Y295441D01*
X238286Y293093D01*
X238475Y290735D01*
X238564Y288372D01*
X238556Y286007D01*
X238448Y283644D01*
X238242Y281288D01*
X237938Y278943D01*
X237536Y276612D01*
X237038Y274300D01*
X236443Y272011D01*
X235754Y269749D01*
X234971Y267517D01*
X234095Y265320D01*
X233128Y263161D01*
X232073Y261045D01*
X230929Y258975D01*
X229926Y257311D01*
X229555Y256811D01*
X229110Y256377D01*
X228602Y256017D01*
X228043Y255743D01*
X227448Y255560D01*
X226832Y255474D01*
X226210Y255485D01*
X225597Y255595D01*
X225010Y255800D01*
X224462Y256095D01*
X223967Y256473D01*
X223539Y256924D01*
X223186Y257437D01*
X222920Y257999D01*
X222745Y258597D01*
X222667Y259214D01*
X222687Y259836D01*
X222805Y260447D01*
X223017Y261032D01*
X223260Y261482D01*
X224383Y263368D01*
X225420Y265302D01*
X226369Y267281D01*
X227229Y269301D01*
X227997Y271357D01*
X228671Y273445D01*
X229251Y275562D01*
X229736Y277703D01*
X230123Y279863D01*
X230413Y282039D01*
X230605Y284225D01*
X230699Y286418D01*
X230694Y288613D01*
X230590Y290806D01*
X230388Y292991D01*
X230087Y295165D01*
X229690Y297324D01*
X229195Y299462D01*
X228606Y301576D01*
X227921Y303662D01*
X227144Y305714D01*
X226275Y307730D01*
X225316Y309704D01*
X224270Y311634D01*
X223249Y313339D01*
X223249Y207827D02*
X222965Y208381D01*
X222772Y208972D01*
X222674Y209587D01*
X222675Y210209D01*
X222774Y210823D01*
X222969Y211414D01*
X223254Y211967D01*
X223623Y212468D01*
X224067Y212905D01*
X224574Y213266D01*
X225131Y213542D01*
X225725Y213728D01*
X226341Y213817D01*
X226964Y213807D01*
X227577Y213700D01*
X228165Y213497D01*
X228714Y213204D01*
X229210Y212829D01*
X229640Y212379D01*
X229927Y211979D01*
X231141Y209949D01*
X232268Y207870D01*
X233308Y205746D01*
X234259Y203580D01*
X235118Y201376D01*
X235884Y199139D01*
X236557Y196872D01*
X237134Y194578D01*
X237616Y192262D01*
X238000Y189929D01*
X238286Y187581D01*
X238475Y185224D01*
X238564Y182860D01*
X238556Y180495D01*
X238448Y178132D01*
X238242Y175776D01*
X237938Y173431D01*
X237536Y171100D01*
X237038Y168788D01*
X236443Y166499D01*
X235754Y164237D01*
X234971Y162005D01*
X234095Y159808D01*
X233128Y157650D01*
X232073Y155533D01*
X230929Y153463D01*
X229926Y151799D01*
X229555Y151299D01*
X229110Y150865D01*
X228602Y150506D01*
X228043Y150231D01*
X227448Y150049D01*
X226832Y149962D01*
X226210Y149974D01*
X225597Y150083D01*
X225010Y150288D01*
X224462Y150583D01*
X223967Y150961D01*
X223539Y151412D01*
X223186Y151925D01*
X222920Y152488D01*
X222745Y153085D01*
X222667Y153702D01*
X222687Y154324D01*
X222805Y154935D01*
X223017Y155520D01*
X223260Y155970D01*
X224383Y157856D01*
X225420Y159790D01*
X226369Y161769D01*
X227229Y163789D01*
X227997Y165845D01*
X228671Y167934D01*
X229251Y170050D01*
X229736Y172191D01*
X230123Y174352D01*
X230413Y176527D01*
X230605Y178714D01*
X230699Y180906D01*
X230694Y183101D01*
X230590Y185294D01*
X230388Y187479D01*
X230087Y189653D01*
X229690Y191812D01*
X229195Y193951D01*
X228606Y196065D01*
X227921Y198150D01*
X227144Y200203D01*
X226275Y202218D01*
X225316Y204193D01*
X224270Y206122D01*
X223249Y207827D01*
X223249Y102315D02*
X222965Y102869D01*
X222772Y103460D01*
X222674Y104075D01*
X222675Y104697D01*
X222774Y105312D01*
X222969Y105903D01*
X223254Y106456D01*
X223623Y106957D01*
X224067Y107393D01*
X224574Y107754D01*
X225131Y108031D01*
X225725Y108216D01*
X226341Y108305D01*
X226964Y108296D01*
X227577Y108188D01*
X228165Y107986D01*
X228714Y107693D01*
X229210Y107317D01*
X229640Y106867D01*
X229927Y106467D01*
X231141Y104437D01*
X232268Y102358D01*
X233308Y100234D01*
X234259Y98068D01*
X235118Y95865D01*
X235884Y93627D01*
X236557Y91360D01*
X237134Y89066D01*
X237616Y86751D01*
X238000Y84417D01*
X238286Y82069D01*
X238475Y79712D01*
X238564Y77348D01*
X238556Y74983D01*
X238448Y72621D01*
X238242Y70265D01*
X237938Y67919D01*
X237536Y65588D01*
X237038Y63276D01*
X236443Y60987D01*
X235754Y58725D01*
X234971Y56493D01*
X234095Y54296D01*
X233128Y52138D01*
X232073Y50022D01*
X230929Y47951D01*
X229926Y46287D01*
X229555Y45788D01*
X229110Y45353D01*
X228602Y44994D01*
X228043Y44720D01*
X227448Y44537D01*
X226832Y44450D01*
X226210Y44462D01*
X225597Y44571D01*
X225010Y44776D01*
X224462Y45071D01*
X223967Y45449D01*
X223539Y45900D01*
X223186Y46413D01*
X222920Y46976D01*
X222745Y47573D01*
X222667Y48190D01*
X222687Y48812D01*
X222805Y49423D01*
X223017Y50008D01*
X223260Y50458D01*
X224383Y52344D01*
X225420Y54278D01*
X226369Y56257D01*
X227229Y58277D01*
X227997Y60333D01*
X228671Y62422D01*
X229251Y64539D01*
X229736Y66679D01*
X230123Y68840D01*
X230413Y71015D01*
X230605Y73202D01*
X230699Y75395D01*
X230694Y77589D01*
X230590Y79782D01*
X230388Y81967D01*
X230087Y84142D01*
X229690Y86300D01*
X229195Y88439D01*
X228606Y90553D01*
X227921Y92638D01*
X227144Y94691D01*
X226275Y96706D01*
X225316Y98681D01*
X224270Y100610D01*
X223249Y102315D01*
X-1Y3940D02*
Y359840D01*
X48Y360461D01*
X195Y361066D01*
X435Y361641D01*
X762Y362171D01*
X1170Y362642D01*
X1646Y363044D01*
X2179Y363365D01*
X2757Y363598D01*
X3364Y363738D01*
X3939Y363780D01*
X254329D01*
X254950Y363731D01*
X255555Y363584D01*
X256130Y363344D01*
X256660Y363016D01*
X257131Y362609D01*
X257533Y362133D01*
X257854Y361599D01*
X258087Y361022D01*
X258227Y360414D01*
X258269Y359840D01*
Y3940D01*
X258220Y3319D01*
X258073Y2713D01*
X257833Y2138D01*
X257505Y1609D01*
X257098Y1137D01*
X256622Y736D01*
X256088Y414D01*
X255511Y181D01*
X254903Y42D01*
X254329Y-0D01*
X3939D01*
X3318Y49D01*
X2712Y196D01*
X2138Y436D01*
X1608Y763D01*
X1136Y1170D01*
X735Y1647D01*
X413Y2180D01*
X180Y2758D01*
X41Y3365D01*
X-1Y3940D01*
X46276Y133849D02*
X45776Y134221D01*
X45342Y134667D01*
X44984Y135177D01*
X44710Y135736D01*
X44528Y136332D01*
X44442Y136948D01*
X44455Y137571D01*
X44565Y138184D01*
X44771Y138771D01*
X45067Y139319D01*
X45445Y139814D01*
X45897Y140242D01*
X46411Y140594D01*
X46973Y140861D01*
X47571Y141036D01*
X48189Y141114D01*
X48811Y141094D01*
X49423Y140975D01*
X50008Y140762D01*
X50440Y140531D01*
X52325Y139407D01*
X54259Y138369D01*
X56238Y137419D01*
X58257Y136559D01*
X60313Y135790D01*
X62401Y135114D01*
X64518Y134534D01*
X66658Y134048D01*
X68818Y133660D01*
X70994Y133369D01*
X73180Y133176D01*
X75373Y133081D01*
X77568Y133085D01*
X79760Y133188D01*
X81946Y133389D01*
X84120Y133689D01*
X86279Y134085D01*
X88418Y134579D01*
X90532Y135168D01*
X92618Y135851D01*
X94671Y136628D01*
X96687Y137496D01*
X98662Y138453D01*
X100591Y139499D01*
X102320Y140534D01*
X102874Y140817D01*
X103466Y141010D01*
X104082Y141106D01*
X104704Y141105D01*
X105319Y141005D01*
X105910Y140810D01*
X106463Y140524D01*
X106964Y140154D01*
X107401Y139710D01*
X107762Y139203D01*
X108038Y138645D01*
X108223Y138050D01*
X108312Y137434D01*
X108303Y136811D01*
X108196Y136198D01*
X107993Y135609D01*
X107700Y135059D01*
X107324Y134563D01*
X106874Y134132D01*
X106476Y133846D01*
X104446Y132632D01*
X104317Y132559D01*
X103801Y132210D01*
X103347Y131785D01*
X102966Y131292D01*
X102666Y130746D01*
X102457Y130160D01*
X102343Y129547D01*
X102327Y128925D01*
X102409Y128308D01*
X102587Y127711D01*
X102858Y127150D01*
X103213Y126639D01*
X103644Y126189D01*
X104141Y125814D01*
X104318Y125708D01*
X106352Y124499D01*
X106474Y124423D01*
X106974Y124051D01*
X107409Y123606D01*
X107768Y123097D01*
X108043Y122538D01*
X108226Y121943D01*
X108313Y121327D01*
X108302Y120704D01*
X108193Y120091D01*
X107988Y119503D01*
X107693Y118954D01*
X107316Y118459D01*
X106865Y118030D01*
X106352Y117677D01*
X105789Y117409D01*
X105192Y117234D01*
X104574Y117154D01*
X103952Y117173D01*
X103340Y117290D01*
X102755Y117502D01*
X102307Y117742D01*
X100422Y118865D01*
X98488Y119903D01*
X96509Y120853D01*
X94490Y121713D01*
X92434Y122481D01*
X90345Y123156D01*
X88228Y123737D01*
X86088Y124222D01*
X83927Y124610D01*
X81752Y124900D01*
X79566Y125093D01*
X77373Y125187D01*
X75178Y125182D01*
X72985Y125079D01*
X70800Y124877D01*
X68626Y124577D01*
X66467Y124180D01*
X64328Y123686D01*
X62214Y123097D01*
X60128Y122413D01*
X58076Y121636D01*
X56060Y120768D01*
X54085Y119810D01*
X52156Y118764D01*
X50443Y117738D01*
X49889Y117454D01*
X49297Y117260D01*
X48682Y117162D01*
X48059Y117162D01*
X47444Y117261D01*
X46853Y117455D01*
X46299Y117740D01*
X45797Y118109D01*
X45360Y118552D01*
X44998Y119058D01*
X44720Y119616D01*
X44534Y120210D01*
X44444Y120826D01*
X44452Y121449D01*
X44558Y122062D01*
X44760Y122652D01*
X45052Y123202D01*
X45427Y123699D01*
X45875Y124131D01*
X46281Y124422D01*
X48311Y125636D01*
X48438Y125708D01*
X48954Y126057D01*
X49408Y126482D01*
X49790Y126974D01*
X50089Y127521D01*
X50298Y128107D01*
X50413Y128719D01*
X50429Y129342D01*
X50347Y129959D01*
X50169Y130556D01*
X49899Y131117D01*
X49544Y131628D01*
X49112Y132077D01*
X48616Y132453D01*
X48438Y132560D01*
X46404Y133768D01*
X46276Y133849D01*
X46277Y239360D02*
X45778Y239732D01*
X45343Y240178D01*
X44985Y240687D01*
X44711Y241246D01*
X44528Y241842D01*
X44442Y242458D01*
X44455Y243081D01*
X44565Y243694D01*
X44770Y244282D01*
X45066Y244830D01*
X45444Y245324D01*
X45896Y245753D01*
X46409Y246105D01*
X46972Y246372D01*
X47570Y246547D01*
X48187Y246626D01*
X48810Y246606D01*
X49421Y246488D01*
X50006Y246275D01*
X50440Y246043D01*
X52325Y244919D01*
X54259Y243881D01*
X56238Y242931D01*
X58257Y242070D01*
X60313Y241302D01*
X62401Y240626D01*
X64518Y240045D01*
X66658Y239560D01*
X68818Y239172D01*
X70994Y238880D01*
X73180Y238688D01*
X75373Y238593D01*
X77568Y238597D01*
X79760Y238700D01*
X81946Y238901D01*
X84120Y239201D01*
X86279Y239597D01*
X88418Y240091D01*
X90532Y240680D01*
X92618Y241363D01*
X94671Y242139D01*
X96687Y243007D01*
X98662Y243965D01*
X100591Y245011D01*
X102320Y246046D01*
X102874Y246329D01*
X103466Y246522D01*
X104082Y246618D01*
X104704Y246617D01*
X105319Y246517D01*
X105910Y246322D01*
X106463Y246036D01*
X106964Y245666D01*
X107401Y245222D01*
X107762Y244714D01*
X108038Y244156D01*
X108223Y243562D01*
X108312Y242945D01*
X108303Y242323D01*
X108196Y241709D01*
X107993Y241121D01*
X107700Y240571D01*
X107324Y240075D01*
X106874Y239644D01*
X106476Y239358D01*
X104446Y238144D01*
X104317Y238071D01*
X103801Y237722D01*
X103347Y237296D01*
X102966Y236804D01*
X102666Y236258D01*
X102457Y235671D01*
X102343Y235059D01*
X102327Y234437D01*
X102409Y233819D01*
X102587Y233223D01*
X102858Y232662D01*
X103213Y232150D01*
X103644Y231701D01*
X104141Y231326D01*
X104318Y231220D01*
X106352Y230011D01*
X106474Y229935D01*
X106974Y229563D01*
X107409Y229118D01*
X107768Y228609D01*
X108043Y228050D01*
X108226Y227455D01*
X108313Y226838D01*
X108302Y226216D01*
X108193Y225603D01*
X107988Y225015D01*
X107693Y224466D01*
X107316Y223971D01*
X106865Y223542D01*
X106352Y223189D01*
X105789Y222921D01*
X105192Y222745D01*
X104574Y222666D01*
X103952Y222685D01*
X103340Y222802D01*
X102755Y223014D01*
X102307Y223254D01*
X100422Y224377D01*
X98488Y225415D01*
X96509Y226365D01*
X94490Y227225D01*
X92434Y227993D01*
X90345Y228668D01*
X88228Y229249D01*
X86088Y229733D01*
X83927Y230121D01*
X81752Y230412D01*
X79566Y230605D01*
X77373Y230699D01*
X75178Y230694D01*
X72985Y230591D01*
X70800Y230389D01*
X68626Y230089D01*
X66467Y229692D01*
X64328Y229198D01*
X62214Y228609D01*
X60128Y227925D01*
X58076Y227148D01*
X56060Y226280D01*
X54085Y225322D01*
X52156Y224276D01*
X50443Y223250D01*
X49889Y222965D01*
X49297Y222772D01*
X48682Y222674D01*
X48059Y222674D01*
X47444Y222772D01*
X46853Y222967D01*
X46299Y223252D01*
X45797Y223620D01*
X45360Y224064D01*
X44998Y224570D01*
X44720Y225128D01*
X44534Y225722D01*
X44444Y226338D01*
X44452Y226961D01*
X44558Y227574D01*
X44760Y228163D01*
X45052Y228713D01*
X45427Y229211D01*
X45875Y229642D01*
X46281Y229934D01*
X48311Y231148D01*
X48438Y231220D01*
X48954Y231568D01*
X49408Y231994D01*
X49790Y232486D01*
X50089Y233032D01*
X50298Y233619D01*
X50413Y234231D01*
X50429Y234853D01*
X50347Y235471D01*
X50169Y236067D01*
X49899Y236629D01*
X49544Y237140D01*
X49112Y237589D01*
X48616Y237965D01*
X48438Y238072D01*
X46404Y239280D01*
X46277Y239360D01*
X117740Y313333D02*
X117455Y313887D01*
X117261Y314478D01*
X117162Y315093D01*
X117162Y315716D01*
X117260Y316331D01*
X117453Y316923D01*
X117738Y317477D01*
X118106Y317979D01*
X118549Y318417D01*
X119055Y318779D01*
X119612Y319057D01*
X120206Y319244D01*
X120822Y319335D01*
X121445Y319328D01*
X122058Y319222D01*
X122648Y319021D01*
X123198Y318730D01*
X123696Y318356D01*
X124128Y317907D01*
X124421Y317500D01*
X125635Y315470D01*
X125708Y315342D01*
X126056Y314826D01*
X126482Y314372D01*
X126974Y313990D01*
X127520Y313691D01*
X128107Y313481D01*
X128719Y313367D01*
X129341Y313350D01*
X129959Y313432D01*
X130555Y313610D01*
X131117Y313881D01*
X131628Y314236D01*
X132077Y314667D01*
X132453Y315164D01*
X132560Y315342D01*
X133768Y317375D01*
X133845Y317497D01*
X134216Y317997D01*
X134661Y318432D01*
X135170Y318792D01*
X135729Y319066D01*
X136324Y319250D01*
X136940Y319337D01*
X137563Y319326D01*
X138176Y319216D01*
X138764Y319012D01*
X139313Y318717D01*
X139808Y318340D01*
X140237Y317889D01*
X140591Y317376D01*
X140858Y316814D01*
X141034Y316216D01*
X141113Y315599D01*
X141094Y314976D01*
X140978Y314365D01*
X140766Y313779D01*
X140534Y313344D01*
X139410Y311459D01*
X138372Y309525D01*
X137421Y307547D01*
X136561Y305528D01*
X135792Y303472D01*
X135116Y301384D01*
X134535Y299267D01*
X134049Y297127D01*
X133661Y294967D01*
X133369Y292791D01*
X133176Y290605D01*
X133081Y288412D01*
X133085Y286217D01*
X133188Y284025D01*
X133389Y281839D01*
X133688Y279665D01*
X134084Y277506D01*
X134577Y275367D01*
X135166Y273253D01*
X135849Y271167D01*
X136626Y269114D01*
X137493Y267098D01*
X138451Y265123D01*
X139496Y263193D01*
X140529Y261467D01*
X140814Y260913D01*
X141008Y260321D01*
X141106Y259706D01*
X141106Y259084D01*
X141007Y258469D01*
X140813Y257877D01*
X140528Y257323D01*
X140160Y256822D01*
X139716Y256384D01*
X139210Y256022D01*
X138652Y255744D01*
X138058Y255558D01*
X137442Y255468D01*
X136819Y255476D01*
X136206Y255582D01*
X135617Y255783D01*
X135067Y256075D01*
X134569Y256450D01*
X134138Y256899D01*
X133848Y257300D01*
X132635Y259330D01*
X132560Y259461D01*
X132211Y259977D01*
X131785Y260432D01*
X131293Y260813D01*
X130747Y261113D01*
X130161Y261322D01*
X129549Y261436D01*
X128926Y261453D01*
X128309Y261371D01*
X127712Y261193D01*
X127151Y260923D01*
X126639Y260567D01*
X126190Y260136D01*
X125815Y259639D01*
X125708Y259461D01*
X124499Y257428D01*
X124422Y257305D01*
X124051Y256805D01*
X123605Y256370D01*
X123097Y256011D01*
X122538Y255736D01*
X121942Y255553D01*
X121326Y255466D01*
X120703Y255478D01*
X120090Y255587D01*
X119502Y255792D01*
X118954Y256087D01*
X118459Y256465D01*
X118029Y256916D01*
X117676Y257429D01*
X117409Y257991D01*
X117233Y258588D01*
X117154Y259206D01*
X117174Y259829D01*
X117291Y260440D01*
X117503Y261026D01*
X117746Y261479D01*
X118869Y263364D01*
X119907Y265299D01*
X120856Y267277D01*
X121716Y269297D01*
X122484Y271353D01*
X123158Y273442D01*
X123739Y275558D01*
X124223Y277699D01*
X124611Y279859D01*
X124901Y282035D01*
X125093Y284221D01*
X125187Y286414D01*
X125182Y288609D01*
X125078Y290802D01*
X124876Y292987D01*
X124576Y295161D01*
X124179Y297320D01*
X123685Y299459D01*
X123095Y301573D01*
X122411Y303658D01*
X121633Y305711D01*
X120765Y307726D01*
X119806Y309701D01*
X118760Y311630D01*
X117740Y313333D01*
X117740Y102310D02*
X117455Y102863D01*
X117261Y103455D01*
X117162Y104070D01*
X117162Y104692D01*
X117260Y105307D01*
X117453Y105899D01*
X117738Y106453D01*
X118106Y106955D01*
X118548Y107393D01*
X119055Y107756D01*
X119612Y108034D01*
X120206Y108221D01*
X120822Y108312D01*
X121445Y108304D01*
X122058Y108199D01*
X122648Y107998D01*
X123198Y107706D01*
X123696Y107332D01*
X124128Y106884D01*
X124421Y106476D01*
X125635Y104446D01*
X125709Y104316D01*
X126058Y103800D01*
X126484Y103346D01*
X126977Y102965D01*
X127523Y102666D01*
X128110Y102457D01*
X128722Y102343D01*
X129344Y102327D01*
X129962Y102409D01*
X130558Y102588D01*
X131119Y102858D01*
X131630Y103214D01*
X132079Y103646D01*
X132454Y104143D01*
X132560Y104318D01*
X133768Y106352D01*
X133845Y106474D01*
X134216Y106973D01*
X134661Y107409D01*
X135170Y107768D01*
X135729Y108043D01*
X136324Y108226D01*
X136940Y108313D01*
X137563Y108302D01*
X138176Y108193D01*
X138764Y107988D01*
X139313Y107693D01*
X139808Y107316D01*
X140237Y106865D01*
X140590Y106352D01*
X140858Y105790D01*
X141034Y105193D01*
X141113Y104575D01*
X141094Y103953D01*
X140978Y103341D01*
X140766Y102755D01*
X140531Y102315D01*
X139407Y100430D01*
X138369Y98496D01*
X137419Y96517D01*
X136558Y94498D01*
X135790Y92442D01*
X135114Y90354D01*
X134533Y88237D01*
X134048Y86097D01*
X133660Y83936D01*
X133369Y81761D01*
X133176Y79575D01*
X133081Y77382D01*
X133085Y75187D01*
X133188Y72994D01*
X133390Y70809D01*
X133689Y68634D01*
X134086Y66476D01*
X134579Y64337D01*
X135168Y62223D01*
X135852Y60137D01*
X136628Y58084D01*
X137496Y56068D01*
X138454Y54093D01*
X139499Y52163D01*
X140530Y50442D01*
X140815Y49888D01*
X141008Y49296D01*
X141106Y48681D01*
X141106Y48059D01*
X141007Y47444D01*
X140813Y46852D01*
X140528Y46299D01*
X140159Y45797D01*
X139715Y45360D01*
X139209Y44998D01*
X138651Y44720D01*
X138057Y44534D01*
X137441Y44444D01*
X136818Y44452D01*
X136204Y44558D01*
X135615Y44760D01*
X135065Y45052D01*
X134568Y45427D01*
X134137Y45876D01*
X133848Y46278D01*
X132634Y48308D01*
X132560Y48437D01*
X132211Y48953D01*
X131786Y49408D01*
X131294Y49789D01*
X130748Y50089D01*
X130161Y50298D01*
X129549Y50413D01*
X128927Y50429D01*
X128309Y50347D01*
X127712Y50169D01*
X127151Y49899D01*
X126640Y49544D01*
X126191Y49113D01*
X125815Y48616D01*
X125708Y48438D01*
X124499Y46404D01*
X124422Y46280D01*
X124050Y45781D01*
X123604Y45346D01*
X123096Y44987D01*
X122537Y44712D01*
X121942Y44529D01*
X121325Y44443D01*
X120702Y44454D01*
X120089Y44564D01*
X119501Y44769D01*
X118953Y45064D01*
X118458Y45442D01*
X118029Y45893D01*
X117676Y46406D01*
X117409Y46968D01*
X117233Y47566D01*
X117154Y48183D01*
X117174Y48806D01*
X117291Y49417D01*
X117503Y50003D01*
X117744Y50452D01*
X118867Y52338D01*
X119905Y54272D01*
X120855Y56251D01*
X121714Y58270D01*
X122482Y60326D01*
X123157Y62415D01*
X123738Y64531D01*
X124222Y66672D01*
X124610Y68832D01*
X124901Y71008D01*
X125093Y73194D01*
X125187Y75387D01*
X125182Y77582D01*
X125079Y79775D01*
X124877Y81960D01*
X124577Y84134D01*
X124179Y86293D01*
X123685Y88431D01*
X123096Y90546D01*
X122412Y92631D01*
X121635Y94684D01*
X120766Y96700D01*
X119808Y98674D01*
X118762Y100604D01*
X117740Y102310D01*
Y207821D02*
X117455Y208375D01*
X117261Y208967D01*
X117162Y209581D01*
X117162Y210204D01*
X117260Y210819D01*
X117453Y211411D01*
X117738Y211965D01*
X118106Y212467D01*
X118548Y212905D01*
X119055Y213267D01*
X119612Y213546D01*
X120206Y213732D01*
X120822Y213823D01*
X121445Y213816D01*
X122058Y213710D01*
X122648Y213510D01*
X123198Y213218D01*
X123696Y212844D01*
X124128Y212396D01*
X124421Y211988D01*
X125635Y209958D01*
X125709Y209828D01*
X126058Y209312D01*
X126484Y208858D01*
X126977Y208477D01*
X127523Y208178D01*
X128110Y207969D01*
X128722Y207855D01*
X129344Y207839D01*
X129962Y207921D01*
X130558Y208100D01*
X131119Y208370D01*
X131630Y208726D01*
X132079Y209157D01*
X132454Y209654D01*
X132560Y209830D01*
X133768Y211863D01*
X133845Y211985D01*
X134216Y212485D01*
X134661Y212920D01*
X135170Y213280D01*
X135729Y213555D01*
X136324Y213738D01*
X136940Y213825D01*
X137563Y213814D01*
X138176Y213705D01*
X138764Y213500D01*
X139313Y213205D01*
X139808Y212828D01*
X140237Y212377D01*
X140590Y211864D01*
X140858Y211302D01*
X141034Y210704D01*
X141113Y210087D01*
X141094Y209464D01*
X140978Y208853D01*
X140766Y208267D01*
X140531Y207827D01*
X139407Y205941D01*
X138369Y204008D01*
X137418Y202029D01*
X136558Y200010D01*
X135790Y197954D01*
X135114Y195866D01*
X134533Y193749D01*
X134048Y191608D01*
X133660Y189448D01*
X133369Y187273D01*
X133176Y185086D01*
X133081Y182894D01*
X133085Y180699D01*
X133188Y178506D01*
X133390Y176321D01*
X133689Y174146D01*
X134086Y171988D01*
X134579Y169849D01*
X135168Y167735D01*
X135851Y165649D01*
X136628Y163596D01*
X137496Y161580D01*
X138454Y159605D01*
X139499Y157675D01*
X140529Y155955D01*
X140814Y155401D01*
X141008Y154809D01*
X141106Y154195D01*
X141106Y153572D01*
X141007Y152957D01*
X140813Y152365D01*
X140528Y151812D01*
X140160Y151310D01*
X139716Y150872D01*
X139210Y150510D01*
X138652Y150233D01*
X138058Y150046D01*
X137442Y149956D01*
X136819Y149964D01*
X136206Y150070D01*
X135617Y150271D01*
X135067Y150563D01*
X134569Y150938D01*
X134138Y151387D01*
X133848Y151788D01*
X132635Y153818D01*
X132560Y153950D01*
X132211Y154465D01*
X131785Y154920D01*
X131293Y155301D01*
X130747Y155601D01*
X130161Y155810D01*
X129549Y155925D01*
X128926Y155941D01*
X128309Y155859D01*
X127712Y155681D01*
X127151Y155411D01*
X126639Y155056D01*
X126190Y154624D01*
X125815Y154127D01*
X125708Y153950D01*
X124499Y151916D01*
X124422Y151793D01*
X124051Y151293D01*
X123605Y150858D01*
X123097Y150499D01*
X122538Y150224D01*
X121942Y150041D01*
X121326Y149954D01*
X120703Y149966D01*
X120090Y150075D01*
X119502Y150280D01*
X118954Y150575D01*
X118459Y150953D01*
X118029Y151404D01*
X117676Y151917D01*
X117409Y152479D01*
X117233Y153077D01*
X117154Y153694D01*
X117174Y154317D01*
X117291Y154928D01*
X117503Y155514D01*
X117746Y155967D01*
X118869Y157853D01*
X119907Y159787D01*
X120856Y161766D01*
X121716Y163785D01*
X122484Y165841D01*
X123158Y167930D01*
X123739Y170047D01*
X124223Y172187D01*
X124611Y174348D01*
X124901Y176523D01*
X125093Y178710D01*
X125187Y180903D01*
X125182Y183097D01*
X125078Y185290D01*
X124876Y187475D01*
X124576Y189650D01*
X124179Y191808D01*
X123685Y193947D01*
X123095Y196061D01*
X122411Y198146D01*
X121633Y200199D01*
X120765Y202215D01*
X119806Y204189D01*
X118760Y206119D01*
X117740Y207821D01*
X151788Y133848D02*
X151289Y134220D01*
X150855Y134667D01*
X150496Y135176D01*
X150222Y135735D01*
X150040Y136330D01*
X149954Y136947D01*
X149966Y137570D01*
X150077Y138183D01*
X150282Y138770D01*
X150578Y139318D01*
X150956Y139813D01*
X151408Y140242D01*
X151921Y140594D01*
X152484Y140861D01*
X153082Y141035D01*
X153700Y141114D01*
X154322Y141094D01*
X154933Y140976D01*
X155519Y140763D01*
X155959Y140527D01*
X157845Y139403D01*
X159779Y138365D01*
X161757Y137415D01*
X163777Y136555D01*
X165833Y135787D01*
X167921Y135112D01*
X170038Y134531D01*
X172178Y134047D01*
X174339Y133658D01*
X176514Y133368D01*
X178701Y133175D01*
X180893Y133081D01*
X183088Y133086D01*
X185281Y133189D01*
X187466Y133390D01*
X189641Y133690D01*
X191799Y134087D01*
X193938Y134581D01*
X196052Y135170D01*
X198138Y135854D01*
X200191Y136631D01*
X202206Y137499D01*
X204181Y138457D01*
X206111Y139503D01*
X207839Y140539D01*
X208394Y140821D01*
X208987Y141012D01*
X209602Y141107D01*
X210225Y141104D01*
X210839Y141003D01*
X211430Y140807D01*
X211983Y140519D01*
X212483Y140148D01*
X212918Y139703D01*
X213278Y139195D01*
X213553Y138637D01*
X213737Y138042D01*
X213825Y137425D01*
X213814Y136802D01*
X213705Y136189D01*
X213501Y135601D01*
X213207Y135052D01*
X212830Y134557D01*
X212379Y134127D01*
X211988Y133846D01*
X209958Y132632D01*
X209829Y132559D01*
X209313Y132210D01*
X208859Y131785D01*
X208477Y131292D01*
X208178Y130746D01*
X207969Y130160D01*
X207855Y129547D01*
X207839Y128925D01*
X207921Y128308D01*
X208099Y127711D01*
X208369Y127150D01*
X208725Y126639D01*
X209156Y126189D01*
X209653Y125814D01*
X209830Y125708D01*
X211863Y124499D01*
X211986Y124423D01*
X212486Y124051D01*
X212921Y123606D01*
X213280Y123097D01*
X213555Y122538D01*
X213738Y121943D01*
X213825Y121327D01*
X213814Y120704D01*
X213704Y120091D01*
X213500Y119503D01*
X213205Y118954D01*
X212827Y118459D01*
X212376Y118030D01*
X211863Y117677D01*
X211301Y117409D01*
X210704Y117234D01*
X210086Y117154D01*
X209464Y117173D01*
X208852Y117290D01*
X208267Y117502D01*
X207826Y117737D01*
X205941Y118861D01*
X204007Y119899D01*
X202029Y120849D01*
X200010Y121710D01*
X197954Y122478D01*
X195865Y123154D01*
X193749Y123735D01*
X191608Y124220D01*
X189448Y124608D01*
X187272Y124899D01*
X185086Y125092D01*
X182893Y125187D01*
X180698Y125182D01*
X178506Y125080D01*
X176320Y124878D01*
X174146Y124579D01*
X171987Y124182D01*
X169849Y123689D01*
X167734Y123100D01*
X165648Y122416D01*
X163596Y121640D01*
X161580Y120772D01*
X159605Y119814D01*
X157675Y118768D01*
X155954Y117738D01*
X155401Y117454D01*
X154809Y117260D01*
X154194Y117162D01*
X153571Y117162D01*
X152956Y117261D01*
X152365Y117455D01*
X151811Y117740D01*
X151309Y118109D01*
X150872Y118552D01*
X150510Y119059D01*
X150232Y119616D01*
X150046Y120210D01*
X149956Y120826D01*
X149964Y121449D01*
X150070Y122063D01*
X150272Y122652D01*
X150564Y123202D01*
X150939Y123699D01*
X151387Y124131D01*
X151792Y124422D01*
X153823Y125636D01*
X153950Y125708D01*
X154465Y126057D01*
X154920Y126482D01*
X155301Y126974D01*
X155601Y127521D01*
X155810Y128107D01*
X155925Y128719D01*
X155941Y129342D01*
X155859Y129959D01*
X155681Y130556D01*
X155411Y131117D01*
X155056Y131628D01*
X154624Y132077D01*
X154127Y132453D01*
X153950Y132560D01*
X151916Y133768D01*
X151788Y133848D01*
Y239360D02*
X151289Y239732D01*
X150855Y240178D01*
X150496Y240687D01*
X150222Y241247D01*
X150040Y241842D01*
X149954Y242459D01*
X149966Y243082D01*
X150077Y243694D01*
X150282Y244282D01*
X150578Y244830D01*
X150956Y245325D01*
X151408Y245754D01*
X151921Y246106D01*
X152484Y246372D01*
X153082Y246547D01*
X153700Y246625D01*
X154322Y246605D01*
X154933Y246487D01*
X155519Y246275D01*
X155959Y246039D01*
X157845Y244915D01*
X159779Y243877D01*
X161757Y242927D01*
X163777Y242067D01*
X165833Y241299D01*
X167921Y240624D01*
X170038Y240043D01*
X172178Y239558D01*
X174339Y239170D01*
X176514Y238880D01*
X178701Y238687D01*
X180893Y238593D01*
X183088Y238597D01*
X185281Y238701D01*
X187466Y238902D01*
X189641Y239202D01*
X191799Y239599D01*
X193938Y240093D01*
X196052Y240682D01*
X198138Y241366D01*
X200191Y242143D01*
X202206Y243011D01*
X204181Y243969D01*
X206111Y245015D01*
X207839Y246050D01*
X208394Y246333D01*
X208987Y246524D01*
X209602Y246619D01*
X210225Y246616D01*
X210839Y246515D01*
X211430Y246318D01*
X211983Y246031D01*
X212483Y245660D01*
X212918Y245215D01*
X213278Y244707D01*
X213553Y244148D01*
X213737Y243553D01*
X213825Y242937D01*
X213814Y242314D01*
X213705Y241701D01*
X213501Y241113D01*
X213207Y240564D01*
X212830Y240068D01*
X212379Y239639D01*
X211988Y239358D01*
X209958Y238144D01*
X209829Y238071D01*
X209313Y237722D01*
X208859Y237296D01*
X208477Y236804D01*
X208178Y236258D01*
X207969Y235671D01*
X207855Y235059D01*
X207839Y234437D01*
X207921Y233819D01*
X208099Y233223D01*
X208369Y232662D01*
X208725Y232150D01*
X209156Y231701D01*
X209653Y231326D01*
X209830Y231220D01*
X211863Y230011D01*
X211987Y229934D01*
X212487Y229562D01*
X212922Y229117D01*
X213281Y228608D01*
X213555Y228049D01*
X213738Y227454D01*
X213825Y226837D01*
X213814Y226215D01*
X213704Y225602D01*
X213499Y225014D01*
X213204Y224465D01*
X212827Y223970D01*
X212376Y223541D01*
X211862Y223188D01*
X211300Y222921D01*
X210703Y222745D01*
X210085Y222666D01*
X209463Y222685D01*
X208851Y222802D01*
X208266Y223015D01*
X207826Y223249D01*
X205941Y224373D01*
X204007Y225411D01*
X202029Y226361D01*
X200010Y227221D01*
X197954Y227990D01*
X195865Y228666D01*
X193749Y229246D01*
X191608Y229732D01*
X189448Y230120D01*
X187272Y230411D01*
X185086Y230604D01*
X182893Y230698D01*
X180698Y230694D01*
X178506Y230591D01*
X176320Y230390D01*
X174146Y230091D01*
X171987Y229694D01*
X169849Y229201D01*
X167734Y228611D01*
X165648Y227928D01*
X163596Y227151D01*
X161580Y226283D01*
X159605Y225326D01*
X157675Y224280D01*
X155954Y223250D01*
X155401Y222965D01*
X154809Y222772D01*
X154194Y222674D01*
X153571Y222674D01*
X152956Y222773D01*
X152365Y222967D01*
X151811Y223252D01*
X151309Y223620D01*
X150872Y224064D01*
X150510Y224570D01*
X150232Y225128D01*
X150046Y225722D01*
X149956Y226338D01*
X149964Y226961D01*
X150070Y227574D01*
X150272Y228163D01*
X150564Y228714D01*
X150939Y229211D01*
X151387Y229642D01*
X151792Y229934D01*
X153823Y231148D01*
X153950Y231220D01*
X154465Y231568D01*
X154920Y231994D01*
X155301Y232486D01*
X155601Y233032D01*
X155810Y233619D01*
X155925Y234231D01*
X155941Y234853D01*
X155859Y235471D01*
X155681Y236067D01*
X155411Y236629D01*
X155056Y237140D01*
X154624Y237589D01*
X154127Y237965D01*
X153950Y238072D01*
X151916Y239280D01*
X151788Y239360D01*
M02*
