*
%FSLAX25Y25*%
%MOIN*%
%ADD10R,0.020354X0.020354*%
%ADD11C,0.019213*%
%ADD12C,0.039567*%
%ADD13R,0.032677X0.032677*%
%ADD14R,0.024803X0.024803*%
%ADD15C,0.032677*%
%ADD16C,0.011024*%
%ADD17R,0.043701X0.043701*%
%ADD18C,0.019685*%
%ADD19C,0.040551*%
%IPPOS*%
%LNtl*%
%LPD*%
G54D10*
X88212Y70229D02*
Y73824D01*
G54D11*
X87195Y70172D02*
Y73881D01*
X89230Y70172D02*
Y73881D01*
G54D12*
X88212Y72027D03*
G54D10*
X80831Y70229D02*
Y73824D01*
G54D11*
X79813Y70172D02*
Y73881D01*
X81848Y70172D02*
Y73881D01*
G54D12*
X80831Y72027D03*
G54D10*
X35924Y67518D02*
X39519D01*
G54D11*
X35867Y68535D02*
X39576D01*
X35867Y66500D02*
X39576D01*
G54D12*
X37721Y67518D03*
G54D10*
X35924Y60136D02*
X39519D01*
G54D11*
X35867Y61153D02*
X39576D01*
X35867Y59118D02*
X39576D01*
G54D12*
X37721Y60136D03*
G54D10*
X98880Y99470D02*
X102474D01*
G54D11*
X98823Y100487D02*
X102531D01*
X98823Y98452D02*
X102531D01*
G54D12*
X100677Y99470D03*
G54D10*
X98880Y92088D02*
X102474D01*
G54D11*
X98823Y93106D02*
X102531D01*
X98823Y91070D02*
X102531D01*
G54D12*
X100677Y92088D03*
G54D10*
X55824Y82418D02*
X59419D01*
G54D11*
X55767Y83435D02*
X59476D01*
X55767Y81400D02*
X59476D01*
G54D12*
X57621Y82418D03*
G54D10*
X55824Y75036D02*
X59419D01*
G54D11*
X55767Y76053D02*
X59476D01*
X55767Y74018D02*
X59476D01*
G54D12*
X57621Y75036D03*
G54D10*
X46024Y60527D02*
X49619D01*
G54D11*
X45967Y61544D02*
X49676D01*
X45967Y59509D02*
X49676D01*
G54D12*
X47821Y60527D03*
G54D10*
X46024Y67909D02*
X49619D01*
G54D11*
X45967Y68926D02*
X49676D01*
X45967Y66891D02*
X49676D01*
G54D12*
X47821Y67909D03*
G54D10*
X80868Y101981D02*
Y105576D01*
G54D11*
X79850Y101924D02*
Y105633D01*
X81886Y101924D02*
Y105633D01*
G54D12*
X80868Y103779D03*
G54D10*
X73486Y101981D02*
Y105576D01*
G54D11*
X72469Y101924D02*
Y105633D01*
X74504Y101924D02*
Y105633D01*
G54D12*
X73486Y103779D03*
G54D10*
X65118Y39781D02*
Y43376D01*
G54D11*
X64100Y39724D02*
Y43433D01*
X66136Y39724D02*
Y43433D01*
G54D12*
X65118Y41579D03*
G54D10*
X57736Y39781D02*
Y43376D01*
G54D11*
X56719Y39724D02*
Y43433D01*
X58754Y39724D02*
Y43433D01*
G54D12*
X57736Y41579D03*
G54D10*
X112368Y50481D02*
Y54076D01*
G54D11*
X111350Y50424D02*
Y54133D01*
X113386Y50424D02*
Y54133D01*
G54D12*
X112368Y52279D03*
G54D10*
X104986Y50481D02*
Y54076D01*
G54D11*
X103969Y50424D02*
Y54133D01*
X106004Y50424D02*
Y54133D01*
G54D12*
X104986Y52279D03*
G54D13*
X87043Y110619D02*
X87437D01*
X87043Y103139D02*
X87437D01*
X94917Y106879D02*
X95311D01*
G54D10*
X58880Y107970D02*
X62474D01*
G54D11*
X58823Y108987D02*
X62531D01*
X58823Y106952D02*
X62531D01*
G54D12*
X60677Y107970D03*
G54D10*
X58880Y100588D02*
X62474D01*
G54D11*
X58823Y101606D02*
X62531D01*
X58823Y99570D02*
X62531D01*
G54D12*
X60677Y100588D03*
G54D10*
X50780D02*
X54374D01*
G54D11*
X50723Y101606D02*
X54431D01*
X50723Y99570D02*
X54431D01*
G54D12*
X52577Y100588D03*
G54D10*
X50780Y107970D02*
X54374D01*
G54D11*
X50723Y108987D02*
X54431D01*
X50723Y106952D02*
X54431D01*
G54D12*
X52577Y107970D03*
G54D10*
X116068Y82481D02*
Y86076D01*
G54D11*
X115050Y82424D02*
Y86133D01*
X117086Y82424D02*
Y86133D01*
G54D12*
X116068Y84279D03*
G54D10*
X108686Y82481D02*
Y86076D01*
G54D11*
X107669Y82424D02*
Y86133D01*
X109704Y82424D02*
Y86133D01*
G54D12*
X108686Y84279D03*
G54D10*
X106780Y99470D02*
X110374D01*
G54D11*
X106723Y100487D02*
X110431D01*
X106723Y98452D02*
X110431D01*
G54D12*
X108577Y99470D03*
G54D10*
X106780Y92088D02*
X110374D01*
G54D11*
X106723Y93106D02*
X110431D01*
X106723Y91070D02*
X110431D01*
G54D12*
X108577Y92088D03*
G54D10*
X36024Y74636D02*
X39619D01*
G54D11*
X35967Y75653D02*
X39676D01*
X35967Y73618D02*
X39676D01*
G54D12*
X37821Y74636D03*
G54D10*
X36024Y82018D02*
X39619D01*
G54D11*
X35967Y83035D02*
X39676D01*
X35967Y81000D02*
X39676D01*
G54D12*
X37821Y82018D03*
G54D10*
X46224Y74536D02*
X49819D01*
G54D11*
X46167Y75553D02*
X49876D01*
X46167Y73518D02*
X49876D01*
G54D12*
X48021Y74536D03*
G54D10*
X46224Y81918D02*
X49819D01*
G54D11*
X46167Y82935D02*
X49876D01*
X46167Y80900D02*
X49876D01*
G54D12*
X48021Y81918D03*
G54D10*
X49268Y50681D02*
Y54276D01*
G54D11*
X48250Y50624D02*
Y54333D01*
X50286Y50624D02*
Y54333D01*
G54D12*
X49268Y52479D03*
G54D10*
X41886Y50681D02*
Y54276D01*
G54D11*
X40869Y50624D02*
Y54333D01*
X42904Y50624D02*
Y54333D01*
G54D12*
X41886Y52479D03*
G54D10*
X95130Y49270D02*
X98724D01*
G54D11*
X95073Y50287D02*
X98781D01*
X95073Y48252D02*
X98781D01*
G54D12*
X96927Y49270D03*
G54D10*
X95130Y41888D02*
X98724D01*
G54D11*
X95073Y42906D02*
X98781D01*
X95073Y40870D02*
X98781D01*
G54D12*
X96927Y41888D03*
G54D10*
X95130Y55138D02*
X98724D01*
G54D11*
X95073Y56156D02*
X98781D01*
X95073Y54120D02*
X98781D01*
G54D12*
X96927Y55138D03*
G54D10*
X95130Y62520D02*
X98724D01*
G54D11*
X95073Y63537D02*
X98781D01*
X95073Y61502D02*
X98781D01*
G54D12*
X96927Y62520D03*
G54D10*
X55780Y57188D02*
X59374D01*
G54D11*
X55723Y58206D02*
X59431D01*
X55723Y56170D02*
X59431D01*
G54D12*
X57577Y57188D03*
G54D10*
X55780Y64570D02*
X59374D01*
G54D11*
X55723Y65587D02*
X59431D01*
X55723Y63552D02*
X59431D01*
G54D12*
X57577Y64570D03*
G54D10*
X111512Y59529D02*
Y63124D01*
G54D11*
X110495Y59472D02*
Y63181D01*
X112530Y59472D02*
Y63181D01*
G54D12*
X111512Y61327D03*
G54D10*
X104131Y59529D02*
Y63124D01*
G54D11*
X103113Y59472D02*
Y63181D01*
X105148Y59472D02*
Y63181D01*
G54D12*
X104131Y61327D03*
G54D14*
X67877Y81079D02*
X71617D01*
X67877Y86079D02*
X71617D01*
X67877Y91079D02*
X71617D01*
X67877Y96079D02*
X71617D01*
X89137D02*
X92877D01*
X89137Y91079D02*
X92877D01*
X89137Y86079D02*
X92877D01*
X89137Y81079D02*
X92877D01*
X65321Y64427D02*
X69062D01*
X65321Y59427D02*
X69062D01*
X65321Y54427D02*
X69062D01*
X65321Y49427D02*
X69062D01*
X86581D02*
X90321D01*
X86581Y54427D02*
X90321D01*
X86581Y59427D02*
X90321D01*
X86581Y64427D02*
X90321D01*
X52280Y94483D02*
X52674D01*
X52280Y88971D02*
X52674D01*
X45480Y89023D02*
X45874D01*
X45480Y94535D02*
X45874D01*
X39080Y94335D02*
X39474D01*
X39080Y88823D02*
X39474D01*
X58980Y94635D02*
X59374D01*
X58980Y89123D02*
X59374D01*
G54D15*
X95177Y72079D03*
X69927Y76829D03*
X88177Y45579D03*
X98031Y80933D03*
X56927Y53183D03*
Y47079D03*
X91427Y42079D03*
X68177Y70579D03*
G54D16*
X88451Y71788D02*
X88212Y72027D01*
X88451Y64427D02*
Y71788D01*
X71617Y81079D02*
X69747D01*
X76177D02*
X71617D01*
X76177Y97938D02*
Y81079D01*
X73486Y103779D02*
Y100629D01*
X76177Y97938D01*
X90525Y72027D02*
X88212D01*
X106966D02*
X90525D01*
X116068Y81129D02*
X106966Y72027D01*
X116068Y84279D02*
Y81129D01*
X73486Y103779D02*
Y107888D01*
X76217Y110619D02*
X87240D01*
X73486Y107888D02*
X76217Y110619D01*
X79677Y117779D02*
Y111079D01*
X69747Y78913D02*
Y81079D01*
X69677Y78843D02*
X69747Y78913D01*
X69927Y76829D02*
X69677Y78843D01*
X86600Y103779D02*
X87240Y103139D01*
X80868Y103779D02*
X86600D01*
X100677Y99470D02*
X108577D01*
X91007Y98244D02*
Y96079D01*
X92233Y99470D02*
X91007Y98244D01*
X100677Y99470D02*
X92233D01*
X91007Y99372D02*
X87240Y103139D01*
X91007Y96079D02*
Y99372D01*
X80831Y95232D02*
Y72027D01*
X91007Y96079D02*
X81677D01*
X80831Y95232D01*
X69062Y49427D02*
X67192D01*
X81427Y49579D02*
X69062Y49427D01*
X81177Y68079D02*
X81427Y49579D01*
X80831Y72027D02*
Y68877D01*
X81177Y68079D01*
X37821Y67618D02*
X37721Y67518D01*
X37821Y74636D02*
Y67618D01*
X91007Y86079D02*
Y81079D01*
X52577Y113679D02*
X53677Y114779D01*
X52577Y107970D02*
Y113679D01*
X45677Y106579D02*
X52577Y107970D01*
X40911Y102079D02*
X45677Y106579D01*
X35939Y97106D02*
X40911Y102079D01*
X35939Y89799D02*
X35939Y97106D01*
X39277Y88823D02*
X36915D01*
X35939Y89799D01*
X37721Y56643D02*
X41886Y52479D01*
X37721Y60136D02*
Y56643D01*
X86172Y49427D02*
X88451D01*
X77977Y41231D02*
X86172Y49427D01*
X77977Y38279D02*
Y41231D01*
X35921Y88823D02*
X36915D01*
X32177Y86579D02*
X35921Y88823D01*
X32177Y67579D02*
Y86579D01*
X37721Y60136D02*
X34572D01*
X32177Y67579D01*
X88451Y47261D02*
X88177Y46987D01*
X88451Y49427D02*
Y47261D01*
X88177Y46987D02*
Y45579D01*
X91153Y80933D02*
X91007Y81079D01*
X98031Y80933D02*
X91153D01*
X52726Y38489D02*
X41886Y49329D01*
X56177Y36579D02*
X52726Y38489D01*
X77977Y38279D02*
Y35326D01*
X78177Y35126D01*
X77677Y31329D01*
X41886Y49329D02*
Y52479D01*
X77677Y31329D02*
X72177D01*
X61754Y33290D01*
X56177Y36579D01*
X100677Y92088D02*
X108577D01*
Y84388D02*
X108686Y84279D01*
X108577Y92088D02*
Y84388D01*
X99668Y91079D02*
X100677Y92088D01*
X91007Y91079D02*
X99668D01*
X62420Y75036D02*
X57621D01*
X63177Y75079D02*
X62420Y75036D01*
X63277Y83644D02*
X63177Y75079D01*
X69747Y86079D02*
X65712D01*
X63277Y83644D01*
X48021Y68109D02*
X47821Y67909D01*
X48021Y74536D02*
Y68109D01*
X48521Y75036D02*
X48021Y74536D01*
X57621Y75036D02*
X48521D01*
X47821Y53925D02*
X49268Y52479D01*
X47821Y60527D02*
Y53925D01*
X52927Y50329D02*
X49268Y52479D01*
X61927Y50329D02*
X52927D01*
X62677Y52829D02*
X61927Y50329D01*
X67192Y54427D02*
X62677Y54579D01*
Y52829D01*
X69868Y36829D02*
X65118Y41579D01*
X71177Y36829D02*
X69868D01*
X57577Y54875D02*
X56927Y54225D01*
X57577Y57188D02*
Y54875D01*
X56927Y54225D02*
Y53183D01*
Y42388D02*
X57736Y41579D01*
X56927Y47079D02*
Y42388D01*
X111512Y53134D02*
X112368Y52279D01*
X111512Y61327D02*
Y53134D01*
X99177Y37079D02*
X85677Y36829D01*
X104927Y41329D02*
X99177Y37079D01*
X104927Y49070D02*
Y41329D01*
X104986Y52279D02*
Y49129D01*
X104927Y49070D01*
X45477Y94335D02*
X45677Y94535D01*
X39277Y94335D02*
X45477D01*
X60677Y113779D02*
X61677Y114779D01*
X60677Y107970D02*
Y113779D01*
X95114Y113094D02*
Y109438D01*
X90430Y117779D02*
X95114Y113094D01*
Y109438D02*
Y106879D01*
X87477Y117779D02*
X90430D01*
X96927Y49270D02*
Y55138D01*
X89163D02*
X88451Y54427D01*
X96927Y55138D02*
X89163D01*
X65712Y91079D02*
X63612Y88979D01*
X69747Y91079D02*
X65712D01*
X63468Y89123D02*
X59177D01*
X63612Y88979D02*
X63468Y89123D01*
X57621Y87567D02*
X59177Y89123D01*
X57621Y82418D02*
Y87567D01*
X52629Y89123D02*
X52477Y88971D01*
X59177Y89123D02*
X52629D01*
X45729Y88971D02*
X45677Y89023D01*
X52477Y88971D02*
X45729D01*
X45677Y84262D02*
X48021Y81918D01*
X45677Y89023D02*
Y84262D01*
X47921Y82018D02*
X48021Y81918D01*
X37821Y82018D02*
X47921D01*
X65186Y96079D02*
X60677Y100588D01*
X69747Y96079D02*
X65186D01*
X59177Y99088D02*
X60677Y100588D01*
X59177Y94635D02*
Y99088D01*
X52477Y100488D02*
X52577Y100588D01*
X52477Y94483D02*
Y100488D01*
X52629Y94635D02*
X52477Y94483D01*
X59177Y94635D02*
X52629D01*
X67192Y64427D02*
Y59427D01*
X57720Y64427D02*
X57577Y64570D01*
X67192Y64427D02*
X57720D01*
X68177Y65412D02*
X67192Y64427D01*
X68177Y70579D02*
Y65412D01*
X96809Y42079D02*
X96927Y42197D01*
X91427Y42079D02*
X96809D01*
X89742Y60718D02*
X88451Y59427D01*
X97121Y60718D02*
X89742D01*
X97731Y61327D02*
X97121Y60718D01*
X104131Y61327D02*
X97731D01*
G54D17*
X61677Y114779D03*
X79677Y117779D03*
X53677Y114779D03*
X71177Y36829D03*
X87477Y117779D03*
X78427Y36829D03*
X85677D03*
%LPC*%
X85677Y36829D02*
G54D18*
X125197Y76378D02*
X125148Y78572D01*
X125000Y80762D01*
X124753Y82943D01*
X124409Y85111D01*
X123968Y87261D01*
X123431Y89389D01*
X122799Y91491D01*
X122072Y93562D01*
X121254Y95599D01*
X120345Y97596D01*
X119346Y99551D01*
X118261Y101459D01*
X117092Y103316D01*
X115840Y105119D01*
X114508Y106864D01*
X113099Y108547D01*
X111616Y110165D01*
X110062Y111714D01*
X108440Y113193D01*
X106753Y114597D01*
X105004Y115923D01*
X103198Y117170D01*
X101337Y118334D01*
X99426Y119414D01*
X97468Y120406D01*
X95468Y121310D01*
X93429Y122122D01*
X91356Y122842D01*
X89252Y123469D01*
X87122Y124000D01*
X84971Y124435D01*
X82802Y124772D01*
X80621Y125012D01*
X78430Y125154D01*
X76236Y125197D01*
X74042Y125141D01*
X71852Y124987D01*
X69672Y124734D01*
X67505Y124384D01*
X65356Y123936D01*
X63230Y123393D01*
X61130Y122755D01*
X59061Y122022D01*
X57027Y121198D01*
X55032Y120283D01*
X53080Y119279D01*
X51175Y118188D01*
X49321Y117013D01*
X47522Y115756D01*
X45781Y114419D01*
X44102Y113006D01*
X42489Y111518D01*
X40944Y109959D01*
X39470Y108332D01*
X38071Y106641D01*
X36749Y104889D01*
X35508Y103079D01*
X34349Y101215D01*
X33275Y99300D01*
X32288Y97340D01*
X31391Y95337D01*
X30584Y93296D01*
X29870Y91220D01*
X29250Y89115D01*
X28725Y86984D01*
X28296Y84831D01*
X27965Y82661D01*
X27732Y80479D01*
X27596Y78288D01*
X27560Y76094D01*
X27622Y73900D01*
X27783Y71711D01*
X28042Y69531D01*
X28398Y67366D01*
X28852Y65218D01*
X29401Y63093D01*
X30046Y60995D01*
X30784Y58928D01*
X31615Y56896D01*
X32536Y54904D01*
X33545Y52955D01*
X34641Y51054D01*
X35822Y49203D01*
X37084Y47408D01*
X38426Y45671D01*
X39845Y43996D01*
X41337Y42387D01*
X42900Y40846D01*
X44531Y39377D01*
X46226Y37983D01*
X47983Y36667D01*
X49796Y35430D01*
X51664Y34277D01*
X53581Y33209D01*
X55544Y32228D01*
X57550Y31336D01*
X59593Y30535D01*
X61671Y29827D01*
X63778Y29213D01*
X65911Y28694D01*
X68065Y28272D01*
X70235Y27947D01*
X72419Y27720D01*
X74610Y27591D01*
X76804Y27561D01*
X78998Y27629D01*
X81187Y27796D01*
X83365Y28062D01*
X85530Y28425D01*
X87676Y28884D01*
X89799Y29440D01*
X91896Y30091D01*
X93960Y30835D01*
X95990Y31672D01*
X97979Y32598D01*
X99925Y33613D01*
X101824Y34715D01*
X103671Y35901D01*
X105462Y37169D01*
X107195Y38515D01*
X108866Y39939D01*
X110471Y41436D01*
X112007Y43004D01*
X113471Y44639D01*
X114860Y46338D01*
X116172Y48098D01*
X117403Y49916D01*
X118551Y51786D01*
X119613Y53707D01*
X120589Y55673D01*
X121475Y57681D01*
X122269Y59727D01*
X122972Y61807D01*
X123579Y63916D01*
X124092Y66050D01*
X124508Y68205D01*
X124827Y70376D01*
X125047Y72560D01*
X125170Y74752D01*
X125197Y76378D01*
%LPD*%
X125197Y76378D02*
G54D10*
X88212Y175741D02*
Y179336D01*
G54D11*
X87195Y175684D02*
Y179393D01*
X89230Y175684D02*
Y179393D01*
G54D12*
X88212Y177539D03*
G54D10*
X80831Y175741D02*
Y179336D01*
G54D11*
X79813Y175684D02*
Y179393D01*
X81848Y175684D02*
Y179393D01*
G54D12*
X80831Y177539D03*
G54D10*
X35924Y173029D02*
X39519D01*
G54D11*
X35867Y174047D02*
X39576D01*
X35867Y172012D02*
X39576D01*
G54D12*
X37721Y173029D03*
G54D10*
X35924Y165648D02*
X39519D01*
G54D11*
X35867Y166665D02*
X39576D01*
X35867Y164630D02*
X39576D01*
G54D12*
X37721Y165648D03*
G54D10*
X98880Y204981D02*
X102474D01*
G54D11*
X98823Y205999D02*
X102531D01*
X98823Y203964D02*
X102531D01*
G54D12*
X100677Y204981D03*
G54D10*
X98880Y197600D02*
X102474D01*
G54D11*
X98823Y198617D02*
X102531D01*
X98823Y196582D02*
X102531D01*
G54D12*
X100677Y197600D03*
G54D10*
X55824Y187929D02*
X59419D01*
G54D11*
X55767Y188947D02*
X59476D01*
X55767Y186912D02*
X59476D01*
G54D12*
X57621Y187929D03*
G54D10*
X55824Y180548D02*
X59419D01*
G54D11*
X55767Y181565D02*
X59476D01*
X55767Y179530D02*
X59476D01*
G54D12*
X57621Y180548D03*
G54D10*
X46024Y166039D02*
X49619D01*
G54D11*
X45967Y167056D02*
X49676D01*
X45967Y165021D02*
X49676D01*
G54D12*
X47821Y166039D03*
G54D10*
X46024Y173420D02*
X49619D01*
G54D11*
X45967Y174438D02*
X49676D01*
X45967Y172403D02*
X49676D01*
G54D12*
X47821Y173420D03*
G54D10*
X80868Y207493D02*
Y211088D01*
G54D11*
X79850Y207436D02*
Y211145D01*
X81886Y207436D02*
Y211145D01*
G54D12*
X80868Y209291D03*
G54D10*
X73486Y207493D02*
Y211088D01*
G54D11*
X72469Y207436D02*
Y211145D01*
X74504Y207436D02*
Y211145D01*
G54D12*
X73486Y209291D03*
G54D10*
X65118Y145293D02*
Y148888D01*
G54D11*
X64100Y145236D02*
Y148945D01*
X66136Y145236D02*
Y148945D01*
G54D12*
X65118Y147091D03*
G54D10*
X57736Y145293D02*
Y148888D01*
G54D11*
X56719Y145236D02*
Y148945D01*
X58754Y145236D02*
Y148945D01*
G54D12*
X57736Y147091D03*
G54D10*
X112368Y155993D02*
Y159588D01*
G54D11*
X111350Y155936D02*
Y159645D01*
X113386Y155936D02*
Y159645D01*
G54D12*
X112368Y157791D03*
G54D10*
X104986Y155993D02*
Y159588D01*
G54D11*
X103969Y155936D02*
Y159645D01*
X106004Y155936D02*
Y159645D01*
G54D12*
X104986Y157791D03*
G54D13*
X87043Y216131D02*
X87437D01*
X87043Y208650D02*
X87437D01*
X94917Y212391D02*
X95311D01*
G54D10*
X58880Y213481D02*
X62474D01*
G54D11*
X58823Y214499D02*
X62531D01*
X58823Y212464D02*
X62531D01*
G54D12*
X60677Y213481D03*
G54D10*
X58880Y206100D02*
X62474D01*
G54D11*
X58823Y207117D02*
X62531D01*
X58823Y205082D02*
X62531D01*
G54D12*
X60677Y206100D03*
G54D10*
X50780D02*
X54374D01*
G54D11*
X50723Y207117D02*
X54431D01*
X50723Y205082D02*
X54431D01*
G54D12*
X52577Y206100D03*
G54D10*
X50780Y213481D02*
X54374D01*
G54D11*
X50723Y214499D02*
X54431D01*
X50723Y212464D02*
X54431D01*
G54D12*
X52577Y213481D03*
G54D10*
X116068Y187993D02*
Y191588D01*
G54D11*
X115050Y187936D02*
Y191645D01*
X117086Y187936D02*
Y191645D01*
G54D12*
X116068Y189791D03*
G54D10*
X108686Y187993D02*
Y191588D01*
G54D11*
X107669Y187936D02*
Y191645D01*
X109704Y187936D02*
Y191645D01*
G54D12*
X108686Y189791D03*
G54D10*
X106780Y204981D02*
X110374D01*
G54D11*
X106723Y205999D02*
X110431D01*
X106723Y203964D02*
X110431D01*
G54D12*
X108577Y204981D03*
G54D10*
X106780Y197600D02*
X110374D01*
G54D11*
X106723Y198617D02*
X110431D01*
X106723Y196582D02*
X110431D01*
G54D12*
X108577Y197600D03*
G54D10*
X36024Y180148D02*
X39619D01*
G54D11*
X35967Y181165D02*
X39676D01*
X35967Y179130D02*
X39676D01*
G54D12*
X37821Y180148D03*
G54D10*
X36024Y187529D02*
X39619D01*
G54D11*
X35967Y188547D02*
X39676D01*
X35967Y186512D02*
X39676D01*
G54D12*
X37821Y187529D03*
G54D10*
X46224Y180048D02*
X49819D01*
G54D11*
X46167Y181065D02*
X49876D01*
X46167Y179030D02*
X49876D01*
G54D12*
X48021Y180048D03*
G54D10*
X46224Y187429D02*
X49819D01*
G54D11*
X46167Y188447D02*
X49876D01*
X46167Y186412D02*
X49876D01*
G54D12*
X48021Y187429D03*
G54D10*
X49268Y156193D02*
Y159788D01*
G54D11*
X48250Y156136D02*
Y159845D01*
X50286Y156136D02*
Y159845D01*
G54D12*
X49268Y157991D03*
G54D10*
X41886Y156193D02*
Y159788D01*
G54D11*
X40869Y156136D02*
Y159845D01*
X42904Y156136D02*
Y159845D01*
G54D12*
X41886Y157991D03*
G54D10*
X95130Y154781D02*
X98724D01*
G54D11*
X95073Y155799D02*
X98781D01*
X95073Y153764D02*
X98781D01*
G54D12*
X96927Y154781D03*
G54D10*
X95130Y147400D02*
X98724D01*
G54D11*
X95073Y148417D02*
X98781D01*
X95073Y146382D02*
X98781D01*
G54D12*
X96927Y147400D03*
G54D10*
X95130Y160650D02*
X98724D01*
G54D11*
X95073Y161667D02*
X98781D01*
X95073Y159632D02*
X98781D01*
G54D12*
X96927Y160650D03*
G54D10*
X95130Y168031D02*
X98724D01*
G54D11*
X95073Y169049D02*
X98781D01*
X95073Y167014D02*
X98781D01*
G54D12*
X96927Y168031D03*
G54D10*
X55780Y162700D02*
X59374D01*
G54D11*
X55723Y163717D02*
X59431D01*
X55723Y161682D02*
X59431D01*
G54D12*
X57577Y162700D03*
G54D10*
X55780Y170081D02*
X59374D01*
G54D11*
X55723Y171099D02*
X59431D01*
X55723Y169064D02*
X59431D01*
G54D12*
X57577Y170081D03*
G54D10*
X111512Y165041D02*
Y168636D01*
G54D11*
X110495Y164984D02*
Y168693D01*
X112530Y164984D02*
Y168693D01*
G54D12*
X111512Y166839D03*
G54D10*
X104131Y165041D02*
Y168636D01*
G54D11*
X103113Y164984D02*
Y168693D01*
X105148Y164984D02*
Y168693D01*
G54D12*
X104131Y166839D03*
G54D14*
X67877Y186591D02*
X71617D01*
X67877Y191591D02*
X71617D01*
X67877Y196591D02*
X71617D01*
X67877Y201591D02*
X71617D01*
X89137D02*
X92877D01*
X89137Y196591D02*
X92877D01*
X89137Y191591D02*
X92877D01*
X89137Y186591D02*
X92877D01*
X65321Y169939D02*
X69062D01*
X65321Y164939D02*
X69062D01*
X65321Y159939D02*
X69062D01*
X65321Y154939D02*
X69062D01*
X86581D02*
X90321D01*
X86581Y159939D02*
X90321D01*
X86581Y164939D02*
X90321D01*
X86581Y169939D02*
X90321D01*
X52280Y199994D02*
X52674D01*
X52280Y194483D02*
X52674D01*
X45480Y194535D02*
X45874D01*
X45480Y200046D02*
X45874D01*
X39080Y199846D02*
X39474D01*
X39080Y194335D02*
X39474D01*
X58980Y200146D02*
X59374D01*
X58980Y194635D02*
X59374D01*
G54D15*
X95177Y177591D03*
X69927Y182341D03*
X88177Y151091D03*
X98031Y186445D03*
X56927Y158695D03*
Y152591D03*
X91427Y147591D03*
X68177Y176091D03*
G54D16*
X88451Y177300D02*
X88212Y177539D01*
X88451Y169939D02*
Y177300D01*
X71617Y186591D02*
X69747D01*
X76177D02*
X71617D01*
X76177Y203450D02*
Y186591D01*
X73486Y209291D02*
Y206141D01*
X76177Y203450D01*
X90525Y177539D02*
X88212D01*
X106966D02*
X90525D01*
X116068Y186641D02*
X106966Y177539D01*
X116068Y189791D02*
Y186641D01*
X73486Y209291D02*
Y213400D01*
X76217Y216131D02*
X87240D01*
X73486Y213400D02*
X76217Y216131D01*
X79677Y223291D02*
Y216591D01*
X69747Y184425D02*
Y186591D01*
X69677Y184355D02*
X69747Y184425D01*
X69927Y182341D02*
X69677Y184355D01*
X86600Y209291D02*
X87240Y208650D01*
X80868Y209291D02*
X86600D01*
X100677Y204981D02*
X108577D01*
X91007Y203756D02*
Y201591D01*
X92233Y204981D02*
X91007Y203756D01*
X100677Y204981D02*
X92233D01*
X91007Y204883D02*
X87240Y208650D01*
X91007Y201591D02*
Y204883D01*
X80831Y200744D02*
Y177539D01*
X91007Y201591D02*
X81677D01*
X80831Y200744D01*
X69062Y154939D02*
X67192D01*
X81427Y155091D02*
X69062Y154939D01*
X81177Y173591D02*
X81427Y155091D01*
X80831Y177539D02*
Y174389D01*
X81177Y173591D01*
X37821Y173129D02*
X37721Y173029D01*
X37821Y180148D02*
Y173129D01*
X91007Y191591D02*
Y186591D01*
X52577Y219191D02*
X53677Y220291D01*
X52577Y213481D02*
Y219191D01*
X45677Y212091D02*
X52577Y213481D01*
X40911Y207591D02*
X45677Y212091D01*
X35939Y202618D02*
X40911Y207591D01*
X35939Y195311D02*
X35939Y202618D01*
X39277Y194335D02*
X36915D01*
X35939Y195311D01*
X37721Y162155D02*
X41886Y157991D01*
X37721Y165648D02*
Y162155D01*
X86172Y154939D02*
X88451D01*
X77977Y146743D02*
X86172Y154939D01*
X77977Y143791D02*
Y146743D01*
X35921Y194335D02*
X36915D01*
X32177Y192091D02*
X35921Y194335D01*
X32177Y173091D02*
Y192091D01*
X37721Y165648D02*
X34572D01*
X32177Y173091D01*
X88451Y152773D02*
X88177Y152499D01*
X88451Y154939D02*
Y152773D01*
X88177Y152499D02*
Y151091D01*
X91153Y186445D02*
X91007Y186591D01*
X98031Y186445D02*
X91153D01*
X52726Y144001D02*
X41886Y154841D01*
X56177Y142091D02*
X52726Y144001D01*
X77977Y143791D02*
Y140838D01*
X78177Y140638D01*
X77677Y136841D01*
X41886Y154841D02*
Y157991D01*
X77677Y136841D02*
X72177D01*
X61754Y138802D01*
X56177Y142091D01*
X100677Y197600D02*
X108577D01*
Y189900D02*
X108686Y189791D01*
X108577Y197600D02*
Y189900D01*
X99668Y196591D02*
X100677Y197600D01*
X91007Y196591D02*
X99668D01*
X62420Y180548D02*
X57621D01*
X63177Y180591D02*
X62420Y180548D01*
X63277Y189156D02*
X63177Y180591D01*
X69747Y191591D02*
X65712D01*
X63277Y189156D01*
X48021Y173620D02*
X47821Y173420D01*
X48021Y180048D02*
Y173620D01*
X48521Y180548D02*
X48021Y180048D01*
X57621Y180548D02*
X48521D01*
X47821Y159437D02*
X49268Y157991D01*
X47821Y166039D02*
Y159437D01*
X52927Y155841D02*
X49268Y157991D01*
X61927Y155841D02*
X52927D01*
X62677Y158341D02*
X61927Y155841D01*
X67192Y159939D02*
X62677Y160091D01*
Y158341D01*
X69868Y142341D02*
X65118Y147091D01*
X71177Y142341D02*
X69868D01*
X57577Y160387D02*
X56927Y159737D01*
X57577Y162700D02*
Y160387D01*
X56927Y159737D02*
Y158695D01*
Y147900D02*
X57736Y147091D01*
X56927Y152591D02*
Y147900D01*
X111512Y158646D02*
X112368Y157791D01*
X111512Y166839D02*
Y158646D01*
X99177Y142591D02*
X85677Y142341D01*
X104927Y146841D02*
X99177Y142591D01*
X104927Y154582D02*
Y146841D01*
X104986Y157791D02*
Y154641D01*
X104927Y154582D01*
X45477Y199846D02*
X45677Y200046D01*
X39277Y199846D02*
X45477D01*
X60677Y219291D02*
X61677Y220291D01*
X60677Y213481D02*
Y219291D01*
X95114Y218606D02*
Y214950D01*
X90430Y223291D02*
X95114Y218606D01*
Y214950D02*
Y212391D01*
X87477Y223291D02*
X90430D01*
X96927Y154781D02*
Y160650D01*
X89163D02*
X88451Y159939D01*
X96927Y160650D02*
X89163D01*
X65712Y196591D02*
X63612Y194491D01*
X69747Y196591D02*
X65712D01*
X63468Y194635D02*
X59177D01*
X63612Y194491D02*
X63468Y194635D01*
X57621Y193079D02*
X59177Y194635D01*
X57621Y187929D02*
Y193079D01*
X52629Y194635D02*
X52477Y194483D01*
X59177Y194635D02*
X52629D01*
X45729Y194483D02*
X45677Y194535D01*
X52477Y194483D02*
X45729D01*
X45677Y189774D02*
X48021Y187429D01*
X45677Y194535D02*
Y189774D01*
X47921Y187529D02*
X48021Y187429D01*
X37821Y187529D02*
X47921D01*
X65186Y201591D02*
X60677Y206100D01*
X69747Y201591D02*
X65186D01*
X59177Y204600D02*
X60677Y206100D01*
X59177Y200146D02*
Y204600D01*
X52477Y206000D02*
X52577Y206100D01*
X52477Y199994D02*
Y206000D01*
X52629Y200146D02*
X52477Y199994D01*
X59177Y200146D02*
X52629D01*
X67192Y169939D02*
Y164939D01*
X57720Y169939D02*
X57577Y170081D01*
X67192Y169939D02*
X57720D01*
X68177Y170924D02*
X67192Y169939D01*
X68177Y176091D02*
Y170924D01*
X96809Y147591D02*
X96927Y147709D01*
X91427Y147591D02*
X96809D01*
X89742Y166229D02*
X88451Y164939D01*
X97121Y166229D02*
X89742D01*
X97731Y166839D02*
X97121Y166229D01*
X104131Y166839D02*
X97731D01*
G54D17*
X61677Y220291D03*
X79677Y223291D03*
X53677Y220291D03*
X71177Y142341D03*
X87477Y223291D03*
X78427Y142341D03*
X85677D03*
%LPC*%
X85677Y142341D02*
G54D18*
X125197Y181890D02*
X125148Y184084D01*
X125000Y186274D01*
X124753Y188455D01*
X124409Y190623D01*
X123968Y192773D01*
X123431Y194901D01*
X122799Y197003D01*
X122072Y199074D01*
X121254Y201110D01*
X120345Y203108D01*
X119346Y205063D01*
X118261Y206971D01*
X117092Y208828D01*
X115840Y210631D01*
X114508Y212375D01*
X113099Y214059D01*
X111616Y215677D01*
X110062Y217226D01*
X108440Y218705D01*
X106753Y220108D01*
X105004Y221435D01*
X103198Y222682D01*
X101337Y223846D01*
X99426Y224926D01*
X97468Y225918D01*
X95468Y226821D01*
X93429Y227634D01*
X91356Y228354D01*
X89252Y228981D01*
X87122Y229512D01*
X84971Y229946D01*
X82802Y230284D01*
X80621Y230524D01*
X78430Y230666D01*
X76236Y230708D01*
X74042Y230653D01*
X71852Y230498D01*
X69672Y230246D01*
X67505Y229896D01*
X65356Y229448D01*
X63230Y228905D01*
X61130Y228266D01*
X59061Y227534D01*
X57027Y226710D01*
X55032Y225794D01*
X53080Y224791D01*
X51175Y223700D01*
X49321Y222525D01*
X47522Y221268D01*
X45781Y219931D01*
X44102Y218517D01*
X42489Y217030D01*
X40944Y215471D01*
X39470Y213844D01*
X38071Y212153D01*
X36749Y210401D01*
X35508Y208591D01*
X34349Y206726D01*
X33275Y204812D01*
X32288Y202852D01*
X31391Y200849D01*
X30584Y198808D01*
X29870Y196732D01*
X29250Y194627D01*
X28725Y192496D01*
X28296Y190343D01*
X27965Y188173D01*
X27732Y185991D01*
X27596Y183800D01*
X27560Y181606D01*
X27622Y179412D01*
X27783Y177223D01*
X28042Y175043D01*
X28398Y172877D01*
X28852Y170730D01*
X29401Y168605D01*
X30046Y166507D01*
X30784Y164440D01*
X31615Y162408D01*
X32536Y160416D01*
X33545Y158467D01*
X34641Y156565D01*
X35822Y154715D01*
X37084Y152920D01*
X38426Y151183D01*
X39845Y149508D01*
X41337Y147898D01*
X42900Y146358D01*
X44531Y144889D01*
X46226Y143495D01*
X47983Y142178D01*
X49796Y140942D01*
X51664Y139789D01*
X53581Y138721D01*
X55544Y137739D01*
X57550Y136848D01*
X59593Y136047D01*
X61671Y135339D01*
X63778Y134725D01*
X65911Y134206D01*
X68065Y133784D01*
X70235Y133459D01*
X72419Y133232D01*
X74610Y133103D01*
X76804Y133073D01*
X78998Y133141D01*
X81187Y133308D01*
X83365Y133574D01*
X85530Y133936D01*
X87676Y134396D01*
X89799Y134952D01*
X91896Y135603D01*
X93960Y136347D01*
X95990Y137183D01*
X97979Y138110D01*
X99925Y139125D01*
X101824Y140227D01*
X103671Y141413D01*
X105462Y142680D01*
X107195Y144027D01*
X108866Y145451D01*
X110471Y146948D01*
X112007Y148516D01*
X113471Y150151D01*
X114860Y151850D01*
X116172Y153610D01*
X117403Y155427D01*
X118551Y157298D01*
X119613Y159219D01*
X120589Y161185D01*
X121475Y163193D01*
X122269Y165239D01*
X122972Y167318D01*
X123579Y169427D01*
X124092Y171562D01*
X124508Y173717D01*
X124827Y175888D01*
X125047Y178072D01*
X125170Y180263D01*
X125197Y181890D01*
%LPD*%
X125197Y181890D02*
G54D10*
X88212Y281253D02*
Y284848D01*
G54D11*
X87195Y281196D02*
Y284905D01*
X89230Y281196D02*
Y284905D01*
G54D12*
X88212Y283050D03*
G54D10*
X80831Y281253D02*
Y284848D01*
G54D11*
X79813Y281196D02*
Y284905D01*
X81848Y281196D02*
Y284905D01*
G54D12*
X80831Y283050D03*
G54D10*
X35924Y278541D02*
X39519D01*
G54D11*
X35867Y279559D02*
X39576D01*
X35867Y277524D02*
X39576D01*
G54D12*
X37721Y278541D03*
G54D10*
X35924Y271159D02*
X39519D01*
G54D11*
X35867Y272177D02*
X39576D01*
X35867Y270142D02*
X39576D01*
G54D12*
X37721Y271159D03*
G54D10*
X98880Y310493D02*
X102474D01*
G54D11*
X98823Y311511D02*
X102531D01*
X98823Y309476D02*
X102531D01*
G54D12*
X100677Y310493D03*
G54D10*
X98880Y303111D02*
X102474D01*
G54D11*
X98823Y304129D02*
X102531D01*
X98823Y302094D02*
X102531D01*
G54D12*
X100677Y303111D03*
G54D10*
X55824Y293441D02*
X59419D01*
G54D11*
X55767Y294459D02*
X59476D01*
X55767Y292424D02*
X59476D01*
G54D12*
X57621Y293441D03*
G54D10*
X55824Y286059D02*
X59419D01*
G54D11*
X55767Y287077D02*
X59476D01*
X55767Y285042D02*
X59476D01*
G54D12*
X57621Y286059D03*
G54D10*
X46024Y271550D02*
X49619D01*
G54D11*
X45967Y272568D02*
X49676D01*
X45967Y270533D02*
X49676D01*
G54D12*
X47821Y271550D03*
G54D10*
X46024Y278932D02*
X49619D01*
G54D11*
X45967Y279950D02*
X49676D01*
X45967Y277914D02*
X49676D01*
G54D12*
X47821Y278932D03*
G54D10*
X80868Y313005D02*
Y316600D01*
G54D11*
X79850Y312948D02*
Y316657D01*
X81886Y312948D02*
Y316657D01*
G54D12*
X80868Y314802D03*
G54D10*
X73486Y313005D02*
Y316600D01*
G54D11*
X72469Y312948D02*
Y316657D01*
X74504Y312948D02*
Y316657D01*
G54D12*
X73486Y314802D03*
G54D10*
X65118Y250805D02*
Y254400D01*
G54D11*
X64100Y250748D02*
Y254457D01*
X66136Y250748D02*
Y254457D01*
G54D12*
X65118Y252602D03*
G54D10*
X57736Y250805D02*
Y254400D01*
G54D11*
X56719Y250748D02*
Y254457D01*
X58754Y250748D02*
Y254457D01*
G54D12*
X57736Y252602D03*
G54D10*
X112368Y261505D02*
Y265100D01*
G54D11*
X111350Y261448D02*
Y265157D01*
X113386Y261448D02*
Y265157D01*
G54D12*
X112368Y263302D03*
G54D10*
X104986Y261505D02*
Y265100D01*
G54D11*
X103969Y261448D02*
Y265157D01*
X106004Y261448D02*
Y265157D01*
G54D12*
X104986Y263302D03*
G54D13*
X87043Y321643D02*
X87437D01*
X87043Y314162D02*
X87437D01*
X94917Y317902D02*
X95311D01*
G54D10*
X58880Y318993D02*
X62474D01*
G54D11*
X58823Y320011D02*
X62531D01*
X58823Y317976D02*
X62531D01*
G54D12*
X60677Y318993D03*
G54D10*
X58880Y311611D02*
X62474D01*
G54D11*
X58823Y312629D02*
X62531D01*
X58823Y310594D02*
X62531D01*
G54D12*
X60677Y311611D03*
G54D10*
X50780D02*
X54374D01*
G54D11*
X50723Y312629D02*
X54431D01*
X50723Y310594D02*
X54431D01*
G54D12*
X52577Y311611D03*
G54D10*
X50780Y318993D02*
X54374D01*
G54D11*
X50723Y320011D02*
X54431D01*
X50723Y317976D02*
X54431D01*
G54D12*
X52577Y318993D03*
G54D10*
X116068Y293505D02*
Y297100D01*
G54D11*
X115050Y293448D02*
Y297157D01*
X117086Y293448D02*
Y297157D01*
G54D12*
X116068Y295302D03*
G54D10*
X108686Y293505D02*
Y297100D01*
G54D11*
X107669Y293448D02*
Y297157D01*
X109704Y293448D02*
Y297157D01*
G54D12*
X108686Y295302D03*
G54D10*
X106780Y310493D02*
X110374D01*
G54D11*
X106723Y311511D02*
X110431D01*
X106723Y309476D02*
X110431D01*
G54D12*
X108577Y310493D03*
G54D10*
X106780Y303111D02*
X110374D01*
G54D11*
X106723Y304129D02*
X110431D01*
X106723Y302094D02*
X110431D01*
G54D12*
X108577Y303111D03*
G54D10*
X36024Y285659D02*
X39619D01*
G54D11*
X35967Y286677D02*
X39676D01*
X35967Y284642D02*
X39676D01*
G54D12*
X37821Y285659D03*
G54D10*
X36024Y293041D02*
X39619D01*
G54D11*
X35967Y294059D02*
X39676D01*
X35967Y292024D02*
X39676D01*
G54D12*
X37821Y293041D03*
G54D10*
X46224Y285559D02*
X49819D01*
G54D11*
X46167Y286577D02*
X49876D01*
X46167Y284542D02*
X49876D01*
G54D12*
X48021Y285559D03*
G54D10*
X46224Y292941D02*
X49819D01*
G54D11*
X46167Y293959D02*
X49876D01*
X46167Y291924D02*
X49876D01*
G54D12*
X48021Y292941D03*
G54D10*
X49268Y261705D02*
Y265300D01*
G54D11*
X48250Y261648D02*
Y265357D01*
X50286Y261648D02*
Y265357D01*
G54D12*
X49268Y263502D03*
G54D10*
X41886Y261705D02*
Y265300D01*
G54D11*
X40869Y261648D02*
Y265357D01*
X42904Y261648D02*
Y265357D01*
G54D12*
X41886Y263502D03*
G54D10*
X95130Y260293D02*
X98724D01*
G54D11*
X95073Y261311D02*
X98781D01*
X95073Y259276D02*
X98781D01*
G54D12*
X96927Y260293D03*
G54D10*
X95130Y252911D02*
X98724D01*
G54D11*
X95073Y253929D02*
X98781D01*
X95073Y251894D02*
X98781D01*
G54D12*
X96927Y252911D03*
G54D10*
X95130Y266161D02*
X98724D01*
G54D11*
X95073Y267179D02*
X98781D01*
X95073Y265144D02*
X98781D01*
G54D12*
X96927Y266161D03*
G54D10*
X95130Y273543D02*
X98724D01*
G54D11*
X95073Y274561D02*
X98781D01*
X95073Y272526D02*
X98781D01*
G54D12*
X96927Y273543D03*
G54D10*
X55780Y268211D02*
X59374D01*
G54D11*
X55723Y269229D02*
X59431D01*
X55723Y267194D02*
X59431D01*
G54D12*
X57577Y268211D03*
G54D10*
X55780Y275593D02*
X59374D01*
G54D11*
X55723Y276611D02*
X59431D01*
X55723Y274576D02*
X59431D01*
G54D12*
X57577Y275593D03*
G54D10*
X111512Y270553D02*
Y274148D01*
G54D11*
X110495Y270496D02*
Y274205D01*
X112530Y270496D02*
Y274205D01*
G54D12*
X111512Y272350D03*
G54D10*
X104131Y270553D02*
Y274148D01*
G54D11*
X103113Y270496D02*
Y274205D01*
X105148Y270496D02*
Y274205D01*
G54D12*
X104131Y272350D03*
G54D14*
X67877Y292102D02*
X71617D01*
X67877Y297102D02*
X71617D01*
X67877Y302102D02*
X71617D01*
X67877Y307102D02*
X71617D01*
X89137D02*
X92877D01*
X89137Y302102D02*
X92877D01*
X89137Y297102D02*
X92877D01*
X89137Y292102D02*
X92877D01*
X65321Y275450D02*
X69062D01*
X65321Y270450D02*
X69062D01*
X65321Y265450D02*
X69062D01*
X65321Y260450D02*
X69062D01*
X86581D02*
X90321D01*
X86581Y265450D02*
X90321D01*
X86581Y270450D02*
X90321D01*
X86581Y275450D02*
X90321D01*
X52280Y305506D02*
X52674D01*
X52280Y299994D02*
X52674D01*
X45480Y300046D02*
X45874D01*
X45480Y305558D02*
X45874D01*
X39080Y305358D02*
X39474D01*
X39080Y299846D02*
X39474D01*
X58980Y305658D02*
X59374D01*
X58980Y300146D02*
X59374D01*
G54D15*
X95177Y283102D03*
X69927Y287852D03*
X88177Y256602D03*
X98031Y291957D03*
X56927Y264207D03*
Y258102D03*
X91427Y253102D03*
X68177Y281602D03*
G54D16*
X88451Y282811D02*
X88212Y283050D01*
X88451Y275450D02*
Y282811D01*
X71617Y292102D02*
X69747D01*
X76177D02*
X71617D01*
X76177Y308962D02*
Y292102D01*
X73486Y314802D02*
Y311653D01*
X76177Y308962D01*
X90525Y283050D02*
X88212D01*
X106966D02*
X90525D01*
X116068Y292153D02*
X106966Y283050D01*
X116068Y295302D02*
Y292153D01*
X73486Y314802D02*
Y318911D01*
X76217Y321643D02*
X87240D01*
X73486Y318911D02*
X76217Y321643D01*
X79677Y328802D02*
Y322102D01*
X69747Y289937D02*
Y292102D01*
X69677Y289867D02*
X69747Y289937D01*
X69927Y287852D02*
X69677Y289867D01*
X86600Y314802D02*
X87240Y314162D01*
X80868Y314802D02*
X86600D01*
X100677Y310493D02*
X108577D01*
X91007Y309268D02*
Y307102D01*
X92233Y310493D02*
X91007Y309268D01*
X100677Y310493D02*
X92233D01*
X91007Y310395D02*
X87240Y314162D01*
X91007Y307102D02*
Y310395D01*
X80831Y306256D02*
Y283050D01*
X91007Y307102D02*
X81677D01*
X80831Y306256D01*
X69062Y260450D02*
X67192D01*
X81427Y260602D02*
X69062Y260450D01*
X81177Y279102D02*
X81427Y260602D01*
X80831Y283050D02*
Y279901D01*
X81177Y279102D01*
X37821Y278641D02*
X37721Y278541D01*
X37821Y285659D02*
Y278641D01*
X91007Y297102D02*
Y292102D01*
X52577Y324702D02*
X53677Y325802D01*
X52577Y318993D02*
Y324702D01*
X45677Y317602D02*
X52577Y318993D01*
X40911Y313102D02*
X45677Y317602D01*
X35939Y308130D02*
X40911Y313102D01*
X35939Y300823D02*
X35939Y308130D01*
X39277Y299846D02*
X36915D01*
X35939Y300823D01*
X37721Y267667D02*
X41886Y263502D01*
X37721Y271159D02*
Y267667D01*
X86172Y260450D02*
X88451D01*
X77977Y252255D02*
X86172Y260450D01*
X77977Y249302D02*
Y252255D01*
X35921Y299846D02*
X36915D01*
X32177Y297602D02*
X35921Y299846D01*
X32177Y278602D02*
Y297602D01*
X37721Y271159D02*
X34572D01*
X32177Y278602D01*
X88451Y258285D02*
X88177Y258011D01*
X88451Y260450D02*
Y258285D01*
X88177Y258011D02*
Y256602D01*
X91153Y291957D02*
X91007Y292102D01*
X98031Y291957D02*
X91153D01*
X52726Y249513D02*
X41886Y260353D01*
X56177Y247602D02*
X52726Y249513D01*
X77977Y249302D02*
Y246350D01*
X78177Y246150D01*
X77677Y242352D01*
X41886Y260353D02*
Y263502D01*
X77677Y242352D02*
X72177D01*
X61754Y244314D01*
X56177Y247602D01*
X100677Y303111D02*
X108577D01*
Y295411D02*
X108686Y295302D01*
X108577Y303111D02*
Y295411D01*
X99668Y302102D02*
X100677Y303111D01*
X91007Y302102D02*
X99668D01*
X62420Y286059D02*
X57621D01*
X63177Y286102D02*
X62420Y286059D01*
X63277Y294668D02*
X63177Y286102D01*
X69747Y297102D02*
X65712D01*
X63277Y294668D01*
X48021Y279132D02*
X47821Y278932D01*
X48021Y285559D02*
Y279132D01*
X48521Y286059D02*
X48021Y285559D01*
X57621Y286059D02*
X48521D01*
X47821Y264949D02*
X49268Y263502D01*
X47821Y271550D02*
Y264949D01*
X52927Y261352D02*
X49268Y263502D01*
X61927Y261352D02*
X52927D01*
X62677Y263852D02*
X61927Y261352D01*
X67192Y265450D02*
X62677Y265602D01*
Y263852D01*
X69868Y247852D02*
X65118Y252602D01*
X71177Y247852D02*
X69868D01*
X57577Y265898D02*
X56927Y265248D01*
X57577Y268211D02*
Y265898D01*
X56927Y265248D02*
Y264207D01*
Y253411D02*
X57736Y252602D01*
X56927Y258102D02*
Y253411D01*
X111512Y264158D02*
X112368Y263302D01*
X111512Y272350D02*
Y264158D01*
X99177Y248102D02*
X85677Y247852D01*
X104927Y252352D02*
X99177Y248102D01*
X104927Y260094D02*
Y252352D01*
X104986Y263302D02*
Y260153D01*
X104927Y260094D01*
X45477Y305358D02*
X45677Y305558D01*
X39277Y305358D02*
X45477D01*
X60677Y324802D02*
X61677Y325802D01*
X60677Y318993D02*
Y324802D01*
X95114Y324118D02*
Y320461D01*
X90430Y328802D02*
X95114Y324118D01*
Y320461D02*
Y317902D01*
X87477Y328802D02*
X90430D01*
X96927Y260293D02*
Y266161D01*
X89163D02*
X88451Y265450D01*
X96927Y266161D02*
X89163D01*
X65712Y302102D02*
X63612Y300002D01*
X69747Y302102D02*
X65712D01*
X63468Y300146D02*
X59177D01*
X63612Y300002D02*
X63468Y300146D01*
X57621Y298591D02*
X59177Y300146D01*
X57621Y293441D02*
Y298591D01*
X52629Y300146D02*
X52477Y299994D01*
X59177Y300146D02*
X52629D01*
X45729Y299994D02*
X45677Y300046D01*
X52477Y299994D02*
X45729D01*
X45677Y295286D02*
X48021Y292941D01*
X45677Y300046D02*
Y295286D01*
X47921Y293041D02*
X48021Y292941D01*
X37821Y293041D02*
X47921D01*
X65186Y307102D02*
X60677Y311611D01*
X69747Y307102D02*
X65186D01*
X59177Y310111D02*
X60677Y311611D01*
X59177Y305658D02*
Y310111D01*
X52477Y311511D02*
X52577Y311611D01*
X52477Y305506D02*
Y311511D01*
X52629Y305658D02*
X52477Y305506D01*
X59177Y305658D02*
X52629D01*
X67192Y275450D02*
Y270450D01*
X57720Y275450D02*
X57577Y275593D01*
X67192Y275450D02*
X57720D01*
X68177Y276436D02*
X67192Y275450D01*
X68177Y281602D02*
Y276436D01*
X96809Y253102D02*
X96927Y253220D01*
X91427Y253102D02*
X96809D01*
X89742Y271741D02*
X88451Y270450D01*
X97121Y271741D02*
X89742D01*
X97731Y272350D02*
X97121Y271741D01*
X104131Y272350D02*
X97731D01*
G54D17*
X61677Y325802D03*
X79677Y328802D03*
X53677Y325802D03*
X71177Y247852D03*
X87477Y328802D03*
X78427Y247852D03*
X85677D03*
%LPC*%
X85677Y247852D02*
G54D18*
X125197Y287402D02*
X125148Y289596D01*
X125000Y291786D01*
X124753Y293967D01*
X124409Y296135D01*
X123968Y298285D01*
X123431Y300413D01*
X122799Y302514D01*
X122072Y304586D01*
X121254Y306622D01*
X120345Y308620D01*
X119346Y310575D01*
X118261Y312483D01*
X117092Y314340D01*
X115840Y316143D01*
X114508Y317887D01*
X113099Y319570D01*
X111616Y321188D01*
X110062Y322738D01*
X108440Y324216D01*
X106753Y325620D01*
X105004Y326947D01*
X103198Y328194D01*
X101337Y329358D01*
X99426Y330437D01*
X97468Y331430D01*
X95468Y332333D01*
X93429Y333146D01*
X91356Y333866D01*
X89252Y334492D01*
X87122Y335023D01*
X84971Y335458D01*
X82802Y335796D01*
X80621Y336036D01*
X78430Y336177D01*
X76236Y336220D01*
X74042Y336165D01*
X71852Y336010D01*
X69672Y335758D01*
X67505Y335407D01*
X65356Y334960D01*
X63230Y334417D01*
X61130Y333778D01*
X59061Y333046D01*
X57027Y332221D01*
X55032Y331306D01*
X53080Y330302D01*
X51175Y329212D01*
X49321Y328037D01*
X47522Y326780D01*
X45781Y325443D01*
X44102Y324029D01*
X42489Y322541D01*
X40944Y320983D01*
X39470Y319356D01*
X38071Y317665D01*
X36749Y315912D01*
X35508Y314102D01*
X34349Y312238D01*
X33275Y310324D01*
X32288Y308364D01*
X31391Y306361D01*
X30584Y304319D01*
X29870Y302244D01*
X29250Y300139D01*
X28725Y298007D01*
X28296Y295855D01*
X27965Y293685D01*
X27732Y291503D01*
X27596Y289312D01*
X27560Y287117D01*
X27622Y284923D01*
X27783Y282734D01*
X28042Y280555D01*
X28398Y278389D01*
X28852Y276242D01*
X29401Y274117D01*
X30046Y272019D01*
X30784Y269952D01*
X31615Y267920D01*
X32536Y265928D01*
X33545Y263979D01*
X34641Y262077D01*
X35822Y260227D01*
X37084Y258431D01*
X38426Y256694D01*
X39845Y255020D01*
X41337Y253410D01*
X42900Y251870D01*
X44531Y250401D01*
X46226Y249007D01*
X47983Y247690D01*
X49796Y246454D01*
X51664Y245301D01*
X53581Y244232D01*
X55544Y243251D01*
X57550Y242359D01*
X59593Y241559D01*
X61671Y240851D01*
X63778Y240237D01*
X65911Y239718D01*
X68065Y239296D01*
X70235Y238971D01*
X72419Y238744D01*
X74610Y238615D01*
X76804Y238585D01*
X78998Y238653D01*
X81187Y238820D01*
X83365Y239085D01*
X85530Y239448D01*
X87676Y239908D01*
X89799Y240464D01*
X91896Y241115D01*
X93960Y241859D01*
X95990Y242695D01*
X97979Y243622D01*
X99925Y244637D01*
X101824Y245739D01*
X103671Y246925D01*
X105462Y248192D01*
X107195Y249539D01*
X108866Y250963D01*
X110471Y252460D01*
X112007Y254027D01*
X113471Y255663D01*
X114860Y257362D01*
X116172Y259122D01*
X117403Y260939D01*
X118551Y262810D01*
X119613Y264730D01*
X120589Y266697D01*
X121475Y268705D01*
X122269Y270751D01*
X122972Y272830D01*
X123579Y274939D01*
X124092Y277073D01*
X124508Y279228D01*
X124827Y281400D01*
X125047Y283584D01*
X125170Y285775D01*
X125197Y287402D01*
%LPD*%
X125197Y287402D02*
G54D10*
X193724Y70229D02*
Y73824D01*
G54D11*
X192707Y70172D02*
Y73881D01*
X194742Y70172D02*
Y73881D01*
G54D12*
X193724Y72027D03*
G54D10*
X186342Y70229D02*
Y73824D01*
G54D11*
X185325Y70172D02*
Y73881D01*
X187360Y70172D02*
Y73881D01*
G54D12*
X186342Y72027D03*
G54D10*
X141436Y67518D02*
X145031D01*
G54D11*
X141379Y68535D02*
X145088D01*
X141379Y66500D02*
X145088D01*
G54D12*
X143233Y67518D03*
G54D10*
X141436Y60136D02*
X145031D01*
G54D11*
X141379Y61153D02*
X145088D01*
X141379Y59118D02*
X145088D01*
G54D12*
X143233Y60136D03*
G54D10*
X204392Y99470D02*
X207986D01*
G54D11*
X204335Y100487D02*
X208043D01*
X204335Y98452D02*
X208043D01*
G54D12*
X206189Y99470D03*
G54D10*
X204392Y92088D02*
X207986D01*
G54D11*
X204335Y93106D02*
X208043D01*
X204335Y91070D02*
X208043D01*
G54D12*
X206189Y92088D03*
G54D10*
X161336Y82418D02*
X164931D01*
G54D11*
X161279Y83435D02*
X164988D01*
X161279Y81400D02*
X164988D01*
G54D12*
X163133Y82418D03*
G54D10*
X161336Y75036D02*
X164931D01*
G54D11*
X161279Y76053D02*
X164988D01*
X161279Y74018D02*
X164988D01*
G54D12*
X163133Y75036D03*
G54D10*
X151536Y60527D02*
X155131D01*
G54D11*
X151479Y61544D02*
X155188D01*
X151479Y59509D02*
X155188D01*
G54D12*
X153333Y60527D03*
G54D10*
X151536Y67909D02*
X155131D01*
G54D11*
X151479Y68926D02*
X155188D01*
X151479Y66891D02*
X155188D01*
G54D12*
X153333Y67909D03*
G54D10*
X186380Y101981D02*
Y105576D01*
G54D11*
X185362Y101924D02*
Y105633D01*
X187398Y101924D02*
Y105633D01*
G54D12*
X186380Y103779D03*
G54D10*
X178998Y101981D02*
Y105576D01*
G54D11*
X177980Y101924D02*
Y105633D01*
X180016Y101924D02*
Y105633D01*
G54D12*
X178998Y103779D03*
G54D10*
X170630Y39781D02*
Y43376D01*
G54D11*
X169612Y39724D02*
Y43433D01*
X171648Y39724D02*
Y43433D01*
G54D12*
X170630Y41579D03*
G54D10*
X163248Y39781D02*
Y43376D01*
G54D11*
X162230Y39724D02*
Y43433D01*
X164266Y39724D02*
Y43433D01*
G54D12*
X163248Y41579D03*
G54D10*
X217880Y50481D02*
Y54076D01*
G54D11*
X216862Y50424D02*
Y54133D01*
X218898Y50424D02*
Y54133D01*
G54D12*
X217880Y52279D03*
G54D10*
X210498Y50481D02*
Y54076D01*
G54D11*
X209480Y50424D02*
Y54133D01*
X211516Y50424D02*
Y54133D01*
G54D12*
X210498Y52279D03*
G54D13*
X192555Y110619D02*
X192949D01*
X192555Y103139D02*
X192949D01*
X200429Y106879D02*
X200823D01*
G54D10*
X164392Y107970D02*
X167986D01*
G54D11*
X164335Y108987D02*
X168043D01*
X164335Y106952D02*
X168043D01*
G54D12*
X166189Y107970D03*
G54D10*
X164392Y100588D02*
X167986D01*
G54D11*
X164335Y101606D02*
X168043D01*
X164335Y99570D02*
X168043D01*
G54D12*
X166189Y100588D03*
G54D10*
X156292D02*
X159886D01*
G54D11*
X156235Y101606D02*
X159943D01*
X156235Y99570D02*
X159943D01*
G54D12*
X158089Y100588D03*
G54D10*
X156292Y107970D02*
X159886D01*
G54D11*
X156235Y108987D02*
X159943D01*
X156235Y106952D02*
X159943D01*
G54D12*
X158089Y107970D03*
G54D10*
X221580Y82481D02*
Y86076D01*
G54D11*
X220562Y82424D02*
Y86133D01*
X222598Y82424D02*
Y86133D01*
G54D12*
X221580Y84279D03*
G54D10*
X214198Y82481D02*
Y86076D01*
G54D11*
X213180Y82424D02*
Y86133D01*
X215216Y82424D02*
Y86133D01*
G54D12*
X214198Y84279D03*
G54D10*
X212292Y99470D02*
X215886D01*
G54D11*
X212235Y100487D02*
X215943D01*
X212235Y98452D02*
X215943D01*
G54D12*
X214089Y99470D03*
G54D10*
X212292Y92088D02*
X215886D01*
G54D11*
X212235Y93106D02*
X215943D01*
X212235Y91070D02*
X215943D01*
G54D12*
X214089Y92088D03*
G54D10*
X141536Y74636D02*
X145131D01*
G54D11*
X141479Y75653D02*
X145188D01*
X141479Y73618D02*
X145188D01*
G54D12*
X143333Y74636D03*
G54D10*
X141536Y82018D02*
X145131D01*
G54D11*
X141479Y83035D02*
X145188D01*
X141479Y81000D02*
X145188D01*
G54D12*
X143333Y82018D03*
G54D10*
X151736Y74536D02*
X155331D01*
G54D11*
X151679Y75553D02*
X155388D01*
X151679Y73518D02*
X155388D01*
G54D12*
X153533Y74536D03*
G54D10*
X151736Y81918D02*
X155331D01*
G54D11*
X151679Y82935D02*
X155388D01*
X151679Y80900D02*
X155388D01*
G54D12*
X153533Y81918D03*
G54D10*
X154780Y50681D02*
Y54276D01*
G54D11*
X153762Y50624D02*
Y54333D01*
X155798Y50624D02*
Y54333D01*
G54D12*
X154780Y52479D03*
G54D10*
X147398Y50681D02*
Y54276D01*
G54D11*
X146380Y50624D02*
Y54333D01*
X148416Y50624D02*
Y54333D01*
G54D12*
X147398Y52479D03*
G54D10*
X200642Y49270D02*
X204236D01*
G54D11*
X200585Y50287D02*
X204293D01*
X200585Y48252D02*
X204293D01*
G54D12*
X202439Y49270D03*
G54D10*
X200642Y41888D02*
X204236D01*
G54D11*
X200585Y42906D02*
X204293D01*
X200585Y40870D02*
X204293D01*
G54D12*
X202439Y41888D03*
G54D10*
X200642Y55138D02*
X204236D01*
G54D11*
X200585Y56156D02*
X204293D01*
X200585Y54120D02*
X204293D01*
G54D12*
X202439Y55138D03*
G54D10*
X200642Y62520D02*
X204236D01*
G54D11*
X200585Y63537D02*
X204293D01*
X200585Y61502D02*
X204293D01*
G54D12*
X202439Y62520D03*
G54D10*
X161292Y57188D02*
X164886D01*
G54D11*
X161235Y58206D02*
X164943D01*
X161235Y56170D02*
X164943D01*
G54D12*
X163089Y57188D03*
G54D10*
X161292Y64570D02*
X164886D01*
G54D11*
X161235Y65587D02*
X164943D01*
X161235Y63552D02*
X164943D01*
G54D12*
X163089Y64570D03*
G54D10*
X217024Y59529D02*
Y63124D01*
G54D11*
X216007Y59472D02*
Y63181D01*
X218042Y59472D02*
Y63181D01*
G54D12*
X217024Y61327D03*
G54D10*
X209642Y59529D02*
Y63124D01*
G54D11*
X208625Y59472D02*
Y63181D01*
X210660Y59472D02*
Y63181D01*
G54D12*
X209642Y61327D03*
G54D14*
X173389Y81079D02*
X177129D01*
X173389Y86079D02*
X177129D01*
X173389Y91079D02*
X177129D01*
X173389Y96079D02*
X177129D01*
X194649D02*
X198389D01*
X194649Y91079D02*
X198389D01*
X194649Y86079D02*
X198389D01*
X194649Y81079D02*
X198389D01*
X170833Y64427D02*
X174573D01*
X170833Y59427D02*
X174573D01*
X170833Y54427D02*
X174573D01*
X170833Y49427D02*
X174573D01*
X192093D02*
X195833D01*
X192093Y54427D02*
X195833D01*
X192093Y59427D02*
X195833D01*
X192093Y64427D02*
X195833D01*
X157792Y94483D02*
X158186D01*
X157792Y88971D02*
X158186D01*
X150992Y89023D02*
X151386D01*
X150992Y94535D02*
X151386D01*
X144592Y94335D02*
X144986D01*
X144592Y88823D02*
X144986D01*
X164492Y94635D02*
X164886D01*
X164492Y89123D02*
X164886D01*
G54D15*
X200689Y72079D03*
X175439Y76829D03*
X193689Y45579D03*
X203543Y80933D03*
X162439Y53183D03*
Y47079D03*
X196939Y42079D03*
X173689Y70579D03*
G54D16*
X193963Y71788D02*
X193724Y72027D01*
X193963Y64427D02*
Y71788D01*
X177129Y81079D02*
X175259D01*
X181689D02*
X177129D01*
X181689Y97938D02*
Y81079D01*
X178998Y103779D02*
Y100629D01*
X181689Y97938D01*
X196037Y72027D02*
X193724D01*
X212477D02*
X196037D01*
X221580Y81129D02*
X212477Y72027D01*
X221580Y84279D02*
Y81129D01*
X178998Y103779D02*
Y107888D01*
X181729Y110619D02*
X192752D01*
X178998Y107888D02*
X181729Y110619D01*
X185189Y117779D02*
Y111079D01*
X175259Y78913D02*
Y81079D01*
X175189Y78843D02*
X175259Y78913D01*
X175439Y76829D02*
X175189Y78843D01*
X192112Y103779D02*
X192752Y103139D01*
X186380Y103779D02*
X192112D01*
X206189Y99470D02*
X214089D01*
X196519Y98244D02*
Y96079D01*
X197744Y99470D02*
X196519Y98244D01*
X206189Y99470D02*
X197744D01*
X196519Y99372D02*
X192752Y103139D01*
X196519Y96079D02*
Y99372D01*
X186342Y95232D02*
Y72027D01*
X196519Y96079D02*
X187189D01*
X186342Y95232D01*
X174573Y49427D02*
X172703D01*
X186939Y49579D02*
X174573Y49427D01*
X186689Y68079D02*
X186939Y49579D01*
X186342Y72027D02*
Y68877D01*
X186689Y68079D01*
X143333Y67618D02*
X143233Y67518D01*
X143333Y74636D02*
Y67618D01*
X196519Y86079D02*
Y81079D01*
X158089Y113679D02*
X159189Y114779D01*
X158089Y107970D02*
Y113679D01*
X151189Y106579D02*
X158089Y107970D01*
X146423Y102079D02*
X151189Y106579D01*
X141451Y97106D02*
X146423Y102079D01*
X141451Y89799D02*
X141451Y97106D01*
X144789Y88823D02*
X142427D01*
X141451Y89799D01*
X143233Y56643D02*
X147398Y52479D01*
X143233Y60136D02*
Y56643D01*
X191684Y49427D02*
X193963D01*
X183489Y41231D02*
X191684Y49427D01*
X183489Y38279D02*
Y41231D01*
X141433Y88823D02*
X142427D01*
X137689Y86579D02*
X141433Y88823D01*
X137689Y67579D02*
Y86579D01*
X143233Y60136D02*
X140084D01*
X137689Y67579D01*
X193963Y47261D02*
X193689Y46987D01*
X193963Y49427D02*
Y47261D01*
X193689Y46987D02*
Y45579D01*
X196665Y80933D02*
X196519Y81079D01*
X203543Y80933D02*
X196665D01*
X158238Y38489D02*
X147398Y49329D01*
X161689Y36579D02*
X158238Y38489D01*
X183489Y38279D02*
Y35326D01*
X183689Y35126D01*
X183189Y31329D01*
X147398Y49329D02*
Y52479D01*
X183189Y31329D02*
X177689D01*
X167266Y33290D01*
X161689Y36579D01*
X206189Y92088D02*
X214089D01*
Y84388D02*
X214198Y84279D01*
X214089Y92088D02*
Y84388D01*
X205180Y91079D02*
X206189Y92088D01*
X196519Y91079D02*
X205180D01*
X167932Y75036D02*
X163133D01*
X168689Y75079D02*
X167932Y75036D01*
X168789Y83644D02*
X168689Y75079D01*
X175259Y86079D02*
X171224D01*
X168789Y83644D01*
X153533Y68109D02*
X153333Y67909D01*
X153533Y74536D02*
Y68109D01*
X154033Y75036D02*
X153533Y74536D01*
X163133Y75036D02*
X154033D01*
X153333Y53925D02*
X154780Y52479D01*
X153333Y60527D02*
Y53925D01*
X158439Y50329D02*
X154780Y52479D01*
X167439Y50329D02*
X158439D01*
X168189Y52829D02*
X167439Y50329D01*
X172703Y54427D02*
X168189Y54579D01*
Y52829D01*
X175380Y36829D02*
X170630Y41579D01*
X176689Y36829D02*
X175380D01*
X163089Y54875D02*
X162439Y54225D01*
X163089Y57188D02*
Y54875D01*
X162439Y54225D02*
Y53183D01*
Y42388D02*
X163248Y41579D01*
X162439Y47079D02*
Y42388D01*
X217024Y53134D02*
X217880Y52279D01*
X217024Y61327D02*
Y53134D01*
X204689Y37079D02*
X191189Y36829D01*
X210439Y41329D02*
X204689Y37079D01*
X210439Y49070D02*
Y41329D01*
X210498Y52279D02*
Y49129D01*
X210439Y49070D01*
X150989Y94335D02*
X151189Y94535D01*
X144789Y94335D02*
X150989D01*
X166189Y113779D02*
X167189Y114779D01*
X166189Y107970D02*
Y113779D01*
X200626Y113094D02*
Y109438D01*
X195942Y117779D02*
X200626Y113094D01*
Y109438D02*
Y106879D01*
X192989Y117779D02*
X195942D01*
X202439Y49270D02*
Y55138D01*
X194674D02*
X193963Y54427D01*
X202439Y55138D02*
X194674D01*
X171224Y91079D02*
X169124Y88979D01*
X175259Y91079D02*
X171224D01*
X168980Y89123D02*
X164689D01*
X169124Y88979D02*
X168980Y89123D01*
X163133Y87567D02*
X164689Y89123D01*
X163133Y82418D02*
Y87567D01*
X158141Y89123D02*
X157989Y88971D01*
X164689Y89123D02*
X158141D01*
X151241Y88971D02*
X151189Y89023D01*
X157989Y88971D02*
X151241D01*
X151189Y84262D02*
X153533Y81918D01*
X151189Y89023D02*
Y84262D01*
X153433Y82018D02*
X153533Y81918D01*
X143333Y82018D02*
X153433D01*
X170698Y96079D02*
X166189Y100588D01*
X175259Y96079D02*
X170698D01*
X164689Y99088D02*
X166189Y100588D01*
X164689Y94635D02*
Y99088D01*
X157989Y100488D02*
X158089Y100588D01*
X157989Y94483D02*
Y100488D01*
X158141Y94635D02*
X157989Y94483D01*
X164689Y94635D02*
X158141D01*
X172703Y64427D02*
Y59427D01*
X163232Y64427D02*
X163089Y64570D01*
X172703Y64427D02*
X163232D01*
X173689Y65412D02*
X172703Y64427D01*
X173689Y70579D02*
Y65412D01*
X202321Y42079D02*
X202439Y42197D01*
X196939Y42079D02*
X202321D01*
X195254Y60718D02*
X193963Y59427D01*
X202633Y60718D02*
X195254D01*
X203242Y61327D02*
X202633Y60718D01*
X209642Y61327D02*
X203242D01*
G54D17*
X167189Y114779D03*
X185189Y117779D03*
X159189Y114779D03*
X176689Y36829D03*
X192989Y117779D03*
X183939Y36829D03*
X191189D03*
%LPC*%
X191189Y36829D02*
G54D18*
X230709Y76378D02*
X230659Y78572D01*
X230511Y80762D01*
X230265Y82943D01*
X229921Y85111D01*
X229480Y87261D01*
X228943Y89389D01*
X228311Y91491D01*
X227584Y93562D01*
X226766Y95599D01*
X225856Y97596D01*
X224858Y99551D01*
X223773Y101459D01*
X222604Y103316D01*
X221352Y105119D01*
X220020Y106864D01*
X218611Y108547D01*
X217128Y110165D01*
X215574Y111714D01*
X213951Y113193D01*
X212264Y114597D01*
X210516Y115923D01*
X208709Y117170D01*
X206849Y118334D01*
X204938Y119414D01*
X202980Y120406D01*
X200980Y121310D01*
X198941Y122122D01*
X196867Y122842D01*
X194764Y123469D01*
X192634Y124000D01*
X190483Y124435D01*
X188314Y124772D01*
X186132Y125012D01*
X183942Y125154D01*
X181748Y125197D01*
X179554Y125141D01*
X177364Y124987D01*
X175184Y124734D01*
X173017Y124384D01*
X170868Y123936D01*
X168742Y123393D01*
X166642Y122755D01*
X164573Y122022D01*
X162539Y121198D01*
X160544Y120283D01*
X158592Y119279D01*
X156687Y118188D01*
X154833Y117013D01*
X153034Y115756D01*
X151293Y114419D01*
X149614Y113006D01*
X148001Y111518D01*
X146455Y109959D01*
X144982Y108332D01*
X143583Y106641D01*
X142261Y104889D01*
X141020Y103079D01*
X139861Y101215D01*
X138787Y99300D01*
X137800Y97340D01*
X136903Y95337D01*
X136096Y93296D01*
X135382Y91220D01*
X134762Y89115D01*
X134237Y86984D01*
X133808Y84831D01*
X133477Y82661D01*
X133243Y80479D01*
X133108Y78288D01*
X133072Y76094D01*
X133134Y73900D01*
X133294Y71711D01*
X133553Y69531D01*
X133910Y67366D01*
X134364Y65218D01*
X134913Y63093D01*
X135558Y60995D01*
X136296Y58928D01*
X137126Y56896D01*
X138047Y54904D01*
X139057Y52955D01*
X140153Y51054D01*
X141333Y49203D01*
X142596Y47408D01*
X143938Y45671D01*
X145356Y43996D01*
X146849Y42387D01*
X148412Y40846D01*
X150043Y39377D01*
X151738Y37983D01*
X153494Y36667D01*
X155308Y35430D01*
X157175Y34277D01*
X159093Y33209D01*
X161056Y32228D01*
X163062Y31336D01*
X165105Y30535D01*
X167183Y29827D01*
X169290Y29213D01*
X171423Y28694D01*
X173577Y28272D01*
X175747Y27947D01*
X177930Y27720D01*
X180121Y27591D01*
X182316Y27561D01*
X184510Y27629D01*
X186698Y27796D01*
X188877Y28062D01*
X191042Y28425D01*
X193188Y28884D01*
X195311Y29440D01*
X197407Y30091D01*
X199472Y30835D01*
X201502Y31672D01*
X203491Y32598D01*
X205437Y33613D01*
X207336Y34715D01*
X209182Y35901D01*
X210974Y37169D01*
X212707Y38515D01*
X214378Y39939D01*
X215983Y41436D01*
X217519Y43004D01*
X218983Y44639D01*
X220372Y46338D01*
X221684Y48098D01*
X222914Y49916D01*
X224062Y51786D01*
X225125Y53707D01*
X226101Y55673D01*
X226986Y57681D01*
X227781Y59727D01*
X228483Y61807D01*
X229091Y63916D01*
X229604Y66050D01*
X230020Y68205D01*
X230338Y70376D01*
X230559Y72560D01*
X230682Y74752D01*
X230709Y76378D01*
%LPD*%
X230709Y76378D02*
G54D10*
X193724Y175741D02*
Y179336D01*
G54D11*
X192707Y175684D02*
Y179393D01*
X194742Y175684D02*
Y179393D01*
G54D12*
X193724Y177539D03*
G54D10*
X186342Y175741D02*
Y179336D01*
G54D11*
X185325Y175684D02*
Y179393D01*
X187360Y175684D02*
Y179393D01*
G54D12*
X186342Y177539D03*
G54D10*
X141436Y173029D02*
X145031D01*
G54D11*
X141379Y174047D02*
X145088D01*
X141379Y172012D02*
X145088D01*
G54D12*
X143233Y173029D03*
G54D10*
X141436Y165648D02*
X145031D01*
G54D11*
X141379Y166665D02*
X145088D01*
X141379Y164630D02*
X145088D01*
G54D12*
X143233Y165648D03*
G54D10*
X204392Y204981D02*
X207986D01*
G54D11*
X204335Y205999D02*
X208043D01*
X204335Y203964D02*
X208043D01*
G54D12*
X206189Y204981D03*
G54D10*
X204392Y197600D02*
X207986D01*
G54D11*
X204335Y198617D02*
X208043D01*
X204335Y196582D02*
X208043D01*
G54D12*
X206189Y197600D03*
G54D10*
X161336Y187929D02*
X164931D01*
G54D11*
X161279Y188947D02*
X164988D01*
X161279Y186912D02*
X164988D01*
G54D12*
X163133Y187929D03*
G54D10*
X161336Y180548D02*
X164931D01*
G54D11*
X161279Y181565D02*
X164988D01*
X161279Y179530D02*
X164988D01*
G54D12*
X163133Y180548D03*
G54D10*
X151536Y166039D02*
X155131D01*
G54D11*
X151479Y167056D02*
X155188D01*
X151479Y165021D02*
X155188D01*
G54D12*
X153333Y166039D03*
G54D10*
X151536Y173420D02*
X155131D01*
G54D11*
X151479Y174438D02*
X155188D01*
X151479Y172403D02*
X155188D01*
G54D12*
X153333Y173420D03*
G54D10*
X186380Y207493D02*
Y211088D01*
G54D11*
X185362Y207436D02*
Y211145D01*
X187398Y207436D02*
Y211145D01*
G54D12*
X186380Y209291D03*
G54D10*
X178998Y207493D02*
Y211088D01*
G54D11*
X177980Y207436D02*
Y211145D01*
X180016Y207436D02*
Y211145D01*
G54D12*
X178998Y209291D03*
G54D10*
X170630Y145293D02*
Y148888D01*
G54D11*
X169612Y145236D02*
Y148945D01*
X171648Y145236D02*
Y148945D01*
G54D12*
X170630Y147091D03*
G54D10*
X163248Y145293D02*
Y148888D01*
G54D11*
X162230Y145236D02*
Y148945D01*
X164266Y145236D02*
Y148945D01*
G54D12*
X163248Y147091D03*
G54D10*
X217880Y155993D02*
Y159588D01*
G54D11*
X216862Y155936D02*
Y159645D01*
X218898Y155936D02*
Y159645D01*
G54D12*
X217880Y157791D03*
G54D10*
X210498Y155993D02*
Y159588D01*
G54D11*
X209480Y155936D02*
Y159645D01*
X211516Y155936D02*
Y159645D01*
G54D12*
X210498Y157791D03*
G54D13*
X192555Y216131D02*
X192949D01*
X192555Y208650D02*
X192949D01*
X200429Y212391D02*
X200823D01*
G54D10*
X164392Y213481D02*
X167986D01*
G54D11*
X164335Y214499D02*
X168043D01*
X164335Y212464D02*
X168043D01*
G54D12*
X166189Y213481D03*
G54D10*
X164392Y206100D02*
X167986D01*
G54D11*
X164335Y207117D02*
X168043D01*
X164335Y205082D02*
X168043D01*
G54D12*
X166189Y206100D03*
G54D10*
X156292D02*
X159886D01*
G54D11*
X156235Y207117D02*
X159943D01*
X156235Y205082D02*
X159943D01*
G54D12*
X158089Y206100D03*
G54D10*
X156292Y213481D02*
X159886D01*
G54D11*
X156235Y214499D02*
X159943D01*
X156235Y212464D02*
X159943D01*
G54D12*
X158089Y213481D03*
G54D10*
X221580Y187993D02*
Y191588D01*
G54D11*
X220562Y187936D02*
Y191645D01*
X222598Y187936D02*
Y191645D01*
G54D12*
X221580Y189791D03*
G54D10*
X214198Y187993D02*
Y191588D01*
G54D11*
X213180Y187936D02*
Y191645D01*
X215216Y187936D02*
Y191645D01*
G54D12*
X214198Y189791D03*
G54D10*
X212292Y204981D02*
X215886D01*
G54D11*
X212235Y205999D02*
X215943D01*
X212235Y203964D02*
X215943D01*
G54D12*
X214089Y204981D03*
G54D10*
X212292Y197600D02*
X215886D01*
G54D11*
X212235Y198617D02*
X215943D01*
X212235Y196582D02*
X215943D01*
G54D12*
X214089Y197600D03*
G54D10*
X141536Y180148D02*
X145131D01*
G54D11*
X141479Y181165D02*
X145188D01*
X141479Y179130D02*
X145188D01*
G54D12*
X143333Y180148D03*
G54D10*
X141536Y187529D02*
X145131D01*
G54D11*
X141479Y188547D02*
X145188D01*
X141479Y186512D02*
X145188D01*
G54D12*
X143333Y187529D03*
G54D10*
X151736Y180048D02*
X155331D01*
G54D11*
X151679Y181065D02*
X155388D01*
X151679Y179030D02*
X155388D01*
G54D12*
X153533Y180048D03*
G54D10*
X151736Y187429D02*
X155331D01*
G54D11*
X151679Y188447D02*
X155388D01*
X151679Y186412D02*
X155388D01*
G54D12*
X153533Y187429D03*
G54D10*
X154780Y156193D02*
Y159788D01*
G54D11*
X153762Y156136D02*
Y159845D01*
X155798Y156136D02*
Y159845D01*
G54D12*
X154780Y157991D03*
G54D10*
X147398Y156193D02*
Y159788D01*
G54D11*
X146380Y156136D02*
Y159845D01*
X148416Y156136D02*
Y159845D01*
G54D12*
X147398Y157991D03*
G54D10*
X200642Y154781D02*
X204236D01*
G54D11*
X200585Y155799D02*
X204293D01*
X200585Y153764D02*
X204293D01*
G54D12*
X202439Y154781D03*
G54D10*
X200642Y147400D02*
X204236D01*
G54D11*
X200585Y148417D02*
X204293D01*
X200585Y146382D02*
X204293D01*
G54D12*
X202439Y147400D03*
G54D10*
X200642Y160650D02*
X204236D01*
G54D11*
X200585Y161667D02*
X204293D01*
X200585Y159632D02*
X204293D01*
G54D12*
X202439Y160650D03*
G54D10*
X200642Y168031D02*
X204236D01*
G54D11*
X200585Y169049D02*
X204293D01*
X200585Y167014D02*
X204293D01*
G54D12*
X202439Y168031D03*
G54D10*
X161292Y162700D02*
X164886D01*
G54D11*
X161235Y163717D02*
X164943D01*
X161235Y161682D02*
X164943D01*
G54D12*
X163089Y162700D03*
G54D10*
X161292Y170081D02*
X164886D01*
G54D11*
X161235Y171099D02*
X164943D01*
X161235Y169064D02*
X164943D01*
G54D12*
X163089Y170081D03*
G54D10*
X217024Y165041D02*
Y168636D01*
G54D11*
X216007Y164984D02*
Y168693D01*
X218042Y164984D02*
Y168693D01*
G54D12*
X217024Y166839D03*
G54D10*
X209642Y165041D02*
Y168636D01*
G54D11*
X208625Y164984D02*
Y168693D01*
X210660Y164984D02*
Y168693D01*
G54D12*
X209642Y166839D03*
G54D14*
X173389Y186591D02*
X177129D01*
X173389Y191591D02*
X177129D01*
X173389Y196591D02*
X177129D01*
X173389Y201591D02*
X177129D01*
X194649D02*
X198389D01*
X194649Y196591D02*
X198389D01*
X194649Y191591D02*
X198389D01*
X194649Y186591D02*
X198389D01*
X170833Y169939D02*
X174573D01*
X170833Y164939D02*
X174573D01*
X170833Y159939D02*
X174573D01*
X170833Y154939D02*
X174573D01*
X192093D02*
X195833D01*
X192093Y159939D02*
X195833D01*
X192093Y164939D02*
X195833D01*
X192093Y169939D02*
X195833D01*
X157792Y199994D02*
X158186D01*
X157792Y194483D02*
X158186D01*
X150992Y194535D02*
X151386D01*
X150992Y200046D02*
X151386D01*
X144592Y199846D02*
X144986D01*
X144592Y194335D02*
X144986D01*
X164492Y200146D02*
X164886D01*
X164492Y194635D02*
X164886D01*
G54D15*
X200689Y177591D03*
X175439Y182341D03*
X193689Y151091D03*
X203543Y186445D03*
X162439Y158695D03*
Y152591D03*
X196939Y147591D03*
X173689Y176091D03*
G54D16*
X193963Y177300D02*
X193724Y177539D01*
X193963Y169939D02*
Y177300D01*
X177129Y186591D02*
X175259D01*
X181689D02*
X177129D01*
X181689Y203450D02*
Y186591D01*
X178998Y209291D02*
Y206141D01*
X181689Y203450D01*
X196037Y177539D02*
X193724D01*
X212477D02*
X196037D01*
X221580Y186641D02*
X212477Y177539D01*
X221580Y189791D02*
Y186641D01*
X178998Y209291D02*
Y213400D01*
X181729Y216131D02*
X192752D01*
X178998Y213400D02*
X181729Y216131D01*
X185189Y223291D02*
Y216591D01*
X175259Y184425D02*
Y186591D01*
X175189Y184355D02*
X175259Y184425D01*
X175439Y182341D02*
X175189Y184355D01*
X192112Y209291D02*
X192752Y208650D01*
X186380Y209291D02*
X192112D01*
X206189Y204981D02*
X214089D01*
X196519Y203756D02*
Y201591D01*
X197744Y204981D02*
X196519Y203756D01*
X206189Y204981D02*
X197744D01*
X196519Y204883D02*
X192752Y208650D01*
X196519Y201591D02*
Y204883D01*
X186342Y200744D02*
Y177539D01*
X196519Y201591D02*
X187189D01*
X186342Y200744D01*
X174573Y154939D02*
X172703D01*
X186939Y155091D02*
X174573Y154939D01*
X186689Y173591D02*
X186939Y155091D01*
X186342Y177539D02*
Y174389D01*
X186689Y173591D01*
X143333Y173129D02*
X143233Y173029D01*
X143333Y180148D02*
Y173129D01*
X196519Y191591D02*
Y186591D01*
X158089Y219191D02*
X159189Y220291D01*
X158089Y213481D02*
Y219191D01*
X151189Y212091D02*
X158089Y213481D01*
X146423Y207591D02*
X151189Y212091D01*
X141451Y202618D02*
X146423Y207591D01*
X141451Y195311D02*
X141451Y202618D01*
X144789Y194335D02*
X142427D01*
X141451Y195311D01*
X143233Y162155D02*
X147398Y157991D01*
X143233Y165648D02*
Y162155D01*
X191684Y154939D02*
X193963D01*
X183489Y146743D02*
X191684Y154939D01*
X183489Y143791D02*
Y146743D01*
X141433Y194335D02*
X142427D01*
X137689Y192091D02*
X141433Y194335D01*
X137689Y173091D02*
Y192091D01*
X143233Y165648D02*
X140084D01*
X137689Y173091D01*
X193963Y152773D02*
X193689Y152499D01*
X193963Y154939D02*
Y152773D01*
X193689Y152499D02*
Y151091D01*
X196665Y186445D02*
X196519Y186591D01*
X203543Y186445D02*
X196665D01*
X158238Y144001D02*
X147398Y154841D01*
X161689Y142091D02*
X158238Y144001D01*
X183489Y143791D02*
Y140838D01*
X183689Y140638D01*
X183189Y136841D01*
X147398Y154841D02*
Y157991D01*
X183189Y136841D02*
X177689D01*
X167266Y138802D01*
X161689Y142091D01*
X206189Y197600D02*
X214089D01*
Y189900D02*
X214198Y189791D01*
X214089Y197600D02*
Y189900D01*
X205180Y196591D02*
X206189Y197600D01*
X196519Y196591D02*
X205180D01*
X167932Y180548D02*
X163133D01*
X168689Y180591D02*
X167932Y180548D01*
X168789Y189156D02*
X168689Y180591D01*
X175259Y191591D02*
X171224D01*
X168789Y189156D01*
X153533Y173620D02*
X153333Y173420D01*
X153533Y180048D02*
Y173620D01*
X154033Y180548D02*
X153533Y180048D01*
X163133Y180548D02*
X154033D01*
X153333Y159437D02*
X154780Y157991D01*
X153333Y166039D02*
Y159437D01*
X158439Y155841D02*
X154780Y157991D01*
X167439Y155841D02*
X158439D01*
X168189Y158341D02*
X167439Y155841D01*
X172703Y159939D02*
X168189Y160091D01*
Y158341D01*
X175380Y142341D02*
X170630Y147091D01*
X176689Y142341D02*
X175380D01*
X163089Y160387D02*
X162439Y159737D01*
X163089Y162700D02*
Y160387D01*
X162439Y159737D02*
Y158695D01*
Y147900D02*
X163248Y147091D01*
X162439Y152591D02*
Y147900D01*
X217024Y158646D02*
X217880Y157791D01*
X217024Y166839D02*
Y158646D01*
X204689Y142591D02*
X191189Y142341D01*
X210439Y146841D02*
X204689Y142591D01*
X210439Y154582D02*
Y146841D01*
X210498Y157791D02*
Y154641D01*
X210439Y154582D01*
X150989Y199846D02*
X151189Y200046D01*
X144789Y199846D02*
X150989D01*
X166189Y219291D02*
X167189Y220291D01*
X166189Y213481D02*
Y219291D01*
X200626Y218606D02*
Y214950D01*
X195942Y223291D02*
X200626Y218606D01*
Y214950D02*
Y212391D01*
X192989Y223291D02*
X195942D01*
X202439Y154781D02*
Y160650D01*
X194674D02*
X193963Y159939D01*
X202439Y160650D02*
X194674D01*
X171224Y196591D02*
X169124Y194491D01*
X175259Y196591D02*
X171224D01*
X168980Y194635D02*
X164689D01*
X169124Y194491D02*
X168980Y194635D01*
X163133Y193079D02*
X164689Y194635D01*
X163133Y187929D02*
Y193079D01*
X158141Y194635D02*
X157989Y194483D01*
X164689Y194635D02*
X158141D01*
X151241Y194483D02*
X151189Y194535D01*
X157989Y194483D02*
X151241D01*
X151189Y189774D02*
X153533Y187429D01*
X151189Y194535D02*
Y189774D01*
X153433Y187529D02*
X153533Y187429D01*
X143333Y187529D02*
X153433D01*
X170698Y201591D02*
X166189Y206100D01*
X175259Y201591D02*
X170698D01*
X164689Y204600D02*
X166189Y206100D01*
X164689Y200146D02*
Y204600D01*
X157989Y206000D02*
X158089Y206100D01*
X157989Y199994D02*
Y206000D01*
X158141Y200146D02*
X157989Y199994D01*
X164689Y200146D02*
X158141D01*
X172703Y169939D02*
Y164939D01*
X163232Y169939D02*
X163089Y170081D01*
X172703Y169939D02*
X163232D01*
X173689Y170924D02*
X172703Y169939D01*
X173689Y176091D02*
Y170924D01*
X202321Y147591D02*
X202439Y147709D01*
X196939Y147591D02*
X202321D01*
X195254Y166229D02*
X193963Y164939D01*
X202633Y166229D02*
X195254D01*
X203242Y166839D02*
X202633Y166229D01*
X209642Y166839D02*
X203242D01*
G54D17*
X167189Y220291D03*
X185189Y223291D03*
X159189Y220291D03*
X176689Y142341D03*
X192989Y223291D03*
X183939Y142341D03*
X191189D03*
%LPC*%
X191189Y142341D02*
G54D18*
X230709Y181890D02*
X230659Y184084D01*
X230511Y186274D01*
X230265Y188455D01*
X229921Y190623D01*
X229480Y192773D01*
X228943Y194901D01*
X228311Y197003D01*
X227584Y199074D01*
X226766Y201110D01*
X225856Y203108D01*
X224858Y205063D01*
X223773Y206971D01*
X222604Y208828D01*
X221352Y210631D01*
X220020Y212375D01*
X218611Y214059D01*
X217128Y215677D01*
X215574Y217226D01*
X213951Y218705D01*
X212264Y220108D01*
X210516Y221435D01*
X208709Y222682D01*
X206849Y223846D01*
X204938Y224926D01*
X202980Y225918D01*
X200980Y226821D01*
X198941Y227634D01*
X196867Y228354D01*
X194764Y228981D01*
X192634Y229512D01*
X190483Y229946D01*
X188314Y230284D01*
X186132Y230524D01*
X183942Y230666D01*
X181748Y230708D01*
X179554Y230653D01*
X177364Y230498D01*
X175184Y230246D01*
X173017Y229896D01*
X170868Y229448D01*
X168742Y228905D01*
X166642Y228266D01*
X164573Y227534D01*
X162539Y226710D01*
X160544Y225794D01*
X158592Y224791D01*
X156687Y223700D01*
X154833Y222525D01*
X153034Y221268D01*
X151293Y219931D01*
X149614Y218517D01*
X148001Y217030D01*
X146455Y215471D01*
X144982Y213844D01*
X143583Y212153D01*
X142261Y210401D01*
X141020Y208591D01*
X139861Y206726D01*
X138787Y204812D01*
X137800Y202852D01*
X136903Y200849D01*
X136096Y198808D01*
X135382Y196732D01*
X134762Y194627D01*
X134237Y192496D01*
X133808Y190343D01*
X133477Y188173D01*
X133243Y185991D01*
X133108Y183800D01*
X133072Y181606D01*
X133134Y179412D01*
X133294Y177223D01*
X133553Y175043D01*
X133910Y172877D01*
X134364Y170730D01*
X134913Y168605D01*
X135558Y166507D01*
X136296Y164440D01*
X137126Y162408D01*
X138047Y160416D01*
X139057Y158467D01*
X140153Y156565D01*
X141333Y154715D01*
X142596Y152920D01*
X143938Y151183D01*
X145356Y149508D01*
X146849Y147898D01*
X148412Y146358D01*
X150043Y144889D01*
X151738Y143495D01*
X153494Y142178D01*
X155308Y140942D01*
X157175Y139789D01*
X159093Y138721D01*
X161056Y137739D01*
X163062Y136848D01*
X165105Y136047D01*
X167183Y135339D01*
X169290Y134725D01*
X171423Y134206D01*
X173577Y133784D01*
X175747Y133459D01*
X177930Y133232D01*
X180121Y133103D01*
X182316Y133073D01*
X184510Y133141D01*
X186698Y133308D01*
X188877Y133574D01*
X191042Y133936D01*
X193188Y134396D01*
X195311Y134952D01*
X197407Y135603D01*
X199472Y136347D01*
X201502Y137183D01*
X203491Y138110D01*
X205437Y139125D01*
X207336Y140227D01*
X209182Y141413D01*
X210974Y142680D01*
X212707Y144027D01*
X214378Y145451D01*
X215983Y146948D01*
X217519Y148516D01*
X218983Y150151D01*
X220372Y151850D01*
X221684Y153610D01*
X222914Y155427D01*
X224062Y157298D01*
X225125Y159219D01*
X226101Y161185D01*
X226986Y163193D01*
X227781Y165239D01*
X228483Y167318D01*
X229091Y169427D01*
X229604Y171562D01*
X230020Y173717D01*
X230338Y175888D01*
X230559Y178072D01*
X230682Y180263D01*
X230709Y181890D01*
%LPD*%
X230709Y181890D02*
G54D10*
X193724Y281253D02*
Y284848D01*
G54D11*
X192707Y281196D02*
Y284905D01*
X194742Y281196D02*
Y284905D01*
G54D12*
X193724Y283050D03*
G54D10*
X186342Y281253D02*
Y284848D01*
G54D11*
X185325Y281196D02*
Y284905D01*
X187360Y281196D02*
Y284905D01*
G54D12*
X186342Y283050D03*
G54D10*
X141436Y278541D02*
X145031D01*
G54D11*
X141379Y279559D02*
X145088D01*
X141379Y277524D02*
X145088D01*
G54D12*
X143233Y278541D03*
G54D10*
X141436Y271159D02*
X145031D01*
G54D11*
X141379Y272177D02*
X145088D01*
X141379Y270142D02*
X145088D01*
G54D12*
X143233Y271159D03*
G54D10*
X204392Y310493D02*
X207986D01*
G54D11*
X204335Y311511D02*
X208043D01*
X204335Y309476D02*
X208043D01*
G54D12*
X206189Y310493D03*
G54D10*
X204392Y303111D02*
X207986D01*
G54D11*
X204335Y304129D02*
X208043D01*
X204335Y302094D02*
X208043D01*
G54D12*
X206189Y303111D03*
G54D10*
X161336Y293441D02*
X164931D01*
G54D11*
X161279Y294459D02*
X164988D01*
X161279Y292424D02*
X164988D01*
G54D12*
X163133Y293441D03*
G54D10*
X161336Y286059D02*
X164931D01*
G54D11*
X161279Y287077D02*
X164988D01*
X161279Y285042D02*
X164988D01*
G54D12*
X163133Y286059D03*
G54D10*
X151536Y271550D02*
X155131D01*
G54D11*
X151479Y272568D02*
X155188D01*
X151479Y270533D02*
X155188D01*
G54D12*
X153333Y271550D03*
G54D10*
X151536Y278932D02*
X155131D01*
G54D11*
X151479Y279950D02*
X155188D01*
X151479Y277914D02*
X155188D01*
G54D12*
X153333Y278932D03*
G54D10*
X186380Y313005D02*
Y316600D01*
G54D11*
X185362Y312948D02*
Y316657D01*
X187398Y312948D02*
Y316657D01*
G54D12*
X186380Y314802D03*
G54D10*
X178998Y313005D02*
Y316600D01*
G54D11*
X177980Y312948D02*
Y316657D01*
X180016Y312948D02*
Y316657D01*
G54D12*
X178998Y314802D03*
G54D10*
X170630Y250805D02*
Y254400D01*
G54D11*
X169612Y250748D02*
Y254457D01*
X171648Y250748D02*
Y254457D01*
G54D12*
X170630Y252602D03*
G54D10*
X163248Y250805D02*
Y254400D01*
G54D11*
X162230Y250748D02*
Y254457D01*
X164266Y250748D02*
Y254457D01*
G54D12*
X163248Y252602D03*
G54D10*
X217880Y261505D02*
Y265100D01*
G54D11*
X216862Y261448D02*
Y265157D01*
X218898Y261448D02*
Y265157D01*
G54D12*
X217880Y263302D03*
G54D10*
X210498Y261505D02*
Y265100D01*
G54D11*
X209480Y261448D02*
Y265157D01*
X211516Y261448D02*
Y265157D01*
G54D12*
X210498Y263302D03*
G54D13*
X192555Y321643D02*
X192949D01*
X192555Y314162D02*
X192949D01*
X200429Y317902D02*
X200823D01*
G54D10*
X164392Y318993D02*
X167986D01*
G54D11*
X164335Y320011D02*
X168043D01*
X164335Y317976D02*
X168043D01*
G54D12*
X166189Y318993D03*
G54D10*
X164392Y311611D02*
X167986D01*
G54D11*
X164335Y312629D02*
X168043D01*
X164335Y310594D02*
X168043D01*
G54D12*
X166189Y311611D03*
G54D10*
X156292D02*
X159886D01*
G54D11*
X156235Y312629D02*
X159943D01*
X156235Y310594D02*
X159943D01*
G54D12*
X158089Y311611D03*
G54D10*
X156292Y318993D02*
X159886D01*
G54D11*
X156235Y320011D02*
X159943D01*
X156235Y317976D02*
X159943D01*
G54D12*
X158089Y318993D03*
G54D10*
X221580Y293505D02*
Y297100D01*
G54D11*
X220562Y293448D02*
Y297157D01*
X222598Y293448D02*
Y297157D01*
G54D12*
X221580Y295302D03*
G54D10*
X214198Y293505D02*
Y297100D01*
G54D11*
X213180Y293448D02*
Y297157D01*
X215216Y293448D02*
Y297157D01*
G54D12*
X214198Y295302D03*
G54D10*
X212292Y310493D02*
X215886D01*
G54D11*
X212235Y311511D02*
X215943D01*
X212235Y309476D02*
X215943D01*
G54D12*
X214089Y310493D03*
G54D10*
X212292Y303111D02*
X215886D01*
G54D11*
X212235Y304129D02*
X215943D01*
X212235Y302094D02*
X215943D01*
G54D12*
X214089Y303111D03*
G54D10*
X141536Y285659D02*
X145131D01*
G54D11*
X141479Y286677D02*
X145188D01*
X141479Y284642D02*
X145188D01*
G54D12*
X143333Y285659D03*
G54D10*
X141536Y293041D02*
X145131D01*
G54D11*
X141479Y294059D02*
X145188D01*
X141479Y292024D02*
X145188D01*
G54D12*
X143333Y293041D03*
G54D10*
X151736Y285559D02*
X155331D01*
G54D11*
X151679Y286577D02*
X155388D01*
X151679Y284542D02*
X155388D01*
G54D12*
X153533Y285559D03*
G54D10*
X151736Y292941D02*
X155331D01*
G54D11*
X151679Y293959D02*
X155388D01*
X151679Y291924D02*
X155388D01*
G54D12*
X153533Y292941D03*
G54D10*
X154780Y261705D02*
Y265300D01*
G54D11*
X153762Y261648D02*
Y265357D01*
X155798Y261648D02*
Y265357D01*
G54D12*
X154780Y263502D03*
G54D10*
X147398Y261705D02*
Y265300D01*
G54D11*
X146380Y261648D02*
Y265357D01*
X148416Y261648D02*
Y265357D01*
G54D12*
X147398Y263502D03*
G54D10*
X200642Y260293D02*
X204236D01*
G54D11*
X200585Y261311D02*
X204293D01*
X200585Y259276D02*
X204293D01*
G54D12*
X202439Y260293D03*
G54D10*
X200642Y252911D02*
X204236D01*
G54D11*
X200585Y253929D02*
X204293D01*
X200585Y251894D02*
X204293D01*
G54D12*
X202439Y252911D03*
G54D10*
X200642Y266161D02*
X204236D01*
G54D11*
X200585Y267179D02*
X204293D01*
X200585Y265144D02*
X204293D01*
G54D12*
X202439Y266161D03*
G54D10*
X200642Y273543D02*
X204236D01*
G54D11*
X200585Y274561D02*
X204293D01*
X200585Y272526D02*
X204293D01*
G54D12*
X202439Y273543D03*
G54D10*
X161292Y268211D02*
X164886D01*
G54D11*
X161235Y269229D02*
X164943D01*
X161235Y267194D02*
X164943D01*
G54D12*
X163089Y268211D03*
G54D10*
X161292Y275593D02*
X164886D01*
G54D11*
X161235Y276611D02*
X164943D01*
X161235Y274576D02*
X164943D01*
G54D12*
X163089Y275593D03*
G54D10*
X217024Y270553D02*
Y274148D01*
G54D11*
X216007Y270496D02*
Y274205D01*
X218042Y270496D02*
Y274205D01*
G54D12*
X217024Y272350D03*
G54D10*
X209642Y270553D02*
Y274148D01*
G54D11*
X208625Y270496D02*
Y274205D01*
X210660Y270496D02*
Y274205D01*
G54D12*
X209642Y272350D03*
G54D14*
X173389Y292102D02*
X177129D01*
X173389Y297102D02*
X177129D01*
X173389Y302102D02*
X177129D01*
X173389Y307102D02*
X177129D01*
X194649D02*
X198389D01*
X194649Y302102D02*
X198389D01*
X194649Y297102D02*
X198389D01*
X194649Y292102D02*
X198389D01*
X170833Y275450D02*
X174573D01*
X170833Y270450D02*
X174573D01*
X170833Y265450D02*
X174573D01*
X170833Y260450D02*
X174573D01*
X192093D02*
X195833D01*
X192093Y265450D02*
X195833D01*
X192093Y270450D02*
X195833D01*
X192093Y275450D02*
X195833D01*
X157792Y305506D02*
X158186D01*
X157792Y299994D02*
X158186D01*
X150992Y300046D02*
X151386D01*
X150992Y305558D02*
X151386D01*
X144592Y305358D02*
X144986D01*
X144592Y299846D02*
X144986D01*
X164492Y305658D02*
X164886D01*
X164492Y300146D02*
X164886D01*
G54D15*
X200689Y283102D03*
X175439Y287852D03*
X193689Y256602D03*
X203543Y291957D03*
X162439Y264207D03*
Y258102D03*
X196939Y253102D03*
X173689Y281602D03*
G54D16*
X193963Y282811D02*
X193724Y283050D01*
X193963Y275450D02*
Y282811D01*
X177129Y292102D02*
X175259D01*
X181689D02*
X177129D01*
X181689Y308962D02*
Y292102D01*
X178998Y314802D02*
Y311653D01*
X181689Y308962D01*
X196037Y283050D02*
X193724D01*
X212477D02*
X196037D01*
X221580Y292153D02*
X212477Y283050D01*
X221580Y295302D02*
Y292153D01*
X178998Y314802D02*
Y318911D01*
X181729Y321643D02*
X192752D01*
X178998Y318911D02*
X181729Y321643D01*
X185189Y328802D02*
Y322102D01*
X175259Y289937D02*
Y292102D01*
X175189Y289867D02*
X175259Y289937D01*
X175439Y287852D02*
X175189Y289867D01*
X192112Y314802D02*
X192752Y314162D01*
X186380Y314802D02*
X192112D01*
X206189Y310493D02*
X214089D01*
X196519Y309268D02*
Y307102D01*
X197744Y310493D02*
X196519Y309268D01*
X206189Y310493D02*
X197744D01*
X196519Y310395D02*
X192752Y314162D01*
X196519Y307102D02*
Y310395D01*
X186342Y306256D02*
Y283050D01*
X196519Y307102D02*
X187189D01*
X186342Y306256D01*
X174573Y260450D02*
X172703D01*
X186939Y260602D02*
X174573Y260450D01*
X186689Y279102D02*
X186939Y260602D01*
X186342Y283050D02*
Y279901D01*
X186689Y279102D01*
X143333Y278641D02*
X143233Y278541D01*
X143333Y285659D02*
Y278641D01*
X196519Y297102D02*
Y292102D01*
X158089Y324702D02*
X159189Y325802D01*
X158089Y318993D02*
Y324702D01*
X151189Y317602D02*
X158089Y318993D01*
X146423Y313102D02*
X151189Y317602D01*
X141451Y308130D02*
X146423Y313102D01*
X141451Y300823D02*
X141451Y308130D01*
X144789Y299846D02*
X142427D01*
X141451Y300823D01*
X143233Y267667D02*
X147398Y263502D01*
X143233Y271159D02*
Y267667D01*
X191684Y260450D02*
X193963D01*
X183489Y252255D02*
X191684Y260450D01*
X183489Y249302D02*
Y252255D01*
X141433Y299846D02*
X142427D01*
X137689Y297602D02*
X141433Y299846D01*
X137689Y278602D02*
Y297602D01*
X143233Y271159D02*
X140084D01*
X137689Y278602D01*
X193963Y258285D02*
X193689Y258011D01*
X193963Y260450D02*
Y258285D01*
X193689Y258011D02*
Y256602D01*
X196665Y291957D02*
X196519Y292102D01*
X203543Y291957D02*
X196665D01*
X158238Y249513D02*
X147398Y260353D01*
X161689Y247602D02*
X158238Y249513D01*
X183489Y249302D02*
Y246350D01*
X183689Y246150D01*
X183189Y242352D01*
X147398Y260353D02*
Y263502D01*
X183189Y242352D02*
X177689D01*
X167266Y244314D01*
X161689Y247602D01*
X206189Y303111D02*
X214089D01*
Y295411D02*
X214198Y295302D01*
X214089Y303111D02*
Y295411D01*
X205180Y302102D02*
X206189Y303111D01*
X196519Y302102D02*
X205180D01*
X167932Y286059D02*
X163133D01*
X168689Y286102D02*
X167932Y286059D01*
X168789Y294668D02*
X168689Y286102D01*
X175259Y297102D02*
X171224D01*
X168789Y294668D01*
X153533Y279132D02*
X153333Y278932D01*
X153533Y285559D02*
Y279132D01*
X154033Y286059D02*
X153533Y285559D01*
X163133Y286059D02*
X154033D01*
X153333Y264949D02*
X154780Y263502D01*
X153333Y271550D02*
Y264949D01*
X158439Y261352D02*
X154780Y263502D01*
X167439Y261352D02*
X158439D01*
X168189Y263852D02*
X167439Y261352D01*
X172703Y265450D02*
X168189Y265602D01*
Y263852D01*
X175380Y247852D02*
X170630Y252602D01*
X176689Y247852D02*
X175380D01*
X163089Y265898D02*
X162439Y265248D01*
X163089Y268211D02*
Y265898D01*
X162439Y265248D02*
Y264207D01*
Y253411D02*
X163248Y252602D01*
X162439Y258102D02*
Y253411D01*
X217024Y264158D02*
X217880Y263302D01*
X217024Y272350D02*
Y264158D01*
X204689Y248102D02*
X191189Y247852D01*
X210439Y252352D02*
X204689Y248102D01*
X210439Y260094D02*
Y252352D01*
X210498Y263302D02*
Y260153D01*
X210439Y260094D01*
X150989Y305358D02*
X151189Y305558D01*
X144789Y305358D02*
X150989D01*
X166189Y324802D02*
X167189Y325802D01*
X166189Y318993D02*
Y324802D01*
X200626Y324118D02*
Y320461D01*
X195942Y328802D02*
X200626Y324118D01*
Y320461D02*
Y317902D01*
X192989Y328802D02*
X195942D01*
X202439Y260293D02*
Y266161D01*
X194674D02*
X193963Y265450D01*
X202439Y266161D02*
X194674D01*
X171224Y302102D02*
X169124Y300002D01*
X175259Y302102D02*
X171224D01*
X168980Y300146D02*
X164689D01*
X169124Y300002D02*
X168980Y300146D01*
X163133Y298591D02*
X164689Y300146D01*
X163133Y293441D02*
Y298591D01*
X158141Y300146D02*
X157989Y299994D01*
X164689Y300146D02*
X158141D01*
X151241Y299994D02*
X151189Y300046D01*
X157989Y299994D02*
X151241D01*
X151189Y295286D02*
X153533Y292941D01*
X151189Y300046D02*
Y295286D01*
X153433Y293041D02*
X153533Y292941D01*
X143333Y293041D02*
X153433D01*
X170698Y307102D02*
X166189Y311611D01*
X175259Y307102D02*
X170698D01*
X164689Y310111D02*
X166189Y311611D01*
X164689Y305658D02*
Y310111D01*
X157989Y311511D02*
X158089Y311611D01*
X157989Y305506D02*
Y311511D01*
X158141Y305658D02*
X157989Y305506D01*
X164689Y305658D02*
X158141D01*
X172703Y275450D02*
Y270450D01*
X163232Y275450D02*
X163089Y275593D01*
X172703Y275450D02*
X163232D01*
X173689Y276436D02*
X172703Y275450D01*
X173689Y281602D02*
Y276436D01*
X202321Y253102D02*
X202439Y253220D01*
X196939Y253102D02*
X202321D01*
X195254Y271741D02*
X193963Y270450D01*
X202633Y271741D02*
X195254D01*
X203242Y272350D02*
X202633Y271741D01*
X209642Y272350D02*
X203242D01*
G54D17*
X167189Y325802D03*
X185189Y328802D03*
X159189Y325802D03*
X176689Y247852D03*
X192989Y328802D03*
X183939Y247852D03*
X191189D03*
%LPC*%
X191189Y247852D02*
G54D18*
X230709Y287402D02*
X230659Y289596D01*
X230511Y291786D01*
X230265Y293967D01*
X229921Y296135D01*
X229480Y298285D01*
X228943Y300413D01*
X228311Y302514D01*
X227584Y304586D01*
X226766Y306622D01*
X225856Y308620D01*
X224858Y310575D01*
X223773Y312483D01*
X222604Y314340D01*
X221352Y316143D01*
X220020Y317887D01*
X218611Y319570D01*
X217128Y321188D01*
X215574Y322738D01*
X213951Y324216D01*
X212264Y325620D01*
X210516Y326947D01*
X208709Y328194D01*
X206849Y329358D01*
X204938Y330437D01*
X202980Y331430D01*
X200980Y332333D01*
X198941Y333146D01*
X196867Y333866D01*
X194764Y334492D01*
X192634Y335023D01*
X190483Y335458D01*
X188314Y335796D01*
X186132Y336036D01*
X183942Y336177D01*
X181748Y336220D01*
X179554Y336165D01*
X177364Y336010D01*
X175184Y335758D01*
X173017Y335407D01*
X170868Y334960D01*
X168742Y334417D01*
X166642Y333778D01*
X164573Y333046D01*
X162539Y332221D01*
X160544Y331306D01*
X158592Y330302D01*
X156687Y329212D01*
X154833Y328037D01*
X153034Y326780D01*
X151293Y325443D01*
X149614Y324029D01*
X148001Y322541D01*
X146455Y320983D01*
X144982Y319356D01*
X143583Y317665D01*
X142261Y315912D01*
X141020Y314102D01*
X139861Y312238D01*
X138787Y310324D01*
X137800Y308364D01*
X136903Y306361D01*
X136096Y304319D01*
X135382Y302244D01*
X134762Y300139D01*
X134237Y298007D01*
X133808Y295855D01*
X133477Y293685D01*
X133243Y291503D01*
X133108Y289312D01*
X133072Y287117D01*
X133134Y284923D01*
X133294Y282734D01*
X133553Y280555D01*
X133910Y278389D01*
X134364Y276242D01*
X134913Y274117D01*
X135558Y272019D01*
X136296Y269952D01*
X137126Y267920D01*
X138047Y265928D01*
X139057Y263979D01*
X140153Y262077D01*
X141333Y260227D01*
X142596Y258431D01*
X143938Y256694D01*
X145356Y255020D01*
X146849Y253410D01*
X148412Y251870D01*
X150043Y250401D01*
X151738Y249007D01*
X153494Y247690D01*
X155308Y246454D01*
X157175Y245301D01*
X159093Y244232D01*
X161056Y243251D01*
X163062Y242359D01*
X165105Y241559D01*
X167183Y240851D01*
X169290Y240237D01*
X171423Y239718D01*
X173577Y239296D01*
X175747Y238971D01*
X177930Y238744D01*
X180121Y238615D01*
X182316Y238585D01*
X184510Y238653D01*
X186698Y238820D01*
X188877Y239085D01*
X191042Y239448D01*
X193188Y239908D01*
X195311Y240464D01*
X197407Y241115D01*
X199472Y241859D01*
X201502Y242695D01*
X203491Y243622D01*
X205437Y244637D01*
X207336Y245739D01*
X209182Y246925D01*
X210974Y248192D01*
X212707Y249539D01*
X214378Y250963D01*
X215983Y252460D01*
X217519Y254027D01*
X218983Y255663D01*
X220372Y257362D01*
X221684Y259122D01*
X222914Y260939D01*
X224062Y262810D01*
X225125Y264730D01*
X226101Y266697D01*
X226986Y268705D01*
X227781Y270751D01*
X228483Y272830D01*
X229091Y274939D01*
X229604Y277073D01*
X230020Y279228D01*
X230338Y281400D01*
X230559Y283584D01*
X230682Y285775D01*
X230709Y287402D01*
%LPD*%
X230709Y287402D02*
G54D19*
X13780Y53150D03*
Y310630D03*
X244488D03*
Y53150D03*
M02*
